<svg width="600" height="600" fill="none" xmlns="http://www.w3.org/2000/svg"><path d="M306 101.973v241.568" stroke="#242729" stroke-width="2" stroke-miterlimit="10"/><path d="M354.506 61.883a26.482 26.482 0 0 0-6.009.698 18.62 18.62 0 0 0-3.437-8.316 18.555 18.555 0 0 0-6.932-5.724 18.508 18.508 0 0 0-17.409.776 36.86 36.86 0 0 0-16.708-10.705 36.782 36.782 0 0 0-19.824-.48 36.847 36.847 0 0 0-17.205 9.884 36.976 36.976 0 0 0-9.608 17.388 37.296 37.296 0 0 0-.995 8.557c.001 1.722.124 3.441.368 5.146v.04a18.398 18.398 0 0 0-15.529 1.362 18.454 18.454 0 0 0-5.885 5.407 18.513 18.513 0 0 0 .986 22.487 18.42 18.42 0 0 0 14.13 6.597h104.057a26.46 26.46 0 0 0 18.734-7.779 26.588 26.588 0 0 0 7.76-18.78 26.59 26.59 0 0 0-7.76-18.779 26.461 26.461 0 0 0-18.734-7.779z" fill="#5F67FA"/><path d="M306.275 250.862c28.059 0 50.805-22.746 50.805-50.805s-22.746-50.805-50.805-50.805-50.805 22.746-50.805 50.805 22.746 50.805 50.805 50.805z" fill="#5EBA7D"/><path d="M306.275 235.098c19.353 0 35.041-15.689 35.041-35.041 0-19.353-15.688-35.041-35.041-35.041-19.353 0-35.041 15.688-35.041 35.041 0 19.352 15.688 35.041 35.041 35.041z" stroke="#242729" stroke-width="2" stroke-miterlimit="10"/><path d="M306.275 235.098c9.995 0 18.098-15.689 18.098-35.041 0-19.353-8.103-35.041-18.098-35.041s-18.098 15.688-18.098 35.041c0 19.352 8.103 35.041 18.098 35.041zM306 165v70.083m-34.767-35.026h70.083" stroke="#242729" stroke-width="2" stroke-miterlimit="10"/><path d="M330.025 174.5a34.914 34.914 0 0 1-23.75 9.276 34.914 34.914 0 0 1-23.75-9.276m0 51.776a34.918 34.918 0 0 1 23.75-9.276 34.918 34.918 0 0 1 23.75 9.276" stroke="#242729" stroke-width="2" stroke-miterlimit="10"/><path d="M327 98l5 17h-5V98z" fill="#242729"/><path d="M286 98h41v28h-41V98z" fill="#FDD853"/><path d="M319.626 98.026v-6.203a13.351 13.351 0 1 0-26.703 0v6.203" stroke="#fff" stroke-width="4" stroke-miterlimit="10"/><path d="M308.953 109.297a2.688 2.688 0 0 0-1.309-2.308 2.681 2.681 0 0 0-3.649.897 2.68 2.68 0 0 0 .838 3.662l-1.237 5.842h5.357l-1.236-5.842a2.676 2.676 0 0 0 1.236-2.25v-.001z" fill="#F48024"/><path d="M89.04 101.973H49.013a9.997 9.997 0 0 0-10 10v127.91a10.001 10.001 0 0 0 10 10h80.557M219 349.164V310h-84V116.065" stroke="#242729" stroke-width="2" stroke-miterlimit="10"/><path d="M453.508 57.334c1.588 0 2.876-1.309 2.876-2.924s-1.288-2.924-2.876-2.924c-1.588 0-2.876 1.31-2.876 2.924 0 1.615 1.288 2.924 2.876 2.924zm17.333 0c1.588 0 2.876-1.309 2.876-2.924s-1.288-2.924-2.876-2.924c-1.588 0-2.876 1.31-2.876 2.924 0 1.615 1.288 2.924 2.876 2.924zm17.333 0c1.588 0 2.876-1.309 2.876-2.924s-1.288-2.924-2.876-2.924c-1.588 0-2.876 1.31-2.876 2.924 0 1.615 1.288 2.924 2.876 2.924zm17.332 0c1.588 0 2.876-1.309 2.876-2.924s-1.288-2.924-2.876-2.924c-1.588 0-2.876 1.31-2.876 2.924 0 1.615 1.288 2.924 2.876 2.924zm17.333 0c1.588 0 2.876-1.309 2.876-2.924s-1.288-2.924-2.876-2.924c-1.588 0-2.876 1.31-2.876 2.924 0 1.615 1.288 2.924 2.876 2.924zm17.333 0c1.588 0 2.876-1.309 2.876-2.924s-1.288-2.924-2.876-2.924c-1.588 0-2.876 1.31-2.876 2.924 0 1.615 1.288 2.924 2.876 2.924zm17.333 0c1.588 0 2.876-1.309 2.876-2.924s-1.288-2.924-2.876-2.924c-1.588 0-2.876 1.31-2.876 2.924 0 1.615 1.288 2.924 2.876 2.924zm-103.997 17.62c1.588 0 2.876-1.309 2.876-2.924 0-1.614-1.288-2.924-2.876-2.924-1.588 0-2.876 1.31-2.876 2.924 0 1.615 1.288 2.924 2.876 2.924zm17.333 0c1.588 0 2.876-1.309 2.876-2.924 0-1.614-1.288-2.924-2.876-2.924-1.588 0-2.876 1.31-2.876 2.924 0 1.615 1.288 2.924 2.876 2.924zm17.333 0c1.588 0 2.876-1.309 2.876-2.924 0-1.614-1.288-2.924-2.876-2.924-1.588 0-2.876 1.31-2.876 2.924 0 1.615 1.288 2.924 2.876 2.924zm17.332 0c1.588 0 2.876-1.309 2.876-2.924 0-1.614-1.288-2.924-2.876-2.924-1.588 0-2.876 1.31-2.876 2.924 0 1.615 1.288 2.924 2.876 2.924zm17.333 0c1.588 0 2.876-1.309 2.876-2.924 0-1.614-1.288-2.924-2.876-2.924-1.588 0-2.876 1.31-2.876 2.924 0 1.615 1.288 2.924 2.876 2.924zm17.333 0c1.588 0 2.876-1.309 2.876-2.924 0-1.614-1.288-2.924-2.876-2.924-1.588 0-2.876 1.31-2.876 2.924 0 1.615 1.288 2.924 2.876 2.924zm17.333 0c1.588 0 2.876-1.309 2.876-2.924 0-1.614-1.288-2.924-2.876-2.924-1.588 0-2.876 1.31-2.876 2.924 0 1.615 1.288 2.924 2.876 2.924zm-103.997 17.62c1.588 0 2.876-1.309 2.876-2.923 0-1.615-1.288-2.924-2.876-2.924-1.588 0-2.876 1.309-2.876 2.924 0 1.614 1.288 2.924 2.876 2.924zm17.333 0c1.588 0 2.876-1.309 2.876-2.923 0-1.615-1.288-2.924-2.876-2.924-1.588 0-2.876 1.309-2.876 2.924 0 1.614 1.288 2.924 2.876 2.924zm17.333 0c1.588 0 2.876-1.309 2.876-2.923 0-1.615-1.288-2.924-2.876-2.924-1.588 0-2.876 1.309-2.876 2.924 0 1.614 1.288 2.924 2.876 2.924zm17.332 0c1.588 0 2.876-1.309 2.876-2.923 0-1.615-1.288-2.924-2.876-2.924-1.588 0-2.876 1.309-2.876 2.924 0 1.614 1.288 2.924 2.876 2.924zm17.333 0c1.588 0 2.876-1.309 2.876-2.923 0-1.615-1.288-2.924-2.876-2.924-1.588 0-2.876 1.309-2.876 2.924 0 1.614 1.288 2.924 2.876 2.924zm17.333 0c1.588 0 2.876-1.309 2.876-2.923 0-1.615-1.288-2.924-2.876-2.924-1.588 0-2.876 1.309-2.876 2.924 0 1.614 1.288 2.924 2.876 2.924zm17.333 0c1.588 0 2.876-1.309 2.876-2.923 0-1.615-1.288-2.924-2.876-2.924-1.588 0-2.876 1.309-2.876 2.924 0 1.614 1.288 2.924 2.876 2.924zm-103.997 17.621c1.588 0 2.876-1.309 2.876-2.924s-1.288-2.924-2.876-2.924c-1.588 0-2.876 1.309-2.876 2.924s1.288 2.924 2.876 2.924zm17.333 0c1.588 0 2.876-1.309 2.876-2.924s-1.288-2.924-2.876-2.924c-1.588 0-2.876 1.309-2.876 2.924s1.288 2.924 2.876 2.924zm17.333 0c1.588 0 2.876-1.309 2.876-2.924s-1.288-2.924-2.876-2.924c-1.588 0-2.876 1.309-2.876 2.924s1.288 2.924 2.876 2.924zm17.332 0c1.588 0 2.876-1.309 2.876-2.924s-1.288-2.924-2.876-2.924c-1.588 0-2.876 1.309-2.876 2.924s1.288 2.924 2.876 2.924zm17.333 0c1.588 0 2.876-1.309 2.876-2.924s-1.288-2.924-2.876-2.924c-1.588 0-2.876 1.309-2.876 2.924s1.288 2.924 2.876 2.924zm17.333 0c1.588 0 2.876-1.309 2.876-2.924s-1.288-2.924-2.876-2.924c-1.588 0-2.876 1.309-2.876 2.924s1.288 2.924 2.876 2.924zm17.333 0c1.588 0 2.876-1.309 2.876-2.924s-1.288-2.924-2.876-2.924c-1.588 0-2.876 1.309-2.876 2.924s1.288 2.924 2.876 2.924zm-103.997 17.621c1.588 0 2.876-1.309 2.876-2.924s-1.288-2.924-2.876-2.924c-1.588 0-2.876 1.309-2.876 2.924s1.288 2.924 2.876 2.924zm17.333 0c1.588 0 2.876-1.309 2.876-2.924s-1.288-2.924-2.876-2.924c-1.588 0-2.876 1.309-2.876 2.924s1.288 2.924 2.876 2.924zm17.333 0c1.588 0 2.876-1.309 2.876-2.924s-1.288-2.924-2.876-2.924c-1.588 0-2.876 1.309-2.876 2.924s1.288 2.924 2.876 2.924zm17.332 0c1.588 0 2.876-1.309 2.876-2.924s-1.288-2.924-2.876-2.924c-1.588 0-2.876 1.309-2.876 2.924s1.288 2.924 2.876 2.924zm17.333 0c1.588 0 2.876-1.309 2.876-2.924s-1.288-2.924-2.876-2.924c-1.588 0-2.876 1.309-2.876 2.924s1.288 2.924 2.876 2.924zm17.333 0c1.588 0 2.876-1.309 2.876-2.924s-1.288-2.924-2.876-2.924c-1.588 0-2.876 1.309-2.876 2.924s1.288 2.924 2.876 2.924zm17.333 0c1.588 0 2.876-1.309 2.876-2.924s-1.288-2.924-2.876-2.924c-1.588 0-2.876 1.309-2.876 2.924s1.288 2.924 2.876 2.924zM197.898 256.481c1.588 0 2.876-1.309 2.876-2.924s-1.288-2.924-2.876-2.924c-1.588 0-2.876 1.309-2.876 2.924s1.288 2.924 2.876 2.924zm17.332 0c1.588 0 2.876-1.309 2.876-2.924s-1.288-2.924-2.876-2.924c-1.588 0-2.876 1.309-2.876 2.924s1.288 2.924 2.876 2.924zm17.333 0c1.588 0 2.876-1.309 2.876-2.924s-1.288-2.924-2.876-2.924c-1.588 0-2.876 1.309-2.876 2.924s1.288 2.924 2.876 2.924zm17.333 0c1.588 0 2.876-1.309 2.876-2.924s-1.288-2.924-2.876-2.924c-1.588 0-2.876 1.309-2.876 2.924s1.288 2.924 2.876 2.924zm-51.998 17.62c1.588 0 2.876-1.309 2.876-2.924s-1.288-2.924-2.876-2.924c-1.588 0-2.876 1.309-2.876 2.924s1.288 2.924 2.876 2.924zm17.332 0c1.588 0 2.876-1.309 2.876-2.924s-1.288-2.924-2.876-2.924c-1.588 0-2.876 1.309-2.876 2.924s1.288 2.924 2.876 2.924zm17.333 0c1.588 0 2.876-1.309 2.876-2.924s-1.288-2.924-2.876-2.924c-1.588 0-2.876 1.309-2.876 2.924s1.288 2.924 2.876 2.924zm17.333 0c1.588 0 2.876-1.309 2.876-2.924s-1.288-2.924-2.876-2.924c-1.588 0-2.876 1.309-2.876 2.924s1.288 2.924 2.876 2.924zm-51.998 17.621c1.588 0 2.876-1.309 2.876-2.924s-1.288-2.924-2.876-2.924c-1.588 0-2.876 1.309-2.876 2.924s1.288 2.924 2.876 2.924zm17.332 0c1.588 0 2.876-1.309 2.876-2.924s-1.288-2.924-2.876-2.924c-1.588 0-2.876 1.309-2.876 2.924s1.288 2.924 2.876 2.924zm17.333 0c1.588 0 2.876-1.309 2.876-2.924s-1.288-2.924-2.876-2.924c-1.588 0-2.876 1.309-2.876 2.924s1.288 2.924 2.876 2.924zm17.333 0c1.588 0 2.876-1.309 2.876-2.924s-1.288-2.924-2.876-2.924c-1.588 0-2.876 1.309-2.876 2.924s1.288 2.924 2.876 2.924z" fill="#F0F1F7"/><path d="M334 344v-46.862l101-102.123V172m46.5 81H425v92.098" stroke="#242729" stroke-width="2" stroke-miterlimit="10"/><path d="M40.029 448.705c1.588 0 2.876-1.309 2.876-2.924 0-1.614-1.288-2.924-2.876-2.924-1.588 0-2.876 1.31-2.876 2.924 0 1.615 1.288 2.924 2.876 2.924zm17.333 0c1.588 0 2.876-1.309 2.876-2.924 0-1.614-1.288-2.924-2.876-2.924-1.588 0-2.876 1.31-2.876 2.924 0 1.615 1.288 2.924 2.876 2.924zm17.332 0c1.588 0 2.876-1.309 2.876-2.924 0-1.614-1.288-2.924-2.876-2.924-1.588 0-2.876 1.31-2.876 2.924 0 1.615 1.288 2.924 2.876 2.924zm17.333 0c1.588 0 2.876-1.309 2.876-2.924 0-1.614-1.288-2.924-2.876-2.924-1.588 0-2.876 1.31-2.876 2.924 0 1.615 1.288 2.924 2.876 2.924zm17.333 0c1.588 0 2.876-1.309 2.876-2.924 0-1.614-1.288-2.924-2.876-2.924-1.588 0-2.876 1.31-2.876 2.924 0 1.615 1.288 2.924 2.876 2.924zm17.333 0c1.588 0 2.876-1.309 2.876-2.924 0-1.614-1.288-2.924-2.876-2.924-1.588 0-2.876 1.31-2.876 2.924 0 1.615 1.288 2.924 2.876 2.924zm17.333 0c1.588 0 2.876-1.309 2.876-2.924 0-1.614-1.288-2.924-2.876-2.924-1.588 0-2.876 1.31-2.876 2.924 0 1.615 1.288 2.924 2.876 2.924zm-103.997 17.62c1.588 0 2.876-1.31 2.876-2.924 0-1.615-1.288-2.924-2.876-2.924-1.588 0-2.876 1.309-2.876 2.924 0 1.614 1.288 2.924 2.876 2.924zm17.333 0c1.588 0 2.876-1.31 2.876-2.924 0-1.615-1.288-2.924-2.876-2.924-1.588 0-2.876 1.309-2.876 2.924 0 1.614 1.288 2.924 2.876 2.924zm17.332 0c1.588 0 2.876-1.31 2.876-2.924 0-1.615-1.288-2.924-2.876-2.924-1.588 0-2.876 1.309-2.876 2.924 0 1.614 1.288 2.924 2.876 2.924zm17.333 0c1.588 0 2.876-1.31 2.876-2.924 0-1.615-1.288-2.924-2.876-2.924-1.588 0-2.876 1.309-2.876 2.924 0 1.614 1.288 2.924 2.876 2.924zm17.333 0c1.588 0 2.876-1.31 2.876-2.924 0-1.615-1.288-2.924-2.876-2.924-1.588 0-2.876 1.309-2.876 2.924 0 1.614 1.288 2.924 2.876 2.924zm17.333 0c1.588 0 2.876-1.31 2.876-2.924 0-1.615-1.288-2.924-2.876-2.924-1.588 0-2.876 1.309-2.876 2.924 0 1.614 1.288 2.924 2.876 2.924zm17.333 0c1.588 0 2.876-1.31 2.876-2.924 0-1.615-1.288-2.924-2.876-2.924-1.588 0-2.876 1.309-2.876 2.924 0 1.614 1.288 2.924 2.876 2.924zM40.029 483.946c1.588 0 2.876-1.309 2.876-2.924s-1.288-2.924-2.876-2.924c-1.588 0-2.876 1.309-2.876 2.924s1.288 2.924 2.876 2.924zm17.333 0c1.588 0 2.876-1.309 2.876-2.924s-1.288-2.924-2.876-2.924c-1.588 0-2.876 1.309-2.876 2.924s1.288 2.924 2.876 2.924zm17.332 0c1.588 0 2.876-1.309 2.876-2.924s-1.288-2.924-2.876-2.924c-1.588 0-2.876 1.309-2.876 2.924s1.288 2.924 2.876 2.924zm17.333 0c1.588 0 2.876-1.309 2.876-2.924s-1.288-2.924-2.876-2.924c-1.588 0-2.876 1.309-2.876 2.924s1.288 2.924 2.876 2.924zm17.333 0c1.588 0 2.876-1.309 2.876-2.924s-1.288-2.924-2.876-2.924c-1.588 0-2.876 1.309-2.876 2.924s1.288 2.924 2.876 2.924zm17.333 0c1.588 0 2.876-1.309 2.876-2.924s-1.288-2.924-2.876-2.924c-1.588 0-2.876 1.309-2.876 2.924s1.288 2.924 2.876 2.924zm17.333 0c1.588 0 2.876-1.309 2.876-2.924s-1.288-2.924-2.876-2.924c-1.588 0-2.876 1.309-2.876 2.924s1.288 2.924 2.876 2.924zm-103.997 17.62c1.588 0 2.876-1.309 2.876-2.924s-1.288-2.924-2.876-2.924c-1.588 0-2.876 1.309-2.876 2.924s1.288 2.924 2.876 2.924zm17.333 0c1.588 0 2.876-1.309 2.876-2.924s-1.288-2.924-2.876-2.924c-1.588 0-2.876 1.309-2.876 2.924s1.288 2.924 2.876 2.924zm17.332 0c1.588 0 2.876-1.309 2.876-2.924s-1.288-2.924-2.876-2.924c-1.588 0-2.876 1.309-2.876 2.924s1.288 2.924 2.876 2.924zm17.333 0c1.588 0 2.876-1.309 2.876-2.924s-1.288-2.924-2.876-2.924c-1.588 0-2.876 1.309-2.876 2.924s1.288 2.924 2.876 2.924zm17.333 0c1.588 0 2.876-1.309 2.876-2.924s-1.288-2.924-2.876-2.924c-1.588 0-2.876 1.309-2.876 2.924s1.288 2.924 2.876 2.924zm17.333 0c1.588 0 2.876-1.309 2.876-2.924s-1.288-2.924-2.876-2.924c-1.588 0-2.876 1.309-2.876 2.924s1.288 2.924 2.876 2.924zm17.333 0c1.588 0 2.876-1.309 2.876-2.924s-1.288-2.924-2.876-2.924c-1.588 0-2.876 1.309-2.876 2.924s1.288 2.924 2.876 2.924zm-103.997 17.62c1.588 0 2.876-1.309 2.876-2.924s-1.288-2.924-2.876-2.924c-1.588 0-2.876 1.309-2.876 2.924s1.288 2.924 2.876 2.924zm17.333 0c1.588 0 2.876-1.309 2.876-2.924s-1.288-2.924-2.876-2.924c-1.588 0-2.876 1.309-2.876 2.924s1.288 2.924 2.876 2.924zm17.332 0c1.588 0 2.876-1.309 2.876-2.924s-1.288-2.924-2.876-2.924c-1.588 0-2.876 1.309-2.876 2.924s1.288 2.924 2.876 2.924zm17.333 0c1.588 0 2.876-1.309 2.876-2.924s-1.288-2.924-2.876-2.924c-1.588 0-2.876 1.309-2.876 2.924s1.288 2.924 2.876 2.924zm17.333 0c1.588 0 2.876-1.309 2.876-2.924s-1.288-2.924-2.876-2.924c-1.588 0-2.876 1.309-2.876 2.924s1.288 2.924 2.876 2.924zm17.333 0c1.588 0 2.876-1.309 2.876-2.924s-1.288-2.924-2.876-2.924c-1.588 0-2.876 1.309-2.876 2.924s1.288 2.924 2.876 2.924zm17.333 0c1.588 0 2.876-1.309 2.876-2.924s-1.288-2.924-2.876-2.924c-1.588 0-2.876 1.309-2.876 2.924s1.288 2.924 2.876 2.924z" fill="#F0F1F7"/><path d="M516.692 339H95.308C80.778 339 69 350.828 69 365.419v171.162C69 551.172 80.778 563 95.308 563h421.384c14.53 0 26.308-11.828 26.308-26.419V365.419C543 350.828 531.222 339 516.692 339z" fill="#535A60"/><path d="M516.692 339H95.308C80.778 339 69 350.78 69 365.312v160.376C69 540.22 80.778 552 95.308 552h421.384c14.53 0 26.308-11.78 26.308-26.312V365.312C543 350.78 531.222 339 516.692 339z" fill="#9FA6AD"/><path d="M516.437 345H96.562C84.654 345 75 354.622 75 366.491v158.018C75 536.378 84.654 546 96.563 546h419.874c11.909 0 21.563-9.622 21.563-21.491V366.491c0-11.869-9.654-21.491-21.563-21.491z" fill="#BFBFBF"/><path d="M120.313 362.591H98.839a4 4 0 0 0-4 4v21.474a4 4 0 0 0 4 4h21.474a4 4 0 0 0 4-4v-21.474a4 4 0 0 0-4-4z" fill="#F48024"/><path d="M138.373 397.155H98.839a4 4 0 0 0-4 4v21.474a4 4 0 0 0 4 4h39.534a4 4 0 0 0 4-4v-21.474a4 4 0 0 0-4-4zm35.586 0h-21.474a4 4 0 0 0-4 4v21.474a4 4 0 0 0 4 4h21.474a4 4 0 0 0 4-4v-21.474a4 4 0 0 0-4-4zm12.618 34.565h-21.474a4 4 0 0 0-4 4v21.474a4 4 0 0 0 4 4h21.474a4 4 0 0 0 4-4V435.72a4 4 0 0 0-4-4zm35.764 0h-21.474a4 4 0 0 0-4 4v21.474a4 4 0 0 0 4 4h21.474a4 4 0 0 0 4-4V435.72a4 4 0 0 0-4-4zm35.764 0h-21.474a4 4 0 0 0-4 4v21.474a4 4 0 0 0 4 4h21.474a4 4 0 0 0 4-4V435.72a4 4 0 0 0-4-4zm35.763 0h-21.474a4 4 0 0 0-4 4v21.474a4 4 0 0 0 4 4h21.474a4 4 0 0 0 4-4V435.72a4 4 0 0 0-4-4zm35.764 0h-21.474a4 4 0 0 0-4 4v21.474a4 4 0 0 0 4 4h21.474a4 4 0 0 0 4-4V435.72a4 4 0 0 0-4-4zm35.764 0h-21.474a4 4 0 0 0-4 4v21.474a4 4 0 0 0 4 4h21.474a4 4 0 0 0 4-4V435.72a4 4 0 0 0-4-4zm35.764 0h-21.474a4 4 0 0 0-4 4v21.474a4 4 0 0 0 4 4h21.474a4 4 0 0 0 4-4V435.72a4 4 0 0 0-4-4zm-245.083-69.129h-21.474a4 4 0 0 0-4 4v21.474a4 4 0 0 0 4 4h21.474a4 4 0 0 0 4-4v-21.474a4 4 0 0 0-4-4zm35.764 0h-21.474a4 4 0 0 0-4 4v21.474a4 4 0 0 0 4 4h21.474a4 4 0 0 0 4-4v-21.474a4 4 0 0 0-4-4zm35.764 0h-21.474a4 4 0 0 0-4 4v21.474a4 4 0 0 0 4 4h21.474a4 4 0 0 0 4-4v-21.474a4 4 0 0 0-4-4zm35.763 0h-21.474a4 4 0 0 0-4 4v21.474a4 4 0 0 0 4 4h21.474a4 4 0 0 0 4-4v-21.474a4 4 0 0 0-4-4zm35.764 0h-21.474a4 4 0 0 0-4 4v21.474a4 4 0 0 0 4 4h21.474a4 4 0 0 0 4-4v-21.474a4 4 0 0 0-4-4zm35.764 0h-21.474a4 4 0 0 0-4 4v21.474a4 4 0 0 0 4 4h21.474a4 4 0 0 0 4-4v-21.474a4 4 0 0 0-4-4zm35.764 0h-21.474a4 4 0 0 0-4 4v21.474a4 4 0 0 0 4 4h21.474a4 4 0 0 0 4-4v-21.474a4 4 0 0 0-4-4zm35.764 0H384.95a4 4 0 0 0-4 4v21.474a4 4 0 0 0 4 4h21.474a4 4 0 0 0 4-4v-21.474a4 4 0 0 0-4-4z" fill="#FFFFFB"/><path d="M477.952 362.591h-57.238a4 4 0 0 0-4 4v21.474a4 4 0 0 0 4 4h57.238a4 4 0 0 0 4-4v-21.474a4 4 0 0 0-4-4zm0 69.129h-62.591a4 4 0 0 0-4 4v21.474a4 4 0 0 0 4 4h62.591a4 4 0 0 0 4-4V435.72a4 4 0 0 0-4-4z" fill="#D0EAE5"/><path d="M150.902 431.72H98.839a4 4 0 0 0-4 4v21.474a4 4 0 0 0 4 4h52.063a4 4 0 0 0 4-4V435.72a4 4 0 0 0-4-4z" fill="#FFFFFB"/><path d="M513.716 362.591h-21.474a4 4 0 0 0-4 4v21.474a4 4 0 0 0 4 4h21.474a4 4 0 0 0 4-4v-21.474a4 4 0 0 0-4-4zm0 34.564h-21.474a4 4 0 0 0-4 4v21.474a4 4 0 0 0 4 4h21.474a4 4 0 0 0 4-4v-21.474a4 4 0 0 0-4-4zm0 34.565h-21.474a4 4 0 0 0-4 4v21.474a4 4 0 0 0 4 4h21.474a4 4 0 0 0 4-4V435.72a4 4 0 0 0-4-4z" fill="#F48024"/><path d="M204.459 466.284h-21.474a4 4 0 0 0-4 4v21.474a4 4 0 0 0 4 4h21.474a4 4 0 0 0 4-4v-21.474a4 4 0 0 0-4-4zm35.764 0h-21.474a4 4 0 0 0-4 4v21.474a4 4 0 0 0 4 4h21.474a4 4 0 0 0 4-4v-21.474a4 4 0 0 0-4-4zm35.764 0h-21.474a4 4 0 0 0-4 4v21.474a4 4 0 0 0 4 4h21.474a4 4 0 0 0 4-4v-21.474a4 4 0 0 0-4-4zm35.763 0h-21.474a4 4 0 0 0-4 4v21.474a4 4 0 0 0 4 4h21.474a4 4 0 0 0 4-4v-21.474a4 4 0 0 0-4-4zm35.764 0H326.04a4 4 0 0 0-4 4v21.474a4 4 0 0 0 4 4h21.474a4 4 0 0 0 4-4v-21.474a4 4 0 0 0-4-4zm35.764 0h-21.474a4 4 0 0 0-4 4v21.474a4 4 0 0 0 4 4h21.474a4 4 0 0 0 4-4v-21.474a4 4 0 0 0-4-4zm58.91 0h-44.62a4 4 0 0 0-4 4v21.474a4 4 0 0 0 4 4h44.62a4 4 0 0 0 4-4v-21.474a4 4 0 0 0-4-4z" fill="#FFFFFB"/><path d="M334.897 500.849H206.131a4 4 0 0 0-4 4v21.474a4 4 0 0 0 4 4h128.766a4 4 0 0 0 4-4v-21.474a4 4 0 0 0-4-4z" fill="#D0EAE5"/><path d="M370.66 500.849h-21.474a4 4 0 0 0-4 4v21.474a4 4 0 0 0 4 4h21.474a4 4 0 0 0 4-4v-21.474a4 4 0 0 0-4-4zm35.764 0H384.95a4 4 0 0 0-4 4v21.474a4 4 0 0 0 4 4h21.474a4 4 0 0 0 4-4v-21.474a4 4 0 0 0-4-4zm35.764 0h-21.474a4 4 0 0 0-4 4v21.474a4 4 0 0 0 4 4h21.474a4 4 0 0 0 4-4v-21.474a4 4 0 0 0-4-4zm-321.875 0H98.839a4 4 0 0 0-4 4v21.474a4 4 0 0 0 4 4h21.474a4 4 0 0 0 4-4v-21.474a4 4 0 0 0-4-4z" fill="#FFFFFB"/><path d="M156.077 500.849h-21.474a4 4 0 0 0-4 4v21.474a4 4 0 0 0 4 4h21.474a4 4 0 0 0 4-4v-21.474a4 4 0 0 0-4-4z" fill="#D0EAE5"/><path d="M191.841 500.849h-21.474a4 4 0 0 0-4 4v21.474a4 4 0 0 0 4 4h21.474a4 4 0 0 0 4-4v-21.474a4 4 0 0 0-4-4zm-23.146-34.565H98.839a4 4 0 0 0-4 4v21.474a4 4 0 0 0 4 4h69.856a4 4 0 0 0 4-4v-21.474a4 4 0 0 0-4-4z" fill="#FFFFFB"/><path d="M513.716 466.284h-21.474a4 4 0 0 0-4 4v21.474a4 4 0 0 0 4 4h21.474a4 4 0 0 0 4-4v-21.474a4 4 0 0 0-4-4z" fill="#F48024"/><path d="M477.952 466.284h-21.474a4 4 0 0 0-4 4v21.474a4 4 0 0 0 4 4h21.474a4 4 0 0 0 4-4v-21.474a4 4 0 0 0-4-4zm0 34.565h-21.474a4 4 0 0 0-4 4v21.474a4 4 0 0 0 4 4h21.474a4 4 0 0 0 4-4v-21.474a4 4 0 0 0-4-4zm35.764 0h-21.474a4 4 0 0 0-4 4v21.474a4 4 0 0 0 4 4h21.474a4 4 0 0 0 4-4v-21.474a4 4 0 0 0-4-4z" fill="#FFFFFB"/><path d="M131.371 552.789h4.666v9.717h-4.666v-9.717zm69.029 0h4.666v9.717H200.4v-9.717zm69.03 0h4.666v9.717h-4.666v-9.717zm69.029 0h4.666v9.717h-4.666v-9.717zm69.029 0h4.666v9.717h-4.666v-9.717zm69.03 0h4.666v9.717h-4.666v-9.717z" fill="#242729"/><path d="M209.634 397.155H188.16a4 4 0 0 0-4 4v21.474a4 4 0 0 0 4 4h21.474a4 4 0 0 0 4-4v-21.474a4 4 0 0 0-4-4zm35.675 0h-21.474a4 4 0 0 0-4 4v21.474a4 4 0 0 0 4 4h21.474a4 4 0 0 0 4-4v-21.474a4 4 0 0 0-4-4zm35.675 0H259.51a4 4 0 0 0-4 4v21.474a4 4 0 0 0 4 4h21.474a4 4 0 0 0 4-4v-21.474a4 4 0 0 0-4-4zm35.675 0h-21.474a4 4 0 0 0-4 4v21.474a4 4 0 0 0 4 4h21.474a4 4 0 0 0 4-4v-21.474a4 4 0 0 0-4-4zm35.675 0H330.86a4 4 0 0 0-4 4v21.474a4 4 0 0 0 4 4h21.474a4 4 0 0 0 4-4v-21.474a4 4 0 0 0-4-4zm35.674 0h-21.474a4 4 0 0 0-4 4v21.474a4 4 0 0 0 4 4h21.474a4 4 0 0 0 4-4v-21.474a4 4 0 0 0-4-4zm35.675 0h-21.474a4 4 0 0 0-4 4v21.474a4 4 0 0 0 4 4h21.474a4 4 0 0 0 4-4v-21.474a4 4 0 0 0-4-4zm54.268 0h-40.067a4 4 0 0 0-4 4v21.474a4 4 0 0 0 4 4h40.067a4 4 0 0 0 4-4v-21.474a4 4 0 0 0-4-4z" fill="#FFFFFB"/><path d="M523.442 361.456a3.992 3.992 0 1 0 0-7.985 3.992 3.992 0 0 0 0 7.985z" fill="#535A60"/><path d="M521.6 355.598l3.7 3.601" stroke="#242729" stroke-width="2" stroke-miterlimit="10"/><path d="M88.992 361.456a3.992 3.992 0 1 1 0-7.985 3.992 3.992 0 0 1 0 7.985z" fill="#535A60"/><path d="M90.834 355.598l-3.7 3.601" stroke="#242729" stroke-width="2" stroke-miterlimit="10"/><path d="M523.442 538.984a3.992 3.992 0 1 1 0-7.983 3.992 3.992 0 0 1 0 7.983z" fill="#535A60"/><path d="M525.284 533.126l-3.7 3.602" stroke="#242729" stroke-width="2" stroke-miterlimit="10"/><path d="M88.992 538.984a3.992 3.992 0 1 0 0-7.984 3.992 3.992 0 0 0 0 7.984z" fill="#535A60"/><path d="M87.15 533.126l3.7 3.602" stroke="#242729" stroke-width="2" stroke-miterlimit="10"/><path d="M543.279 461.541v-30.847a5.65 5.65 0 0 0-11.3 0v30.847a5.65 5.65 0 0 0 11.3 0z" fill="#535A60"/><path d="M540.709 461.573v-30.91a3.079 3.079 0 0 0-3.079-3.079h-.001a3.079 3.079 0 0 0-3.079 3.079v30.91a3.08 3.08 0 0 0 3.079 3.079h.001a3.08 3.08 0 0 0 3.079-3.079z" fill="#BFBFBF"/><path d="M80.574 461.542v-30.847a5.65 5.65 0 0 0-11.3 0v30.847a5.65 5.65 0 0 0 11.3 0z" fill="#535A60"/><path d="M78.004 461.573v-30.91a3.079 3.079 0 0 0-3.079-3.079h-.001a3.079 3.079 0 0 0-3.079 3.079v30.91a3.08 3.08 0 0 0 3.079 3.079h.001a3.08 3.08 0 0 0 3.079-3.079z" fill="#BFBFBF"/><path d="M460.402 339.448h-30.847a5.65 5.65 0 0 0 0 11.3h30.847a5.65 5.65 0 1 0 0-11.3z" fill="#535A60"/><path d="M460.433 342h-30.91a3.078 3.078 0 0 0-3.079 3.079v.001c0 1.7 1.378 3.079 3.079 3.079h30.91a3.08 3.08 0 0 0 3.079-3.079v-.001a3.079 3.079 0 0 0-3.079-3.079z" fill="#BFBFBF"/><path d="M184.082 339.448h-30.847a5.65 5.65 0 0 0 0 11.3h30.847a5.65 5.65 0 1 0 0-11.3z" fill="#535A60"/><path d="M184.113 342.019h-30.91a3.079 3.079 0 0 0-3.079 3.079v.001a3.08 3.08 0 0 0 3.079 3.079h30.91a3.079 3.079 0 0 0 3.079-3.079v-.001a3.078 3.078 0 0 0-3.079-3.079z" fill="#BFBFBF"/><path d="M460.402 541.119h-30.847a5.65 5.65 0 0 0 0 11.3h30.847a5.65 5.65 0 1 0 0-11.3z" fill="#535A60"/><path d="M460.433 543.69h-30.91a3.079 3.079 0 0 0-3.079 3.079v.001a3.078 3.078 0 0 0 3.079 3.079h30.91c1.7 0 3.079-1.378 3.079-3.079v-.001a3.08 3.08 0 0 0-3.079-3.079z" fill="#BFBFBF"/><path d="M184.082 541.119h-30.847a5.65 5.65 0 0 0 0 11.3h30.847a5.65 5.65 0 1 0 0-11.3z" fill="#535A60"/><path d="M184.113 543.69h-30.91a3.08 3.08 0 0 0-3.079 3.079v.001a3.079 3.079 0 0 0 3.079 3.079h30.91a3.078 3.078 0 0 0 3.079-3.079v-.001c0-1.7-1.378-3.079-3.079-3.079z" fill="#BFBFBF"/><path d="M573.297 239.57a50.19 50.19 0 0 0-6.17-14.9l5.34-11.68-10.07-10.07-11.68 5.35a50.084 50.084 0 0 0-14.9-6.17l-4.48-12.04h-14.24l-4.49 12.04a50.174 50.174 0 0 0-14.9 6.17l-11.68-5.35-10.07 10.07 5.35 11.68a50.215 50.215 0 0 0-6.17 14.9l-12.04 4.49v14.24l12.04 4.48a50.11 50.11 0 0 0 6.17 14.9l-5.35 11.68 10.07 10.07 8.16-3.73 3.52-1.61a50.2 50.2 0 0 0 14.9 6.17l4.49 12.04h14.24l4.48-12.04a50.11 50.11 0 0 0 14.9-6.17l11.68 5.34 10.07-10.07-5.34-11.68a50.084 50.084 0 0 0 6.17-14.9l12.04-4.48v-14.24l-12.04-4.49zm-49.08 44.61a33.003 33.003 0 0 1-32.376-39.443 33.001 33.001 0 0 1 25.933-25.933 32.998 32.998 0 0 1 33.883 14.037 33.006 33.006 0 0 1-27.44 51.339z" fill="#F48024"/><path d="M494.187 295.7l-8.16 3.73-1.81-1.81 3.74-20.62 6.23 18.7z" fill="#242729"/><path d="M201.926 221H68.074c-2.802 0-5.074 2.289-5.074 5.112v47.776c0 2.823 2.272 5.112 5.074 5.112h133.852c2.802 0 5.074-2.289 5.074-5.112v-47.776c0-2.823-2.272-5.112-5.074-5.112z" fill="#FFB500"/><path d="M201.926 73H68.074C65.272 73 63 75.289 63 78.112v47.776c0 2.823 2.272 5.112 5.074 5.112h133.852c2.802 0 5.074-2.289 5.074-5.112V78.112c0-2.823-2.272-5.112-5.074-5.112z" fill="#5EBA7D"/><path d="M129.748 143.877L63.28 172.523a3.763 3.763 0 0 0-1.659 1.394 3.8 3.8 0 0 0 0 4.166 3.763 3.763 0 0 0 1.66 1.394l66.467 28.645a10.745 10.745 0 0 0 8.504 0l66.468-28.645a3.77 3.77 0 0 0 1.659-1.394 3.805 3.805 0 0 0 0-4.166 3.77 3.77 0 0 0-1.659-1.394l-66.468-28.645a10.745 10.745 0 0 0-8.504 0v-.001z" fill="#FDD853"/><path d="M39.014 183.888a8.014 8.014 0 1 0 0-16.028 8.014 8.014 0 0 0 0 16.028z" fill="#F48024"/><path d="M222.265 236.796h-34.278a3.473 3.473 0 0 1-3.044-1.795 3.481 3.481 0 0 1 .097-3.534l17.138-27.314a3.48 3.48 0 0 1 5.895 0l17.139 27.314a3.481 3.481 0 0 1-2.947 5.329z" fill="#5F67FA"/><path d="M219.131 232.503h-28.01a.91.91 0 0 1-.914-.939.922.922 0 0 1 .14-.461l14.005-22.32a.91.91 0 0 1 1.548 0l14.005 22.32a.922.922 0 0 1 .026.929.92.92 0 0 1-.8.471z" fill="#fff"/><path d="M206.524 224.907h-2.795l-.341-10.473h3.477l-.341 10.473zm-1.398 4.709a1.738 1.738 0 1 0 0-3.476 1.738 1.738 0 0 0 0 3.476zm-17.138 7.18l17.138 4.065v-4.065h-17.138zm300.584-63.89l-64.294-6.383 20.648-42.667h73.646" fill="#242729"/><path d="M426 79h104v80H426V79z" fill="#FFB500"/><path d="M434 87h88v64h-88V87z" fill="#fff"/><path d="M426 67h86v12h-86V67z" fill="#242729"/><path d="M433.234 74.909a2.092 2.092 0 1 0 0-4.185 2.092 2.092 0 0 0 0 4.185z" fill="#F48024"/><path d="M441.72 74.909a2.092 2.092 0 1 0 0-4.185 2.092 2.092 0 0 0 0 4.185z" fill="#FDD853"/><path d="M450.206 74.909a2.092 2.092 0 1 0 0-4.185 2.092 2.092 0 0 0 0 4.185z" fill="#5EBA7D"/><path d="M415 110h75v63h-75v-63z" fill="#FDD853"/><path d="M415 111v-9h25.068l5.932 9h-31z" fill="#FDD853"/><path d="M387 243.594V199" stroke="#242729" stroke-width="2" stroke-miterlimit="10"/><path d="M386.626 205.87a8.014 8.014 0 1 0 0-16.028 8.014 8.014 0 0 0 0 16.028z" fill="#5F67FA"/><path d="M425 298h-38" stroke="#242729" stroke-width="2" stroke-miterlimit="10"/><path d="M386.626 314.766c9.183 0 16.628-7.445 16.628-16.628 0-9.184-7.445-16.628-16.628-16.628s-16.628 7.444-16.628 16.628c0 9.183 7.445 16.628 16.628 16.628z" fill="#FFB500"/><path d="M386.626 310.224c6.675 0 12.086-5.411 12.086-12.086 0-6.675-5.411-12.086-12.086-12.086-6.675 0-12.086 5.411-12.086 12.086 0 6.675 5.411 12.086 12.086 12.086z" fill="#fff"/><path d="M386.626 305.749a7.61 7.61 0 1 0 0-15.222 7.61 7.61 0 0 0 0 15.222z" fill="#FFB500"/><path d="M386.626 302.205a4.067 4.067 0 1 0 0-8.134 4.067 4.067 0 0 0 0 8.134zm80.559-174.324h-30.872a2.399 2.399 0 0 0-2.399 2.399v4.119a2.399 2.399 0 0 0 2.399 2.399h30.872a2.399 2.399 0 0 0 2.399-2.399v-4.119a2.399 2.399 0 0 0-2.399-2.399z" fill="#fff"/><path d="M438.703 145.056h26.092m-26.092 8.917h20.092" stroke="#242729" stroke-width="2" stroke-miterlimit="10"/><path d="M85.981 231H75.02A2.019 2.019 0 0 0 73 233.019v10.962c0 1.115.904 2.019 2.019 2.019H85.98A2.019 2.019 0 0 0 88 243.981v-10.962A2.019 2.019 0 0 0 85.981 231zm0 23H75.02A2.019 2.019 0 0 0 73 256.019v10.962c0 1.115.904 2.019 2.019 2.019H85.98A2.019 2.019 0 0 0 88 266.981v-10.962A2.019 2.019 0 0 0 85.981 254z" fill="#fff"/><path d="M81 262v38l10.751-13.893H110L81 262z" fill="#242729"/><path d="M86.833 285.87l7.346-3.655 8.87 17.828-7.347 3.655-8.869-17.828z" fill="#242729"/><path d="M173.288 234H99.712c-2.05 0-3.712 1.791-3.712 4s1.662 4 3.713 4h73.575c2.05 0 3.712-1.791 3.712-4s-1.662-4-3.712-4zm-20.027 24H99.739c-2.065 0-3.739 1.567-3.739 3.5s1.674 3.5 3.74 3.5h53.521c2.065 0 3.739-1.567 3.739-3.5s-1.674-3.5-3.739-3.5z" fill="#F48024"/><path d="M114.714 166.141h19.466v19.466h-19.466v-19.466z" fill="#5F67FA"/><path d="M134.18 166.141h19.466v19.466H134.18v-19.466z" fill="#242729"/><path d="M512 67h18v12h-18V67z" fill="#3D8F58"/><path d="M504 240h40m-40 11h40m-40 12h40" stroke="#242729" stroke-width="2" stroke-miterlimit="10"/><path d="M536.729 243.21a3.633 3.633 0 1 0 0-7.266 3.633 3.633 0 0 0 0 7.266z" fill="#5F67FA"/><path d="M513.775 254.81a3.634 3.634 0 1 0-.001-7.267 3.634 3.634 0 0 0 .001 7.267z" fill="#5EBA7D"/><path d="M530.48 266.41a3.634 3.634 0 1 0-.001-7.267 3.634 3.634 0 0 0 .001 7.267z" fill="#FFB500"/><path d="M483.038 274h-33.076a4.963 4.963 0 0 0-4.962 4.962v33.076a4.963 4.963 0 0 0 4.962 4.962h33.076a4.963 4.963 0 0 0 4.962-4.962v-33.076a4.963 4.963 0 0 0-4.962-4.962z" fill="#FDD853"/><path d="M458.997 282.347v2.748l-4.703 4.703 4.703 4.702v2.748l-7.45-7.45 7.45-7.451zm15.504 14.901V294.5l4.703-4.703-4.703-4.702v-2.748l7.451 7.45-7.451 7.451zm-12.596 0h2.34l7.326-14.901h-2.34l-7.326 14.901z" fill="#242729"/><path d="M477.129 304h-22.258c-1.586 0-2.871 1.343-2.871 3s1.285 3 2.871 3h22.258c1.586 0 2.871-1.343 2.871-3s-1.285-3-2.871-3z" fill="#3D8F58"/><path d="M80.099 88.448h60.329M80.099 102.07h36.902m-36.902 13.429h50.037" stroke="#242729" stroke-width="2" stroke-miterlimit="10"/><path d="M149.409 101.341h15.097v15.964h-15.097v-15.964z" fill="#fff"/><path d="M173.164 86.642h15.097v30.663h-15.097V86.642z" fill="#3D8F58"/></svg>