<svg fill="none" height="351" viewBox="0 0 351 351" width="351" xmlns="http://www.w3.org/2000/svg" xmlns:xlink="http://www.w3.org/1999/xlink"><filter id="a" color-interpolation-filters="sRGB" filterUnits="userSpaceOnUse" height="188.857" width="188.857" x="81.4872" y="84.1226"><feFlood flood-opacity="0" result="BackgroundImageFix"/><feColorMatrix in="SourceAlpha" type="matrix" values="0 0 0 0 0 0 0 0 0 0 0 0 0 0 0 0 0 0 127 0"/><feOffset dx="4.36856" dy="4.36856"/><feColorMatrix type="matrix" values="0 0 0 0 1 0 0 0 0 0.72549 0 0 0 0 0.207843 0 0 0 1 0"/><feBlend in2="BackgroundImageFix" mode="normal" result="effect1_dropShadow"/><feBlend in="SourceGraphic" in2="effect1_dropShadow" mode="normal" result="shape"/></filter><linearGradient id="b" gradientUnits="userSpaceOnUse" x1="171.038" x2="171.038" y1="74.4004" y2="279.675"><stop offset="0" stop-color="#eff0f1"/><stop offset="1" stop-color="#fafafb" stop-opacity="0"/></linearGradient><linearGradient id="c" gradientUnits="userSpaceOnUse" x1="81.4872" x2="265.975" y1="176.367" y2="176.367"><stop offset="0" stop-color="#ffb935"/><stop offset="1" stop-color="#ffd943"/></linearGradient><linearGradient id="d" gradientUnits="userSpaceOnUse" x1="120.019" x2="242.622" y1="209.061" y2="168.193"><stop offset="0" stop-color="#ffcb68"/><stop offset="1" stop-color="#ffdf62"/></linearGradient><linearGradient id="e" gradientUnits="userSpaceOnUse" x1="45.3636" x2="290.996" y1="182.749" y2="96.4431"><stop offset="0" stop-color="#ededf2"/><stop offset=".836874" stop-color="#2e3070"/></linearGradient><linearGradient id="f" gradientUnits="userSpaceOnUse" x1="303.976" x2="65.4616" y1="165.621" y2="242.388"><stop offset="0" stop-color="#ededf2"/><stop offset="1" stop-color="#2b2d6e"/></linearGradient><circle cx="171.038" cy="177.038" fill="url(#b)" r="102.637"/><g filter="url(#a)"><circle cx="173.731" cy="176.367" fill="url(#c)" r="92.2441"/></g><circle cx="173.731" cy="176.367" r="65.7078" stroke="url(#d)" stroke-dasharray="3.28 3.28" stroke-width="7.64498"/><path d="m182.925 192.403c0-2.483-.69-4.452-2.068-5.906-1.349-1.484-3.657-2.846-6.923-4.088-3.267-1.242-6.084-2.469-8.452-3.68-2.368-1.242-4.406-2.65-6.114-4.225-1.678-1.605-2.997-3.483-3.956-5.633-.929-2.15-1.393-4.709-1.393-7.678 0-5.118 1.618-9.312 4.855-12.583 3.236-3.271 7.537-5.179 12.902-5.724v-9.722h7.193v9.858c5.304.757 9.455 2.998 12.452 6.723 2.997 3.695 4.496 8.496 4.496 14.401h-12.992c0-3.634-.75-6.345-2.248-8.131-1.469-1.818-3.447-2.726-5.934-2.726-2.458 0-4.361.712-5.709 2.135-1.349 1.393-2.023 3.331-2.023 5.815 0 2.302.659 4.149 1.978 5.542 1.318 1.393 3.761 2.817 7.327 4.271 3.597 1.453 6.549 2.831 8.856 4.134 2.308 1.272 4.256 2.725 5.845 4.361 1.588 1.605 2.802 3.452 3.641 5.542.839 2.06 1.259 4.467 1.259 7.223 0 5.149-1.589 9.328-4.766 12.539-3.176 3.21-7.552 5.103-13.126 5.678v9.041h-7.148v-8.995c-6.144-.667-10.909-2.862-14.296-6.587-3.357-3.756-5.035-8.738-5.035-14.947h12.992c0 3.604.839 6.376 2.517 8.314 1.709 1.908 4.151 2.862 7.328 2.862 2.638 0 4.72-.697 6.249-2.09 1.528-1.423 2.293-3.331 2.293-5.724z" fill="#ffb935"/><path clip-rule="evenodd" d="m230.407 55.4775c-33.047-15.3534-69.224-15.6189-100.742-4.0107-31.5174 11.6082-58.9867 35.3146-74.4083 68.5082-10.0286 21.585-13.7493 44.177-11.975 66.395.1441 1.804 1.7231 3.15 3.5269 3.006s3.1492-1.723 3.0052-3.527c-1.6866-21.119 1.8448-42.577 11.3857-63.113 14.6572-31.5486 40.7605-54.082 70.7305-65.1201 29.969-11.0381 64.333-10.7759 95.716 3.8043 20.041 9.3113 36.478 23.4153 48.504 40.0928l.004.005c1.923 2.657 3.758 5.196 5.348 7.768l-11.742-5.349c-1.647-.75-3.59-.023-4.34 1.624s-.023 3.59 1.624 4.34l19.914 9.07c.892.407 1.919.392 2.799-.039.881-.431 1.522-1.234 1.747-2.188l5.022-21.2162c.416-1.7609-.673-3.5262-2.434-3.943-1.761-.4167-3.526.6729-3.943 2.4338l-2.875 12.1454c-1.792-2.935-3.814-5.729-5.748-8.3995l-.061-.0843-.003-.0046c-12.656-17.5491-29.957-32.396-51.055-42.1981z" fill="url(#e)" fill-rule="evenodd"/><path clip-rule="evenodd" d="m307.239 169.012c-.121-1.806-1.682-3.171-3.488-3.05-1.805.12-3.171 1.682-3.05 3.488 1.331 19.894-2.546 40.156-11.346 59.097-14.586 31.394-40.469 53.407-70.458 64.34-29.977 10.928-64.387 10.582-95.852-4.037-18.215-8.462-33.3323-20.55-44.9685-35.149-.0309-.039-.0627-.077-.0953-.114-1.714-1.961-3.3628-4.085-4.9453-6.375l12.7692 4.697c1.6983.625 3.5814-.245 4.2061-1.944.6246-1.698-.2457-3.581-1.944-4.206l-20.5375-7.554c-.92-.338-1.9432-.247-2.7887.249s-1.4246 1.344-1.5783 2.312l-3.4185 21.533c-.2837 1.787.9351 3.466 2.7222 3.75s3.4659-.935 3.7496-2.722l1.8672-11.761c1.568 2.224 3.2061 4.317 4.9149 6.277 12.264 15.369 28.1749 28.071 47.2859 36.95 33.116 15.386 69.331 15.743 100.858 4.25 31.515-11.489 58.79-34.662 74.156-67.735 9.243-19.895 13.349-41.254 11.941-62.296z" fill="url(#f)" fill-rule="evenodd"/><circle cx="48.1617" cy="198.447" fill="#ededf2" r="3.50294" transform="matrix(.9069014 .42134291 -.42134291 .9069014 88.098023 -1.817453)"/><circle cx="51.6385" cy="210.362" fill="#d3d4e1" opacity=".75" r="3.50294" transform="matrix(.9069014 .42134291 -.42134291 .9069014 93.442009 -2.173109)"/><circle cx="55.6073" cy="221.219" fill="#adadc6" r="3.50294" transform="matrix(.9069014 .42134291 -.42134291 .9069014 98.386019 -2.834563)"/><circle cx="60.6348" cy="232.567" fill="#2b2d6e" r="3.50294" transform="matrix(.9069014 .42134291 -.42134291 .9069014 103.635471 -3.896381)"/><circle cx="302.776" cy="158.976" fill="#ededf2" r="3.50294" transform="matrix(-.88782342 -.46018429 .46018429 -.88782342 498.429365 439.451374)"/><circle cx="299.818" cy="146.921" fill="#c6c7d8" opacity=".75" r="3.50294" transform="matrix(-.88782342 -.46018429 .46018429 -.88782342 498.392705 415.332438)"/><circle cx="296.323" cy="135.903" fill="#adadc6" r="3.50294" transform="matrix(-.88782342 -.46018429 .46018429 -.88782342 496.865073 392.924055)"/><circle cx="291.791" cy="124.348" fill="#2b2d6e" r="3.50294" transform="matrix(-.88782342 -.46018429 .46018429 -.88782342 493.626887 369.0247)"/></svg>