<svg width="456" height="325" viewBox="0 0 456 325" fill="none" xmlns="http://www.w3.org/2000/svg"><g clip-path="url(#clip0_666_31691)"><rect x="63.5" y="48.813" width="429" height="262.669" rx="11.271" fill="#E3E6E8"/><rect x="63.5" y="48.813" width="429" height="262.669" rx="11.271" stroke="#BAC0C5"/><path d="M85.2202 111.371L470.779 111.371" stroke="#A7AEB4" stroke-linecap="square" stroke-linejoin="round"/><path d="M145.005 91.8921C141.669 91.8921 139.516 90.1397 139.294 87.6589L139.284 87.5428H141.184L141.194 87.6589C141.332 89.1791 142.915 90.1397 145.111 90.1397C147.18 90.1397 148.69 89.0735 148.69 87.5217V87.5111C148.69 86.2443 147.813 85.3787 145.723 84.9142L144.034 84.5447C140.983 83.869 139.664 82.465 139.664 80.2587V80.2481C139.674 77.7251 141.881 75.941 145.026 75.941C148.067 75.941 150.189 77.7356 150.347 80.0053L150.358 80.1531H148.457L148.436 80.0159C148.225 78.6752 146.958 77.6828 144.974 77.6934C143.073 77.7039 141.606 78.6013 141.606 80.1953V80.2059C141.606 81.4199 142.44 82.2433 144.509 82.6973L146.198 83.0773C149.376 83.7846 150.632 85.062 150.632 87.2577V87.2683C150.632 90.1186 148.405 91.8921 145.005 91.8921ZM158.243 91.7338C155.003 91.7338 152.997 89.4958 152.997 85.8537V85.8326C152.997 82.18 155.003 79.9525 158.243 79.9525C161.484 79.9525 163.49 82.18 163.49 85.8326V85.8537C163.49 89.4958 161.484 91.7338 158.243 91.7338ZM158.243 90.1081C160.397 90.1081 161.611 88.5351 161.611 85.8537V85.8326C161.611 83.1406 160.397 81.5782 158.243 81.5782C156.09 81.5782 154.876 83.1406 154.876 85.8326V85.8537C154.876 88.5351 156.09 90.1081 158.243 90.1081ZM170.151 91.7338C167.565 91.7338 166.235 90.2136 166.235 87.5217V80.1531H168.072V87.0783C168.072 89.1263 168.811 90.1081 170.626 90.1081C172.632 90.1081 173.698 88.8835 173.698 86.8883V80.1531H175.535V91.5332H173.698V89.8336H173.53C172.97 91.0476 171.819 91.7338 170.151 91.7338ZM178.966 91.5332V80.1531H180.803V81.8422H180.972C181.405 80.6493 182.471 79.9525 184.012 79.9525C184.361 79.9525 184.751 79.9947 184.931 80.0264V81.8105C184.551 81.7472 184.202 81.7049 183.801 81.7049C182.049 81.7049 180.803 82.8134 180.803 84.4813V91.5332H178.966ZM191.539 91.7338C188.351 91.7338 186.314 89.4219 186.314 85.8115V85.7904C186.314 82.2539 188.341 79.9525 191.529 79.9525C194.295 79.9525 195.952 81.5466 196.29 83.5735L196.3 83.6368H194.474L194.463 83.6051C194.178 82.4861 193.165 81.5782 191.529 81.5782C189.481 81.5782 188.193 83.2251 188.193 85.7904V85.8115C188.193 88.4295 189.502 90.1081 191.529 90.1081C193.059 90.1081 194.031 89.4324 194.453 88.1656L194.474 88.1023L196.29 88.0917L196.269 88.2078C195.804 90.2664 194.273 91.7338 191.539 91.7338ZM203.627 91.7338C200.375 91.7338 198.412 89.4535 198.412 85.8854V85.8748C198.412 82.3594 200.417 79.9525 203.511 79.9525C206.604 79.9525 208.483 82.2539 208.483 85.6531V86.371H200.291C200.344 88.7251 201.642 90.0975 203.669 90.0975C205.21 90.0975 206.16 89.3691 206.466 88.6829L206.509 88.5879H208.345L208.324 88.6723C207.934 90.2136 206.308 91.7338 203.627 91.7338ZM203.5 81.5888C201.811 81.5888 200.523 82.7395 200.322 84.9036H206.614C206.424 82.655 205.178 81.5888 203.5 81.5888ZM215.239 91.7338C212.705 91.7338 210.964 90.5092 210.752 88.6301H212.631C212.938 89.5802 213.846 90.2031 215.302 90.2031C216.833 90.2031 217.92 89.4746 217.92 88.4401V88.419C217.92 87.6483 217.34 87.11 215.936 86.7721L214.173 86.3499C212.04 85.8431 211.08 84.9142 211.08 83.2779V83.2673C211.08 81.3777 212.895 79.9525 215.313 79.9525C217.699 79.9525 219.356 81.1454 219.609 83.0034H217.804C217.561 82.1061 216.675 81.4832 215.302 81.4832C213.951 81.4832 212.959 82.18 212.959 83.1829V83.204C212.959 83.9746 213.529 84.4602 214.87 84.7875L216.622 85.2097C218.765 85.727 219.799 86.656 219.799 88.2817V88.3029C219.799 90.3297 217.825 91.7338 215.239 91.7338Z" fill="#0C0D0E"/><path d="M106.292 80.8633C106.292 80.0156 106.98 79.3285 107.827 79.3285H117.036C117.883 79.3285 118.571 80.0156 118.571 80.8633C118.571 81.7109 117.883 82.398 117.036 82.398H107.827C106.98 82.398 106.292 81.7109 106.292 80.8633Z" fill="#3B4045"/><path d="M107.827 83.9328C106.98 83.9328 106.292 84.6199 106.292 85.4675C106.292 86.3152 106.98 87.0023 107.827 87.0023H113.966C114.814 87.0023 115.501 86.3152 115.501 85.4675C115.501 84.6199 114.814 83.9328 113.966 83.9328H107.827Z" fill="#3B4045"/><path fill-rule="evenodd" clip-rule="evenodd" d="M100.153 97.7456V76.259C100.153 74.5707 101.535 73.1895 103.223 73.1895H121.64C123.312 73.1895 124.71 74.5871 124.71 76.259V90.0718C124.71 91.7437 123.312 93.1413 121.64 93.1413H105.525L100.153 97.7456ZM104.39 90.0718H121.621C121.624 90.0695 121.628 90.0666 121.631 90.063C121.634 90.0603 121.636 90.0576 121.638 90.0551L121.64 90.0529V76.2779C121.638 76.2748 121.635 76.2713 121.631 76.2677C121.628 76.2642 121.624 76.2612 121.621 76.259H103.223V91.0718L104.39 90.0718Z" fill="#3B4045"/><rect x="85.22" y="132.991" width="385.559" height="71.178" rx="11.771" fill="#BAC0C5"/><g filter="url(#filter0_ii_666_31691)"><rect x="107.441" y="154.611" width="27.938" height="27.938" rx="5.784" fill="#FF5F1B"/><rect x="107.441" y="154.611" width="27.938" height="27.938" rx="5.784" fill="url(#paint0_radial_666_31691)" fill-opacity=".2" style="mix-blend-mode:multiply"/><rect x="107.441" y="154.611" width="27.938" height="27.938" rx="5.784" fill="url(#paint1_radial_666_31691)" fill-opacity=".15" style="mix-blend-mode:hard-light"/><rect x="107.893" y="155.063" width="27.033" height="27.033" rx="5.332" stroke="#F17216" stroke-width=".905"/><g filter="url(#filter1_dii_666_31691)"><path d="M126.733 170.8C126.678 170.8 126.634 170.844 126.634 170.899V175.197C126.634 175.252 126.589 175.297 126.534 175.297H116.326C116.271 175.297 116.226 175.252 116.226 175.197V170.899C116.226 170.844 116.182 170.8 116.127 170.8H114.758C114.703 170.8 114.659 170.844 114.659 170.899V176.793C114.659 176.848 114.703 176.893 114.758 176.893H128.099C128.154 176.893 128.199 176.848 128.199 176.793V170.899C128.199 170.844 128.154 170.8 128.099 170.8H126.733Z" fill="#fff"/><path d="M117.589 173.682C117.589 173.737 117.633 173.782 117.688 173.782H125.176C125.231 173.782 125.276 173.737 125.276 173.682V172.43C125.276 172.375 125.231 172.33 125.176 172.33H117.688C117.633 172.33 117.589 172.375 117.589 172.43V173.682ZM117.762 170.212C117.751 170.266 117.786 170.319 117.839 170.33L125.112 171.856C125.166 171.868 125.219 171.833 125.23 171.779L125.497 170.484C125.508 170.43 125.473 170.377 125.42 170.366L118.147 168.84C118.093 168.828 118.04 168.863 118.029 168.917L117.762 170.212ZM118.768 166.639C118.744 166.689 118.766 166.748 118.816 166.772L125.549 169.914C125.599 169.937 125.659 169.916 125.682 169.866L126.243 168.664C126.266 168.614 126.245 168.555 126.195 168.531L119.461 165.389C119.411 165.366 119.352 165.387 119.329 165.437L118.768 166.639ZM120.71 163.258C120.675 163.3 120.68 163.362 120.723 163.398L126.439 168.157C126.481 168.192 126.544 168.186 126.579 168.144L127.434 167.129C127.47 167.087 127.464 167.024 127.422 166.988L121.691 162.23C121.648 162.195 121.586 162.201 121.55 162.243L120.71 163.258ZM124.485 159.803C124.452 159.759 124.39 159.75 124.346 159.782L123.277 160.571C123.233 160.603 123.223 160.666 123.256 160.71L127.685 166.681C127.718 166.725 127.78 166.734 127.825 166.701L128.893 165.913C128.938 165.88 128.947 165.818 128.914 165.774L124.485 159.803Z" fill="#fff"/></g></g><path d="M159.561 175.399C156.596 175.399 154.681 173.841 154.484 171.636L154.475 171.533H156.164L156.173 171.636C156.295 172.987 157.703 173.841 159.655 173.841C161.494 173.841 162.836 172.894 162.836 171.514V171.505C162.836 170.379 162.057 169.609 160.199 169.196L158.698 168.868C155.986 168.267 154.813 167.019 154.813 165.058V165.049C154.822 162.806 156.783 161.22 159.58 161.22C162.282 161.22 164.168 162.815 164.309 164.833L164.318 164.964H162.629L162.611 164.842C162.423 163.651 161.297 162.769 159.533 162.778C157.844 162.787 156.539 163.585 156.539 165.002V165.011C156.539 166.09 157.281 166.822 159.12 167.226L160.621 167.564C163.446 168.192 164.562 169.328 164.562 171.28V171.289C164.562 173.823 162.582 175.399 159.561 175.399ZM167.265 175.08V160.948H168.898V166.485H169.048C169.554 165.415 170.502 164.786 171.994 164.786C174.265 164.786 175.532 166.128 175.532 168.53V175.08H173.899V168.924C173.899 167.104 173.148 166.231 171.534 166.231C169.92 166.231 168.898 167.32 168.898 169.093V175.08H167.265ZM181.265 175.258C179.342 175.258 177.887 174.095 177.887 172.256V172.237C177.887 170.435 179.22 169.393 181.575 169.253L184.475 169.074V168.155C184.475 166.907 183.715 166.231 182.204 166.231C180.993 166.231 180.196 166.682 179.933 167.47L179.924 167.498H178.291L178.3 167.442C178.563 165.856 180.102 164.786 182.26 164.786C184.728 164.786 186.107 166.053 186.107 168.155V175.08H184.475V173.588H184.324C183.686 174.667 182.626 175.258 181.265 175.258ZM179.558 172.218C179.558 173.241 180.43 173.841 181.603 173.841C183.264 173.841 184.475 172.753 184.475 171.308V170.388L181.772 170.557C180.233 170.651 179.558 171.195 179.558 172.199V172.218ZM192.479 175.258C190.18 175.258 188.998 173.907 188.998 171.514V164.964H190.63V171.12C190.63 172.941 191.287 173.813 192.901 173.813C194.684 173.813 195.632 172.725 195.632 170.951V164.964H197.265V175.08H195.632V173.569H195.482C194.984 174.648 193.962 175.258 192.479 175.258ZM200.314 175.08V164.964H201.947V166.485H202.097C202.604 165.415 203.552 164.786 205.044 164.786C207.315 164.786 208.581 166.128 208.581 168.53V175.08H206.949V168.924C206.949 167.104 206.198 166.231 204.584 166.231C202.97 166.231 201.947 167.32 201.947 169.093V175.08H200.314ZM217.149 175.08V161.539H222.329C224.815 161.539 226.335 162.844 226.335 164.908V164.927C226.335 166.325 225.303 167.601 223.999 167.836V167.986C225.847 168.221 227.02 169.487 227.02 171.27V171.289C227.02 173.663 225.313 175.08 222.432 175.08H217.149ZM221.972 163.031H218.838V167.376H221.54C223.586 167.376 224.628 166.644 224.628 165.218V165.199C224.628 163.829 223.652 163.031 221.972 163.031ZM222.019 168.83H218.838V173.588H222.178C224.215 173.588 225.284 172.762 225.284 171.205V171.186C225.284 169.628 224.177 168.83 222.019 168.83ZM233.702 175.258C230.811 175.258 229.066 173.231 229.066 170.06V170.05C229.066 166.926 230.849 164.786 233.598 164.786C236.348 164.786 238.018 166.832 238.018 169.853V170.491H230.736C230.783 172.584 231.937 173.804 233.739 173.804C235.109 173.804 235.954 173.156 236.226 172.546L236.263 172.462H237.896L237.877 172.537C237.53 173.907 236.085 175.258 233.702 175.258ZM233.589 166.241C232.088 166.241 230.943 167.263 230.765 169.187H236.357C236.188 167.188 235.081 166.241 233.589 166.241ZM244.69 175.258C241.856 175.258 240.045 173.203 240.045 169.994V169.975C240.045 166.832 241.847 164.786 244.681 164.786C247.139 164.786 248.612 166.203 248.913 168.005L248.922 168.061H247.299L247.289 168.033C247.036 167.038 246.135 166.231 244.681 166.231C242.86 166.231 241.715 167.695 241.715 169.975V169.994C241.715 172.321 242.879 173.813 244.681 173.813C246.041 173.813 246.905 173.213 247.28 172.087L247.299 172.03L248.913 172.021L248.894 172.124C248.481 173.954 247.12 175.258 244.69 175.258ZM251.399 175.08V160.948H253.032V169.384H253.182L257.555 164.964H259.535L255.125 169.215L259.826 175.08H257.771L253.98 170.322L253.032 171.242V175.08H251.399ZM261.731 166.879L262.547 161.539H264.415L262.941 166.879H261.731ZM269.698 175.258C267.445 175.258 265.897 174.17 265.71 172.499H267.38C267.652 173.344 268.459 173.898 269.754 173.898C271.115 173.898 272.081 173.25 272.081 172.331V172.312C272.081 171.627 271.565 171.148 270.317 170.848L268.75 170.473C266.854 170.022 266 169.196 266 167.742V167.733C266 166.053 267.614 164.786 269.763 164.786C271.884 164.786 273.357 165.846 273.582 167.498H271.978C271.762 166.7 270.974 166.147 269.754 166.147C268.553 166.147 267.671 166.766 267.671 167.657V167.676C267.671 168.361 268.177 168.793 269.369 169.084L270.927 169.459C272.832 169.919 273.751 170.745 273.751 172.19V172.209C273.751 174.01 271.997 175.258 269.698 175.258Z" fill="#0C0D0E"/><path d="M280.817 175.08L285.809 161.539H287.48L292.472 175.08H290.698L289.338 171.205H283.951L282.591 175.08H280.817ZM286.57 163.726L284.449 169.769H288.84L286.72 163.726H286.57ZM294.64 175.08V164.964H296.272V166.485H296.422C296.929 165.415 297.877 164.786 299.369 164.786C301.64 164.786 302.907 166.128 302.907 168.53V175.08H301.274V168.924C301.274 167.104 300.523 166.231 298.909 166.231C297.295 166.231 296.272 167.32 296.272 169.093V175.08H294.64ZM309.334 175.258C307.082 175.258 305.534 174.17 305.346 172.499H307.017C307.289 173.344 308.096 173.898 309.391 173.898C310.751 173.898 311.718 173.25 311.718 172.331V172.312C311.718 171.627 311.202 171.148 309.954 170.848L308.387 170.473C306.491 170.022 305.637 169.196 305.637 167.742V167.733C305.637 166.053 307.251 164.786 309.4 164.786C311.521 164.786 312.994 165.846 313.219 167.498H311.615C311.399 166.7 310.611 166.147 309.391 166.147C308.19 166.147 307.308 166.766 307.308 167.657V167.676C307.308 168.361 307.814 168.793 309.006 169.084L310.564 169.459C312.469 169.919 313.388 170.745 313.388 172.19V172.209C313.388 174.01 311.633 175.258 309.334 175.258ZM317.592 175.08L314.758 164.964H316.391L318.38 173.053H318.53L320.792 164.964H322.34L324.602 173.053H324.752L326.741 164.964H328.365L325.531 175.08H323.889L321.627 167.254H321.477L319.225 175.08H317.592ZM334.276 175.258C331.386 175.258 329.641 173.231 329.641 170.06V170.05C329.641 166.926 331.424 164.786 334.173 164.786C336.923 164.786 338.593 166.832 338.593 169.853V170.491H331.311C331.358 172.584 332.512 173.804 334.314 173.804C335.684 173.804 336.528 173.156 336.801 172.546L336.838 172.462H338.471L338.452 172.537C338.105 173.907 336.66 175.258 334.276 175.258ZM334.164 166.241C332.662 166.241 331.518 167.263 331.339 169.187H336.932C336.763 167.188 335.656 166.241 334.164 166.241ZM341.127 175.08V164.964H342.759V166.466H342.909C343.294 165.405 344.242 164.786 345.612 164.786C345.922 164.786 346.269 164.824 346.428 164.852V166.438C346.09 166.381 345.781 166.344 345.424 166.344C343.867 166.344 342.759 167.329 342.759 168.812V175.08H341.127Z" fill="#155CA2"/><rect x="85.22" y="219.183" width="385.559" height="71.178" rx="11.771" fill="#BAC0C5"/><g filter="url(#filter2_ii_666_31691)"><rect x="107.441" y="240.803" width="27.938" height="27.938" rx="5.784" fill="#FF5F1B"/><rect x="107.441" y="240.803" width="27.938" height="27.938" rx="5.784" fill="url(#paint2_radial_666_31691)" fill-opacity=".2" style="mix-blend-mode:multiply"/><rect x="107.441" y="240.803" width="27.938" height="27.938" rx="5.784" fill="url(#paint3_radial_666_31691)" fill-opacity=".15" style="mix-blend-mode:hard-light"/><rect x="107.893" y="241.256" width="27.033" height="27.033" rx="5.332" stroke="#F17216" stroke-width=".905"/><g filter="url(#filter3_dii_666_31691)"><path d="M126.734 256.994C126.679 256.994 126.634 257.038 126.634 257.093V261.391C126.634 261.446 126.59 261.491 126.535 261.491H116.327C116.272 261.491 116.227 261.446 116.227 261.391V257.093C116.227 257.038 116.182 256.994 116.127 256.994H114.759C114.704 256.994 114.659 257.038 114.659 257.093V262.987C114.659 263.042 114.704 263.087 114.759 263.087H128.1C128.155 263.087 128.199 263.042 128.199 262.987V257.093C128.199 257.038 128.155 256.994 128.1 256.994H126.734Z" fill="#fff"/><path d="M117.589 259.876C117.589 259.931 117.634 259.976 117.689 259.976H125.177C125.232 259.976 125.276 259.931 125.276 259.876V258.623C125.276 258.568 125.232 258.524 125.177 258.524H117.689C117.634 258.524 117.589 258.568 117.589 258.623V259.876ZM117.763 256.406C117.752 256.46 117.786 256.512 117.84 256.524L125.112 258.05C125.166 258.061 125.219 258.027 125.23 257.973L125.497 256.677C125.508 256.624 125.474 256.571 125.42 256.56L118.148 255.033C118.094 255.022 118.041 255.057 118.03 255.111L117.763 256.406ZM118.768 252.833C118.745 252.883 118.766 252.942 118.816 252.965L125.55 256.108C125.6 256.131 125.659 256.109 125.682 256.06L126.243 254.857C126.267 254.807 126.245 254.748 126.195 254.725L119.462 251.583C119.412 251.559 119.353 251.581 119.329 251.631L118.768 252.833ZM120.71 249.451C120.675 249.493 120.681 249.556 120.723 249.591L126.44 254.35C126.482 254.385 126.544 254.38 126.58 254.338L127.435 253.323C127.47 253.28 127.465 253.217 127.422 253.182L121.691 248.424C121.649 248.388 121.586 248.394 121.551 248.437L120.71 249.451ZM124.486 245.997C124.453 245.953 124.391 245.943 124.346 245.976L123.278 246.764C123.233 246.797 123.224 246.859 123.257 246.904L127.686 252.874C127.719 252.918 127.781 252.928 127.825 252.895L128.894 252.107C128.938 252.074 128.948 252.012 128.915 251.967L124.486 245.997Z" fill="#fff"/></g></g><path d="M160.574 261.591C156.896 261.591 154.597 258.87 154.597 254.516V254.497C154.597 250.134 156.886 247.412 160.565 247.412C163.418 247.412 165.641 249.205 166.045 251.804L166.036 251.823H164.337L164.328 251.804C163.877 250.068 162.432 248.97 160.565 248.97C157.966 248.97 156.333 251.11 156.333 254.497V254.516C156.333 257.903 157.966 260.034 160.574 260.034C162.46 260.034 163.896 259.067 164.318 257.509L164.337 257.491H166.045V257.509C165.595 259.987 163.455 261.591 160.574 261.591ZM168.672 261.272V251.157H170.305V252.658H170.455C170.84 251.598 171.788 250.978 173.158 250.978C173.468 250.978 173.815 251.016 173.974 251.044V252.63C173.636 252.574 173.327 252.536 172.97 252.536C171.412 252.536 170.305 253.521 170.305 255.004V261.272H168.672ZM176.949 264.819C176.733 264.819 176.452 264.8 176.226 264.763V263.421C176.423 263.459 176.677 263.468 176.902 263.468C177.831 263.468 178.394 263.046 178.76 261.882L178.948 261.282L175.203 251.157H176.949L179.726 259.48H179.877L182.645 251.157H184.362L180.411 261.892C179.576 264.162 178.741 264.819 176.949 264.819ZM189.711 261.451C187.459 261.451 185.91 260.362 185.723 258.692H187.393C187.665 259.536 188.472 260.09 189.767 260.09C191.128 260.09 192.094 259.442 192.094 258.523V258.504C192.094 257.819 191.578 257.34 190.33 257.04L188.763 256.665C186.867 256.214 186.014 255.389 186.014 253.934V253.925C186.014 252.245 187.628 250.978 189.776 250.978C191.897 250.978 193.37 252.039 193.596 253.69H191.991C191.775 252.893 190.987 252.339 189.767 252.339C188.566 252.339 187.684 252.958 187.684 253.85V253.868C187.684 254.553 188.191 254.985 189.382 255.276L190.94 255.651C192.845 256.111 193.765 256.937 193.765 258.382V258.401C193.765 260.202 192.01 261.451 189.711 261.451ZM199.798 261.347C197.715 261.347 196.842 260.578 196.842 258.645V252.508H195.247V251.157H196.842V248.539H198.531V251.157H200.746V252.508H198.531V258.232C198.531 259.424 198.944 259.902 199.995 259.902C200.286 259.902 200.446 259.893 200.746 259.865V261.253C200.427 261.31 200.117 261.347 199.798 261.347ZM205.963 261.451C204.04 261.451 202.585 260.287 202.585 258.448V258.429C202.585 256.627 203.918 255.586 206.273 255.445L209.173 255.267V254.347C209.173 253.099 208.412 252.423 206.902 252.423C205.691 252.423 204.894 252.874 204.631 253.662L204.621 253.69H202.989L202.998 253.634C203.261 252.048 204.8 250.978 206.958 250.978C209.426 250.978 210.805 252.245 210.805 254.347V261.272H209.173V259.78H209.022C208.384 260.859 207.324 261.451 205.963 261.451ZM204.256 258.41C204.256 259.433 205.128 260.034 206.301 260.034C207.962 260.034 209.173 258.945 209.173 257.5V256.58L206.47 256.749C204.931 256.843 204.256 257.387 204.256 258.391V258.41ZM213.883 261.272V247.14H215.516V261.272H213.883ZM224.262 261.272V247.732H225.904L233.251 258.269H233.401V247.732H235.072V261.272H233.43L226.082 250.772H225.932V261.272H224.262ZM241.096 261.451C239.172 261.451 237.718 260.287 237.718 258.448V258.429C237.718 256.627 239.05 255.586 241.406 255.445L244.305 255.267V254.347C244.305 253.099 243.545 252.423 242.034 252.423C240.824 252.423 240.026 252.874 239.764 253.662L239.754 253.69H238.121L238.131 253.634C238.393 252.048 239.932 250.978 242.091 250.978C244.559 250.978 245.938 252.245 245.938 254.347V261.272H244.305V259.78H244.155C243.517 260.859 242.457 261.451 241.096 261.451ZM239.388 258.41C239.388 259.433 240.261 260.034 241.434 260.034C243.095 260.034 244.305 258.945 244.305 257.5V256.58L241.603 256.749C240.064 256.843 239.388 257.387 239.388 258.391V258.41ZM249.767 249.205C249.147 249.205 248.641 248.698 248.641 248.079C248.641 247.459 249.147 246.953 249.767 246.953C250.386 246.953 250.893 247.459 250.893 248.079C250.893 248.698 250.386 249.205 249.767 249.205ZM247.477 264.744H247.195V263.299H247.439C248.537 263.299 248.95 262.914 248.95 261.798V251.157H250.583V261.77C250.583 263.853 249.598 264.744 247.477 264.744ZM257.799 261.451C254.909 261.451 253.163 259.424 253.163 256.252V256.243C253.163 253.118 254.946 250.978 257.696 250.978C260.445 250.978 262.116 253.024 262.116 256.045V256.684H254.834C254.881 258.776 256.035 259.996 257.837 259.996C259.207 259.996 260.051 259.349 260.323 258.739L260.361 258.654H261.994L261.975 258.729C261.628 260.099 260.182 261.451 257.799 261.451ZM257.686 252.433C256.185 252.433 255.04 253.456 254.862 255.379H260.455C260.286 253.381 259.178 252.433 257.686 252.433ZM264.649 261.272V251.157H266.282V252.658H266.432C266.817 251.598 267.765 250.978 269.135 250.978C269.444 250.978 269.791 251.016 269.951 251.044V252.63C269.613 252.574 269.303 252.536 268.947 252.536C267.389 252.536 266.282 253.521 266.282 255.004V261.272H264.649ZM274.746 261.451C272.822 261.451 271.368 260.287 271.368 258.448V258.429C271.368 256.627 272.7 255.586 275.056 255.445L277.955 255.267V254.347C277.955 253.099 277.195 252.423 275.684 252.423C274.474 252.423 273.676 252.874 273.414 253.662L273.404 253.69H271.771L271.781 253.634C272.044 252.048 273.582 250.978 275.741 250.978C278.209 250.978 279.588 252.245 279.588 254.347V261.272H277.955V259.78H277.805C277.167 260.859 276.107 261.451 274.746 261.451ZM273.038 258.41C273.038 259.433 273.911 260.034 275.084 260.034C276.745 260.034 277.955 258.945 277.955 257.5V256.58L275.253 256.749C273.714 256.843 273.038 257.387 273.038 258.391V258.41ZM282.563 253.071L283.379 247.732H285.246L283.773 253.071H282.563ZM290.529 261.451C288.277 261.451 286.729 260.362 286.541 258.692H288.212C288.484 259.536 289.291 260.09 290.586 260.09C291.946 260.09 292.913 259.442 292.913 258.523V258.504C292.913 257.819 292.397 257.34 291.149 257.04L289.582 256.665C287.686 256.214 286.832 255.389 286.832 253.934V253.925C286.832 252.245 288.446 250.978 290.595 250.978C292.716 250.978 294.189 252.039 294.414 253.69H292.81C292.594 252.893 291.806 252.339 290.586 252.339C289.385 252.339 288.503 252.958 288.503 253.85V253.868C288.503 254.553 289.009 254.985 290.201 255.276L291.759 255.651C293.664 256.111 294.583 256.937 294.583 258.382V258.401C294.583 260.202 292.828 261.451 290.529 261.451Z" fill="#0C0D0E"/><path d="M301.649 261.272L306.641 247.732H308.312L313.304 261.272H311.53L310.17 257.397H304.783L303.423 261.272H301.649ZM307.401 249.918L305.281 255.961H309.672L307.552 249.918H307.401ZM315.471 261.272V251.157H317.104V252.677H317.254C317.761 251.607 318.709 250.978 320.201 250.978C322.472 250.978 323.738 252.32 323.738 254.722V261.272H322.106V255.116C322.106 253.296 321.355 252.423 319.741 252.423C318.127 252.423 317.104 253.512 317.104 255.285V261.272H315.471ZM330.166 261.451C327.914 261.451 326.366 260.362 326.178 258.692H327.849C328.121 259.536 328.928 260.09 330.223 260.09C331.583 260.09 332.55 259.442 332.55 258.523V258.504C332.55 257.819 332.034 257.34 330.786 257.04L329.219 256.665C327.323 256.214 326.469 255.389 326.469 253.934V253.925C326.469 252.245 328.083 250.978 330.232 250.978C332.353 250.978 333.826 252.039 334.051 253.69H332.447C332.231 252.893 331.443 252.339 330.223 252.339C329.022 252.339 328.139 252.958 328.139 253.85V253.868C328.139 254.553 328.646 254.985 329.838 255.276L331.396 255.651C333.3 256.111 334.22 256.937 334.22 258.382V258.401C334.22 260.202 332.465 261.451 330.166 261.451ZM338.424 261.272L335.59 251.157H337.223L339.212 259.245H339.362L341.624 251.157H343.172L345.434 259.245H345.584L347.573 251.157H349.197L346.363 261.272H344.72L342.459 253.446H342.309L340.057 261.272H338.424ZM355.108 261.451C352.218 261.451 350.473 259.424 350.473 256.252V256.243C350.473 253.118 352.256 250.978 355.005 250.978C357.754 250.978 359.425 253.024 359.425 256.045V256.684H352.143C352.19 258.776 353.344 259.996 355.146 259.996C356.516 259.996 357.36 259.349 357.632 258.739L357.67 258.654H359.303L359.284 258.729C358.937 260.099 357.492 261.451 355.108 261.451ZM354.996 252.433C353.494 252.433 352.349 253.456 352.171 255.379H357.764C357.595 253.381 356.488 252.433 354.996 252.433ZM361.958 261.272V251.157H363.591V252.658H363.741C364.126 251.598 365.074 250.978 366.444 250.978C366.753 250.978 367.101 251.016 367.26 251.044V252.63C366.922 252.574 366.613 252.536 366.256 252.536C364.698 252.536 363.591 253.521 363.591 255.004V261.272H361.958Z" fill="#155CA2"/></g><defs><filter id="filter0_ii_666_31691" x="105.744" y="152.519" width="31.331" height="31.727" filterUnits="userSpaceOnUse" color-interpolation-filters="sRGB"><feFlood flood-opacity="0" result="BackgroundImageFix"/><feBlend mode="normal" in="SourceGraphic" in2="BackgroundImageFix" result="shape"/><feColorMatrix in="SourceAlpha" type="matrix" values="0 0 0 0 0 0 0 0 0 0 0 0 0 0 0 0 0 0 127 0" result="hardAlpha"/><feOffset dx="1.697" dy="-2.093"/><feGaussianBlur stdDeviation="1.301"/><feComposite in2="hardAlpha" operator="arithmetic" k2="-1" k3="1"/><feColorMatrix type="matrix" values="0 0 0 0 0.741667 0 0 0 0 0.365889 0 0 0 0 0.154514 0 0 0 0.25 0"/><feBlend mode="multiply" in2="shape" result="effect1_innerShadow_666_31691"/><feColorMatrix in="SourceAlpha" type="matrix" values="0 0 0 0 0 0 0 0 0 0 0 0 0 0 0 0 0 0 127 0" result="hardAlpha"/><feOffset dx="-1.697" dy="1.697"/><feGaussianBlur stdDeviation="3.761"/><feComposite in2="hardAlpha" operator="arithmetic" k2="-1" k3="1"/><feColorMatrix type="matrix" values="0 0 0 0 1 0 0 0 0 1 0 0 0 0 1 0 0 0 0.1 0"/><feBlend mode="hard-light" in2="effect1_innerShadow_666_31691" result="effect2_innerShadow_666_31691"/></filter><filter id="filter1_dii_666_31691" x="113.978" y="159.219" width="15.804" height="18.492" filterUnits="userSpaceOnUse" color-interpolation-filters="sRGB"><feFlood flood-opacity="0" result="BackgroundImageFix"/><feColorMatrix in="SourceAlpha" type="matrix" values="0 0 0 0 0 0 0 0 0 0 0 0 0 0 0 0 0 0 127 0" result="hardAlpha"/><feOffset dy=".137"/><feGaussianBlur stdDeviation=".34"/><feComposite in2="hardAlpha" operator="out"/><feColorMatrix type="matrix" values="0 0 0 0 0.277022 0 0 0 0 0.189062 0 0 0 0 0.6875 0 0 0 0.1 0"/><feBlend mode="multiply" in2="BackgroundImageFix" result="effect1_dropShadow_666_31691"/><feBlend mode="normal" in="SourceGraphic" in2="effect1_dropShadow_666_31691" result="shape"/><feColorMatrix in="SourceAlpha" type="matrix" values="0 0 0 0 0 0 0 0 0 0 0 0 0 0 0 0 0 0 127 0" result="hardAlpha"/><feOffset dx=".051" dy="-.102"/><feGaussianBlur stdDeviation=".153"/><feComposite in2="hardAlpha" operator="arithmetic" k2="-1" k3="1"/><feColorMatrix type="matrix" values="0 0 0 0 0.483194 0 0 0 0 0.526583 0 0 0 0 0.591667 0 0 0 0.25 0"/><feBlend mode="normal" in2="shape" result="effect2_innerShadow_666_31691"/><feColorMatrix in="SourceAlpha" type="matrix" values="0 0 0 0 0 0 0 0 0 0 0 0 0 0 0 0 0 0 127 0" result="hardAlpha"/><feOffset dx="-.153" dy=".153"/><feGaussianBlur stdDeviation=".204"/><feComposite in2="hardAlpha" operator="arithmetic" k2="-1" k3="1"/><feColorMatrix type="matrix" values="0 0 0 0 1 0 0 0 0 0.868 0 0 0 0 0.4 0 0 0 0.25 0"/><feBlend mode="normal" in2="effect2_innerShadow_666_31691" result="effect3_innerShadow_666_31691"/></filter><filter id="filter2_ii_666_31691" x="105.744" y="238.711" width="31.331" height="31.727" filterUnits="userSpaceOnUse" color-interpolation-filters="sRGB"><feFlood flood-opacity="0" result="BackgroundImageFix"/><feBlend mode="normal" in="SourceGraphic" in2="BackgroundImageFix" result="shape"/><feColorMatrix in="SourceAlpha" type="matrix" values="0 0 0 0 0 0 0 0 0 0 0 0 0 0 0 0 0 0 127 0" result="hardAlpha"/><feOffset dx="1.697" dy="-2.093"/><feGaussianBlur stdDeviation="1.301"/><feComposite in2="hardAlpha" operator="arithmetic" k2="-1" k3="1"/><feColorMatrix type="matrix" values="0 0 0 0 0.741667 0 0 0 0 0.365889 0 0 0 0 0.154514 0 0 0 0.25 0"/><feBlend mode="multiply" in2="shape" result="effect1_innerShadow_666_31691"/><feColorMatrix in="SourceAlpha" type="matrix" values="0 0 0 0 0 0 0 0 0 0 0 0 0 0 0 0 0 0 127 0" result="hardAlpha"/><feOffset dx="-1.697" dy="1.697"/><feGaussianBlur stdDeviation="3.761"/><feComposite in2="hardAlpha" operator="arithmetic" k2="-1" k3="1"/><feColorMatrix type="matrix" values="0 0 0 0 1 0 0 0 0 1 0 0 0 0 1 0 0 0 0.1 0"/><feBlend mode="hard-light" in2="effect1_innerShadow_666_31691" result="effect2_innerShadow_666_31691"/></filter><filter id="filter3_dii_666_31691" x="113.978" y="245.413" width="15.804" height="18.492" filterUnits="userSpaceOnUse" color-interpolation-filters="sRGB"><feFlood flood-opacity="0" result="BackgroundImageFix"/><feColorMatrix in="SourceAlpha" type="matrix" values="0 0 0 0 0 0 0 0 0 0 0 0 0 0 0 0 0 0 127 0" result="hardAlpha"/><feOffset dy=".137"/><feGaussianBlur stdDeviation=".34"/><feComposite in2="hardAlpha" operator="out"/><feColorMatrix type="matrix" values="0 0 0 0 0.277022 0 0 0 0 0.189062 0 0 0 0 0.6875 0 0 0 0.1 0"/><feBlend mode="multiply" in2="BackgroundImageFix" result="effect1_dropShadow_666_31691"/><feBlend mode="normal" in="SourceGraphic" in2="effect1_dropShadow_666_31691" result="shape"/><feColorMatrix in="SourceAlpha" type="matrix" values="0 0 0 0 0 0 0 0 0 0 0 0 0 0 0 0 0 0 127 0" result="hardAlpha"/><feOffset dx=".051" dy="-.102"/><feGaussianBlur stdDeviation=".153"/><feComposite in2="hardAlpha" operator="arithmetic" k2="-1" k3="1"/><feColorMatrix type="matrix" values="0 0 0 0 0.483194 0 0 0 0 0.526583 0 0 0 0 0.591667 0 0 0 0.25 0"/><feBlend mode="normal" in2="shape" result="effect2_innerShadow_666_31691"/><feColorMatrix in="SourceAlpha" type="matrix" values="0 0 0 0 0 0 0 0 0 0 0 0 0 0 0 0 0 0 127 0" result="hardAlpha"/><feOffset dx="-.153" dy=".153"/><feGaussianBlur stdDeviation=".204"/><feComposite in2="hardAlpha" operator="arithmetic" k2="-1" k3="1"/><feColorMatrix type="matrix" values="0 0 0 0 1 0 0 0 0 0.868 0 0 0 0 0.4 0 0 0 0.25 0"/><feBlend mode="normal" in2="effect2_innerShadow_666_31691" result="effect3_innerShadow_666_31691"/></filter><radialGradient id="paint0_radial_666_31691" cx="0" cy="0" r="1" gradientUnits="userSpaceOnUse" gradientTransform="translate(107.441 182.549) rotate(-45) scale(39.5103)"><stop stop-color="#431274"/><stop offset="1" stop-color="#fff" stop-opacity="0"/></radialGradient><radialGradient id="paint1_radial_666_31691" cx="0" cy="0" r="1" gradientUnits="userSpaceOnUse" gradientTransform="translate(107.441 182.549) rotate(-45) scale(39.5103)"><stop stop-color="#fff" stop-opacity="0"/><stop offset="1" stop-color="#FAFE47"/></radialGradient><radialGradient id="paint2_radial_666_31691" cx="0" cy="0" r="1" gradientUnits="userSpaceOnUse" gradientTransform="translate(107.441 268.741) rotate(-45) scale(39.5103)"><stop stop-color="#431274"/><stop offset="1" stop-color="#fff" stop-opacity="0"/></radialGradient><radialGradient id="paint3_radial_666_31691" cx="0" cy="0" r="1" gradientUnits="userSpaceOnUse" gradientTransform="translate(107.441 268.741) rotate(-45) scale(39.5103)"><stop stop-color="#fff" stop-opacity="0"/><stop offset="1" stop-color="#FAFE47"/></radialGradient><clipPath id="clip0_666_31691"><rect y=".563" width="456" height="324" rx="12" fill="#fff"/></clipPath></defs></svg>