<svg width="456" height="325" viewBox="0 0 456 325" fill="none" xmlns="http://www.w3.org/2000/svg"><g clip-path="url(#clip0_666_31663)"><rect x="33.5" y="188.5" width="438" height="151" rx="14.5" fill="#E3E6E8"/><rect x="33.5" y="188.5" width="438" height="151" rx="14.5" stroke="#BAC0C5"/><path d="M56.3646 224.47V212.427H60.5133C61.4499 212.427 62.1646 212.484 62.6575 212.599C63.3476 212.758 63.9364 213.045 64.4238 213.462C65.0591 213.998 65.5329 214.686 65.8451 215.524C66.1627 216.356 66.3216 217.309 66.3216 218.383C66.3216 219.297 66.2148 220.108 66.0012 220.814C65.7876 221.521 65.5137 222.107 65.1796 222.572C64.8455 223.033 64.4786 223.397 64.0788 223.665C63.6844 223.928 63.2052 224.128 62.6411 224.265C62.0825 224.402 61.4389 224.47 60.7105 224.47H56.3646ZM57.9584 223.049H60.5298C61.3239 223.049 61.9455 222.975 62.3946 222.827C62.8492 222.679 63.2107 222.471 63.4791 222.203C63.857 221.825 64.15 221.318 64.3581 220.683C64.5717 220.042 64.6785 219.267 64.6785 218.358C64.6785 217.098 64.4704 216.132 64.0541 215.458C63.6434 214.779 63.1422 214.324 62.5507 214.094C62.1235 213.93 61.4362 213.848 60.4887 213.848H57.9584V223.049ZM67.7839 220.108C67.7839 218.492 68.233 217.296 69.1312 216.518C69.8815 215.872 70.7962 215.548 71.8751 215.548C73.0745 215.548 74.0549 215.943 74.8162 216.731C75.5775 217.515 75.9581 218.599 75.9581 219.985C75.9581 221.107 75.7883 221.992 75.4488 222.638C75.1147 223.279 74.6245 223.777 73.9782 224.133C73.3374 224.489 72.6364 224.667 71.8751 224.667C70.6538 224.667 69.6652 224.276 68.9094 223.493C68.1591 222.709 67.7839 221.581 67.7839 220.108ZM69.3037 220.108C69.3037 221.225 69.5474 222.063 70.0349 222.622C70.5223 223.175 71.1357 223.452 71.8751 223.452C72.609 223.452 73.2197 223.172 73.7071 222.614C74.1946 222.055 74.4383 221.203 74.4383 220.059C74.4383 218.98 74.1918 218.164 73.6989 217.61C73.2115 217.052 72.6035 216.772 71.8751 216.772C71.1357 216.772 70.5223 217.049 70.0349 217.602C69.5474 218.155 69.3037 218.991 69.3037 220.108ZM82.3168 227.83L82.1525 226.442C82.4756 226.53 82.7577 226.573 82.9986 226.573C83.3272 226.573 83.5901 226.519 83.7873 226.409C83.9845 226.299 84.146 226.146 84.272 225.949C84.3651 225.801 84.5157 225.434 84.7238 224.848C84.7512 224.766 84.795 224.645 84.8553 224.487L81.5445 215.746H83.1383L84.9539 220.798C85.1894 221.439 85.4002 222.112 85.5865 222.819C85.7562 222.14 85.9589 221.477 86.1944 220.831L88.0593 215.746H89.538L86.219 224.618C85.863 225.577 85.5865 226.237 85.3893 226.598C85.1264 227.085 84.8252 227.441 84.4856 227.666C84.146 227.896 83.7407 228.011 83.2697 228.011C82.9849 228.011 82.6673 227.951 82.3168 227.83ZM90.2445 220.108C90.2445 218.492 90.6936 217.296 91.5918 216.518C92.3422 215.872 93.2568 215.548 94.3358 215.548C95.5352 215.548 96.5156 215.943 97.2768 216.731C98.0381 217.515 98.4188 218.599 98.4188 219.985C98.4188 221.107 98.249 221.992 97.9094 222.638C97.5753 223.279 97.0851 223.777 96.4389 224.133C95.7981 224.489 95.097 224.667 94.3358 224.667C93.1144 224.667 92.1258 224.276 91.37 223.493C90.6197 222.709 90.2445 221.581 90.2445 220.108ZM91.7644 220.108C91.7644 221.225 92.0081 222.063 92.4955 222.622C92.983 223.175 93.5964 223.452 94.3358 223.452C95.0697 223.452 95.6803 223.172 96.1678 222.614C96.6552 222.055 96.8989 221.203 96.8989 220.059C96.8989 218.98 96.6525 218.164 96.1596 217.61C95.6721 217.052 95.0642 216.772 94.3358 216.772C93.5964 216.772 92.983 217.049 92.4955 217.602C92.0081 218.155 91.7644 218.991 91.7644 220.108ZM105.878 224.47V223.189C105.199 224.174 104.276 224.667 103.11 224.667C102.595 224.667 102.113 224.569 101.664 224.372C101.22 224.174 100.889 223.928 100.67 223.632C100.456 223.331 100.306 222.964 100.218 222.531C100.158 222.241 100.128 221.781 100.128 221.151V215.746H101.606V220.584C101.606 221.357 101.636 221.877 101.697 222.145C101.79 222.534 101.987 222.841 102.288 223.065C102.589 223.284 102.962 223.394 103.405 223.394C103.849 223.394 104.265 223.282 104.654 223.057C105.043 222.827 105.317 222.518 105.476 222.129C105.64 221.735 105.722 221.165 105.722 220.42V215.746H107.201V224.47H105.878ZM115.819 224.47L113.149 215.746H114.677L116.065 220.782L116.583 222.655C116.605 222.562 116.755 221.962 117.035 220.855L118.423 215.746H119.943L121.249 220.806L121.685 222.474L122.186 220.79L123.681 215.746H125.119L122.391 224.47H120.855L119.466 219.245L119.13 217.758L117.363 224.47H115.819ZM132.06 223.394C131.513 223.86 130.984 224.188 130.475 224.38C129.971 224.572 129.429 224.667 128.848 224.667C127.89 224.667 127.153 224.435 126.638 223.969C126.124 223.498 125.866 222.898 125.866 222.17C125.866 221.743 125.962 221.354 126.154 221.003C126.351 220.647 126.605 220.363 126.918 220.149C127.235 219.935 127.591 219.774 127.986 219.664C128.276 219.588 128.714 219.514 129.3 219.442C130.494 219.3 131.373 219.13 131.937 218.933C131.943 218.73 131.945 218.602 131.945 218.547C131.945 217.945 131.806 217.52 131.526 217.274C131.149 216.94 130.587 216.772 129.842 216.772C129.147 216.772 128.632 216.896 128.298 217.142C127.969 217.383 127.726 217.813 127.567 218.432L126.121 218.235C126.252 217.616 126.469 217.118 126.77 216.74C127.071 216.356 127.506 216.063 128.076 215.861C128.646 215.652 129.306 215.548 130.056 215.548C130.801 215.548 131.406 215.636 131.871 215.811C132.337 215.987 132.679 216.208 132.898 216.477C133.117 216.74 133.271 217.074 133.358 217.479C133.408 217.731 133.432 218.186 133.432 218.843V220.814C133.432 222.189 133.463 223.06 133.523 223.427C133.588 223.788 133.714 224.136 133.901 224.47H132.356C132.203 224.164 132.104 223.805 132.06 223.394ZM131.937 220.091C131.4 220.311 130.595 220.497 129.522 220.65C128.914 220.738 128.484 220.836 128.232 220.946C127.98 221.055 127.786 221.217 127.649 221.431C127.512 221.639 127.443 221.871 127.443 222.129C127.443 222.523 127.591 222.852 127.887 223.115C128.188 223.378 128.626 223.509 129.202 223.509C129.771 223.509 130.278 223.386 130.721 223.139C131.165 222.887 131.491 222.545 131.699 222.112C131.858 221.778 131.937 221.285 131.937 220.634V220.091ZM135.733 224.47V215.746H137.064V216.986C137.704 216.028 138.63 215.548 139.84 215.548C140.366 215.548 140.848 215.644 141.286 215.836C141.73 216.022 142.061 216.269 142.28 216.575C142.499 216.882 142.653 217.246 142.74 217.668C142.795 217.942 142.823 218.421 142.823 219.106V224.47H141.344V219.163C141.344 218.561 141.286 218.112 141.171 217.816C141.056 217.515 140.851 217.276 140.555 217.101C140.265 216.92 139.922 216.83 139.528 216.83C138.898 216.83 138.353 217.03 137.893 217.43C137.439 217.83 137.211 218.588 137.211 219.705V224.47H135.733ZM148.327 223.148L148.54 224.454C148.124 224.541 147.752 224.585 147.423 224.585C146.886 224.585 146.47 224.5 146.174 224.331C145.879 224.161 145.67 223.939 145.55 223.665C145.429 223.386 145.369 222.803 145.369 221.915V216.896H144.285V215.746H145.369V213.585L146.84 212.698V215.746H148.327V216.896H146.84V221.997C146.84 222.419 146.864 222.69 146.914 222.811C146.968 222.931 147.053 223.027 147.168 223.098C147.289 223.169 147.459 223.205 147.678 223.205C147.842 223.205 148.058 223.186 148.327 223.148ZM157.692 223.148L157.906 224.454C157.49 224.541 157.117 224.585 156.789 224.585C156.252 224.585 155.836 224.5 155.54 224.331C155.244 224.161 155.036 223.939 154.915 223.665C154.795 223.386 154.735 222.803 154.735 221.915V216.896H153.65V215.746H154.735V213.585L156.205 212.698V215.746H157.692V216.896H156.205V221.997C156.205 222.419 156.23 222.69 156.279 222.811C156.334 222.931 156.419 223.027 156.534 223.098C156.654 223.169 156.824 223.205 157.043 223.205C157.208 223.205 157.424 223.186 157.692 223.148ZM158.596 220.108C158.596 218.492 159.045 217.296 159.943 216.518C160.694 215.872 161.608 215.548 162.687 215.548C163.887 215.548 164.867 215.943 165.628 216.731C166.389 217.515 166.77 218.599 166.77 219.985C166.77 221.107 166.6 221.992 166.261 222.638C165.927 223.279 165.437 223.777 164.79 224.133C164.149 224.489 163.448 224.667 162.687 224.667C161.466 224.667 160.477 224.276 159.721 223.493C158.971 222.709 158.596 221.581 158.596 220.108ZM160.116 220.108C160.116 221.225 160.359 222.063 160.847 222.622C161.334 223.175 161.948 223.452 162.687 223.452C163.421 223.452 164.032 223.172 164.519 222.614C165.007 222.055 165.25 221.203 165.25 220.059C165.25 218.98 165.004 218.164 164.511 217.61C164.023 217.052 163.416 216.772 162.687 216.772C161.948 216.772 161.334 217.049 160.847 217.602C160.359 218.155 160.116 218.991 160.116 220.108ZM172.603 221.866L174.065 221.636C174.147 222.222 174.375 222.671 174.747 222.983C175.125 223.295 175.651 223.452 176.325 223.452C177.004 223.452 177.508 223.315 177.836 223.041C178.165 222.761 178.329 222.436 178.329 222.063C178.329 221.729 178.184 221.466 177.894 221.274C177.691 221.143 177.187 220.976 176.382 220.773C175.298 220.499 174.545 220.264 174.123 220.067C173.707 219.864 173.389 219.588 173.17 219.237C172.956 218.881 172.849 218.489 172.849 218.062C172.849 217.673 172.937 217.315 173.112 216.986C173.293 216.652 173.537 216.375 173.844 216.156C174.074 215.987 174.386 215.844 174.78 215.729C175.18 215.609 175.607 215.548 176.062 215.548C176.746 215.548 177.346 215.647 177.861 215.844C178.381 216.041 178.764 216.31 179.011 216.649C179.257 216.983 179.427 217.432 179.52 217.997L178.074 218.194C178.009 217.745 177.817 217.394 177.499 217.142C177.187 216.89 176.744 216.764 176.168 216.764C175.489 216.764 175.005 216.877 174.714 217.101C174.424 217.326 174.279 217.589 174.279 217.89C174.279 218.081 174.339 218.254 174.46 218.407C174.58 218.566 174.769 218.698 175.027 218.802C175.174 218.856 175.61 218.982 176.333 219.18C177.379 219.459 178.107 219.689 178.518 219.87C178.934 220.045 179.26 220.302 179.496 220.642C179.731 220.981 179.849 221.403 179.849 221.907C179.849 222.4 179.704 222.865 179.413 223.304C179.129 223.736 178.715 224.073 178.173 224.314C177.631 224.55 177.017 224.667 176.333 224.667C175.199 224.667 174.334 224.432 173.737 223.961C173.145 223.49 172.767 222.792 172.603 221.866ZM181.607 224.47V212.427H183.086V216.748C183.776 215.948 184.647 215.548 185.698 215.548C186.344 215.548 186.906 215.677 187.382 215.935C187.859 216.186 188.198 216.537 188.401 216.986C188.609 217.435 188.713 218.087 188.713 218.941V224.47H187.234V218.941C187.234 218.202 187.073 217.665 186.75 217.331C186.432 216.992 185.98 216.822 185.394 216.822C184.956 216.822 184.543 216.937 184.154 217.167C183.77 217.391 183.496 217.698 183.332 218.087C183.168 218.476 183.086 219.013 183.086 219.697V224.47H181.607ZM196.666 223.394C196.118 223.86 195.589 224.188 195.08 224.38C194.576 224.572 194.034 224.667 193.453 224.667C192.495 224.667 191.758 224.435 191.244 223.969C190.729 223.498 190.471 222.898 190.471 222.17C190.471 221.743 190.567 221.354 190.759 221.003C190.956 220.647 191.211 220.363 191.523 220.149C191.84 219.935 192.196 219.774 192.591 219.664C192.881 219.588 193.319 219.514 193.905 219.442C195.099 219.3 195.978 219.13 196.542 218.933C196.548 218.73 196.551 218.602 196.551 218.547C196.551 217.945 196.411 217.52 196.132 217.274C195.754 216.94 195.192 216.772 194.447 216.772C193.752 216.772 193.237 216.896 192.903 217.142C192.574 217.383 192.331 217.813 192.172 218.432L190.726 218.235C190.857 217.616 191.074 217.118 191.375 216.74C191.676 216.356 192.112 216.063 192.681 215.861C193.251 215.652 193.911 215.548 194.661 215.548C195.406 215.548 196.011 215.636 196.477 215.811C196.942 215.987 197.285 216.208 197.504 216.477C197.723 216.74 197.876 217.074 197.964 217.479C198.013 217.731 198.038 218.186 198.038 218.843V220.814C198.038 222.189 198.068 223.06 198.128 223.427C198.194 223.788 198.32 224.136 198.506 224.47H196.961C196.808 224.164 196.709 223.805 196.666 223.394ZM196.542 220.091C196.006 220.311 195.201 220.497 194.127 220.65C193.519 220.738 193.089 220.836 192.837 220.946C192.585 221.055 192.391 221.217 192.254 221.431C192.117 221.639 192.049 221.871 192.049 222.129C192.049 222.523 192.196 222.852 192.492 223.115C192.793 223.378 193.232 223.509 193.807 223.509C194.376 223.509 194.883 223.386 195.327 223.139C195.77 222.887 196.096 222.545 196.304 222.112C196.463 221.778 196.542 221.285 196.542 220.634V220.091ZM200.321 224.47V215.746H201.652V217.068C201.992 216.449 202.304 216.041 202.589 215.844C202.879 215.647 203.197 215.548 203.542 215.548C204.04 215.548 204.547 215.707 205.062 216.025L204.552 217.397C204.191 217.183 203.829 217.076 203.468 217.076C203.145 217.076 202.854 217.175 202.597 217.372C202.34 217.564 202.156 217.832 202.047 218.177C201.882 218.703 201.8 219.278 201.8 219.903V224.47H200.321ZM211.913 221.661L213.441 221.85C213.2 222.742 212.754 223.435 212.102 223.928C211.45 224.421 210.618 224.667 209.605 224.667C208.329 224.667 207.315 224.276 206.565 223.493C205.82 222.704 205.448 221.6 205.448 220.182C205.448 218.714 205.826 217.575 206.581 216.764C207.337 215.954 208.318 215.548 209.523 215.548C210.689 215.548 211.642 215.945 212.382 216.74C213.121 217.534 213.491 218.651 213.491 220.091C213.491 220.179 213.488 220.311 213.482 220.486H206.976C207.031 221.444 207.302 222.178 207.789 222.687C208.277 223.197 208.885 223.452 209.613 223.452C210.155 223.452 210.618 223.309 211.001 223.024C211.385 222.74 211.689 222.285 211.913 221.661ZM207.058 219.27H211.93C211.864 218.536 211.678 217.986 211.371 217.619C210.9 217.049 210.289 216.764 209.539 216.764C208.86 216.764 208.288 216.992 207.822 217.446C207.362 217.901 207.107 218.509 207.058 219.27ZM223.217 223.148L223.431 224.454C223.015 224.541 222.642 224.585 222.314 224.585C221.777 224.585 221.361 224.5 221.065 224.331C220.769 224.161 220.561 223.939 220.441 223.665C220.32 223.386 220.26 222.803 220.26 221.915V216.896H219.176V215.746H220.26V213.585L221.731 212.698V215.746H223.217V216.896H221.731V221.997C221.731 222.419 221.755 222.69 221.804 222.811C221.859 222.931 221.944 223.027 222.059 223.098C222.18 223.169 222.349 223.205 222.568 223.205C222.733 223.205 222.949 223.186 223.217 223.148ZM224.672 224.47V212.427H226.15V216.748C226.84 215.948 227.711 215.548 228.763 215.548C229.409 215.548 229.97 215.677 230.447 215.935C230.923 216.186 231.263 216.537 231.466 216.986C231.674 217.435 231.778 218.087 231.778 218.941V224.47H230.299V218.941C230.299 218.202 230.138 217.665 229.814 217.331C229.497 216.992 229.045 216.822 228.459 216.822C228.021 216.822 227.607 216.937 227.218 217.167C226.835 217.391 226.561 217.698 226.397 218.087C226.233 218.476 226.15 219.013 226.15 219.697V224.47H224.672ZM234.045 214.127V212.427H235.524V214.127H234.045ZM234.045 224.47V215.746H235.524V224.47H234.045ZM237.192 221.866L238.654 221.636C238.736 222.222 238.963 222.671 239.336 222.983C239.714 223.295 240.24 223.452 240.913 223.452C241.592 223.452 242.096 223.315 242.425 223.041C242.753 222.761 242.918 222.436 242.918 222.063C242.918 221.729 242.773 221.466 242.482 221.274C242.28 221.143 241.776 220.976 240.971 220.773C239.886 220.499 239.133 220.264 238.712 220.067C238.295 219.864 237.978 219.588 237.759 219.237C237.545 218.881 237.438 218.489 237.438 218.062C237.438 217.673 237.526 217.315 237.701 216.986C237.882 216.652 238.126 216.375 238.432 216.156C238.662 215.987 238.974 215.844 239.369 215.729C239.769 215.609 240.196 215.548 240.65 215.548C241.335 215.548 241.935 215.647 242.45 215.844C242.97 216.041 243.353 216.31 243.6 216.649C243.846 216.983 244.016 217.432 244.109 217.997L242.663 218.194C242.597 217.745 242.406 217.394 242.088 217.142C241.776 216.89 241.332 216.764 240.757 216.764C240.078 216.764 239.593 216.877 239.303 217.101C239.013 217.326 238.868 217.589 238.868 217.89C238.868 218.081 238.928 218.254 239.048 218.407C239.169 218.566 239.358 218.698 239.615 218.802C239.763 218.856 240.199 218.982 240.921 219.18C241.968 219.459 242.696 219.689 243.107 219.87C243.523 220.045 243.849 220.302 244.084 220.642C244.32 220.981 244.438 221.403 244.438 221.907C244.438 222.4 244.292 222.865 244.002 223.304C243.717 223.736 243.304 224.073 242.762 224.314C242.219 224.55 241.606 224.667 240.921 224.667C239.788 224.667 238.922 224.432 238.325 223.961C237.734 223.49 237.356 222.792 237.192 221.866ZM256.572 221.274L258.026 221.463C257.867 222.466 257.459 223.252 256.802 223.821C256.15 224.385 255.348 224.667 254.395 224.667C253.201 224.667 252.239 224.279 251.511 223.501C250.788 222.718 250.427 221.598 250.427 220.141C250.427 219.199 250.583 218.374 250.895 217.668C251.207 216.961 251.681 216.433 252.316 216.082C252.957 215.726 253.652 215.548 254.403 215.548C255.35 215.548 256.125 215.789 256.728 216.271C257.33 216.748 257.716 217.427 257.886 218.309L256.448 218.531C256.311 217.945 256.068 217.504 255.717 217.208C255.372 216.912 254.953 216.764 254.46 216.764C253.715 216.764 253.11 217.033 252.645 217.569C252.179 218.101 251.946 218.944 251.946 220.1C251.946 221.272 252.171 222.123 252.62 222.655C253.069 223.186 253.655 223.452 254.378 223.452C254.959 223.452 255.443 223.274 255.832 222.918C256.221 222.562 256.468 222.014 256.572 221.274ZM258.74 220.108C258.74 218.492 259.19 217.296 260.088 216.518C260.838 215.872 261.753 215.548 262.832 215.548C264.031 215.548 265.011 215.943 265.773 216.731C266.534 217.515 266.915 218.599 266.915 219.985C266.915 221.107 266.745 221.992 266.405 222.638C266.071 223.279 265.581 223.777 264.935 224.133C264.294 224.489 263.593 224.667 262.832 224.667C261.61 224.667 260.622 224.276 259.866 223.493C259.116 222.709 258.74 221.581 258.74 220.108ZM260.26 220.108C260.26 221.225 260.504 222.063 260.991 222.622C261.479 223.175 262.092 223.452 262.832 223.452C263.566 223.452 264.176 223.172 264.664 222.614C265.151 222.055 265.395 221.203 265.395 220.059C265.395 218.98 265.148 218.164 264.656 217.61C264.168 217.052 263.56 216.772 262.832 216.772C262.092 216.772 261.479 217.049 260.991 217.602C260.504 218.155 260.26 218.991 260.26 220.108ZM268.656 224.47V215.746H269.987V216.986C270.628 216.028 271.554 215.548 272.764 215.548C273.29 215.548 273.772 215.644 274.21 215.836C274.654 216.022 274.985 216.269 275.204 216.575C275.423 216.882 275.576 217.246 275.664 217.668C275.719 217.942 275.746 218.421 275.746 219.106V224.47H274.267V219.163C274.267 218.561 274.21 218.112 274.095 217.816C273.98 217.515 273.774 217.276 273.479 217.101C273.188 216.92 272.846 216.83 272.452 216.83C271.822 216.83 271.277 217.03 270.817 217.43C270.362 217.83 270.135 218.588 270.135 219.705V224.47H268.656ZM280.445 224.47L277.126 215.746H278.687L280.56 220.97C280.763 221.535 280.949 222.121 281.119 222.729C281.25 222.269 281.434 221.715 281.669 221.069L283.608 215.746H285.128L281.825 224.47H280.445ZM292.407 221.661L293.935 221.85C293.694 222.742 293.248 223.435 292.596 223.928C291.944 224.421 291.112 224.667 290.098 224.667C288.822 224.667 287.809 224.276 287.059 223.493C286.314 222.704 285.941 221.6 285.941 220.182C285.941 218.714 286.319 217.575 287.075 216.764C287.831 215.954 288.811 215.548 290.016 215.548C291.183 215.548 292.136 215.945 292.875 216.74C293.614 217.534 293.984 218.651 293.984 220.091C293.984 220.179 293.981 220.311 293.976 220.486H287.469C287.524 221.444 287.795 222.178 288.283 222.687C288.77 223.197 289.378 223.452 290.107 223.452C290.649 223.452 291.112 223.309 291.495 223.024C291.878 222.74 292.182 222.285 292.407 221.661ZM287.552 219.27H292.423C292.358 218.536 292.171 217.986 291.865 217.619C291.394 217.049 290.783 216.764 290.033 216.764C289.353 216.764 288.781 216.992 288.316 217.446C287.856 217.901 287.601 218.509 287.552 219.27ZM295.783 224.47V215.746H297.114V217.068C297.454 216.449 297.766 216.041 298.051 215.844C298.341 215.647 298.659 215.548 299.004 215.548C299.502 215.548 300.009 215.707 300.524 216.025L300.014 217.397C299.653 217.183 299.291 217.076 298.93 217.076C298.607 217.076 298.316 217.175 298.059 217.372C297.802 217.564 297.618 217.832 297.509 218.177C297.344 218.703 297.262 219.278 297.262 219.903V224.47H295.783ZM300.811 221.866L302.273 221.636C302.356 222.222 302.583 222.671 302.955 222.983C303.333 223.295 303.859 223.452 304.533 223.452C305.212 223.452 305.716 223.315 306.044 223.041C306.373 222.761 306.537 222.436 306.537 222.063C306.537 221.729 306.392 221.466 306.102 221.274C305.899 221.143 305.395 220.976 304.59 220.773C303.506 220.499 302.753 220.264 302.331 220.067C301.915 219.864 301.597 219.588 301.378 219.237C301.164 218.881 301.058 218.489 301.058 218.062C301.058 217.673 301.145 217.315 301.32 216.986C301.501 216.652 301.745 216.375 302.052 216.156C302.282 215.987 302.594 215.844 302.988 215.729C303.388 215.609 303.815 215.548 304.27 215.548C304.954 215.548 305.554 215.647 306.069 215.844C306.589 216.041 306.973 216.31 307.219 216.649C307.465 216.983 307.635 217.432 307.728 217.997L306.282 218.194C306.217 217.745 306.025 217.394 305.707 217.142C305.395 216.89 304.952 216.764 304.377 216.764C303.697 216.764 303.213 216.877 302.922 217.101C302.632 217.326 302.487 217.589 302.487 217.89C302.487 218.081 302.547 218.254 302.668 218.407C302.788 218.566 302.977 218.698 303.235 218.802C303.382 218.856 303.818 218.982 304.541 219.18C305.587 219.459 306.315 219.689 306.726 219.87C307.142 220.045 307.468 220.302 307.704 220.642C307.939 220.981 308.057 221.403 308.057 221.907C308.057 222.4 307.912 222.865 307.622 223.304C307.337 223.736 306.923 224.073 306.381 224.314C305.839 224.55 305.225 224.667 304.541 224.667C303.407 224.667 302.542 224.432 301.945 223.961C301.353 223.49 300.975 222.792 300.811 221.866ZM315.508 223.394C314.961 223.86 314.432 224.188 313.923 224.38C313.419 224.572 312.877 224.667 312.296 224.667C311.338 224.667 310.601 224.435 310.086 223.969C309.571 223.498 309.314 222.898 309.314 222.17C309.314 221.743 309.41 221.354 309.601 221.003C309.799 220.647 310.053 220.363 310.365 220.149C310.683 219.935 311.039 219.774 311.433 219.664C311.724 219.588 312.162 219.514 312.748 219.442C313.942 219.3 314.821 219.13 315.385 218.933C315.391 218.73 315.393 218.602 315.393 218.547C315.393 217.945 315.254 217.52 314.974 217.274C314.596 216.94 314.035 216.772 313.29 216.772C312.595 216.772 312.08 216.896 311.746 217.142C311.417 217.383 311.173 217.813 311.014 218.432L309.569 218.235C309.7 217.616 309.916 217.118 310.218 216.74C310.519 216.356 310.954 216.063 311.524 215.861C312.093 215.652 312.753 215.548 313.504 215.548C314.249 215.548 314.854 215.636 315.319 215.811C315.785 215.987 316.127 216.208 316.346 216.477C316.565 216.74 316.719 217.074 316.806 217.479C316.856 217.731 316.88 218.186 316.88 218.843V220.814C316.88 222.189 316.91 223.06 316.971 223.427C317.036 223.788 317.162 224.136 317.348 224.47H315.804C315.651 224.164 315.552 223.805 315.508 223.394ZM315.385 220.091C314.848 220.311 314.043 220.497 312.97 220.65C312.362 220.738 311.932 220.836 311.68 220.946C311.428 221.055 311.234 221.217 311.097 221.431C310.96 221.639 310.891 221.871 310.891 222.129C310.891 222.523 311.039 222.852 311.335 223.115C311.636 223.378 312.074 223.509 312.649 223.509C313.219 223.509 313.726 223.386 314.169 223.139C314.613 222.887 314.939 222.545 315.147 222.112C315.306 221.778 315.385 221.285 315.385 220.634V220.091ZM322.409 223.148L322.623 224.454C322.206 224.541 321.834 224.585 321.505 224.585C320.969 224.585 320.552 224.5 320.257 224.331C319.961 224.161 319.753 223.939 319.632 223.665C319.512 223.386 319.452 222.803 319.452 221.915V216.896H318.367V215.746H319.452V213.585L320.922 212.698V215.746H322.409V216.896H320.922V221.997C320.922 222.419 320.947 222.69 320.996 222.811C321.051 222.931 321.136 223.027 321.251 223.098C321.371 223.169 321.541 223.205 321.76 223.205C321.924 223.205 322.141 223.186 322.409 223.148ZM323.871 214.127V212.427H325.35V214.127H323.871ZM323.871 224.47V215.746H325.35V224.47H323.871ZM327.059 220.108C327.059 218.492 327.508 217.296 328.406 216.518C329.157 215.872 330.071 215.548 331.15 215.548C332.35 215.548 333.33 215.943 334.091 216.731C334.853 217.515 335.233 218.599 335.233 219.985C335.233 221.107 335.063 221.992 334.724 222.638C334.39 223.279 333.9 223.777 333.253 224.133C332.613 224.489 331.911 224.667 331.15 224.667C329.929 224.667 328.94 224.276 328.184 223.493C327.434 222.709 327.059 221.581 327.059 220.108ZM328.579 220.108C328.579 221.225 328.823 222.063 329.31 222.622C329.797 223.175 330.411 223.452 331.15 223.452C331.884 223.452 332.495 223.172 332.982 222.614C333.47 222.055 333.713 221.203 333.713 220.059C333.713 218.98 333.467 218.164 332.974 217.61C332.487 217.052 331.879 216.772 331.15 216.772C330.411 216.772 329.797 217.049 329.31 217.602C328.823 218.155 328.579 218.991 328.579 220.108ZM336.975 224.47V215.746H338.306V216.986C338.947 216.028 339.872 215.548 341.083 215.548C341.608 215.548 342.09 215.644 342.528 215.836C342.972 216.022 343.303 216.269 343.522 216.575C343.742 216.882 343.895 217.246 343.983 217.668C344.037 217.942 344.065 218.421 344.065 219.106V224.47H342.586V219.163C342.586 218.561 342.528 218.112 342.413 217.816C342.298 217.515 342.093 217.276 341.797 217.101C341.507 216.92 341.165 216.83 340.77 216.83C340.14 216.83 339.596 217.03 339.135 217.43C338.681 217.83 338.454 218.588 338.454 219.705V224.47H336.975ZM356.716 223.394C356.169 223.86 355.64 224.188 355.131 224.38C354.627 224.572 354.085 224.667 353.504 224.667C352.546 224.667 351.809 224.435 351.294 223.969C350.779 223.498 350.522 222.898 350.522 222.17C350.522 221.743 350.618 221.354 350.809 221.003C351.007 220.647 351.261 220.363 351.573 220.149C351.891 219.935 352.247 219.774 352.641 219.664C352.932 219.588 353.37 219.514 353.956 219.442C355.15 219.3 356.029 219.13 356.593 218.933C356.598 218.73 356.601 218.602 356.601 218.547C356.601 217.945 356.462 217.52 356.182 217.274C355.804 216.94 355.243 216.772 354.498 216.772C353.803 216.772 353.288 216.896 352.954 217.142C352.625 217.383 352.381 217.813 352.222 218.432L350.777 218.235C350.908 217.616 351.124 217.118 351.426 216.74C351.727 216.356 352.162 216.063 352.732 215.861C353.301 215.652 353.961 215.548 354.712 215.548C355.457 215.548 356.062 215.636 356.527 215.811C356.993 215.987 357.335 216.208 357.554 216.477C357.773 216.74 357.927 217.074 358.014 217.479C358.064 217.731 358.088 218.186 358.088 218.843V220.814C358.088 222.189 358.118 223.06 358.179 223.427C358.244 223.788 358.37 224.136 358.556 224.47H357.012C356.859 224.164 356.76 223.805 356.716 223.394ZM356.593 220.091C356.056 220.311 355.251 220.497 354.178 220.65C353.57 220.738 353.14 220.836 352.888 220.946C352.636 221.055 352.442 221.217 352.305 221.431C352.168 221.639 352.099 221.871 352.099 222.129C352.099 222.523 352.247 222.852 352.543 223.115C352.844 223.378 353.282 223.509 353.857 223.509C354.427 223.509 354.934 223.386 355.377 223.139C355.821 222.887 356.147 222.545 356.355 222.112C356.514 221.778 356.593 221.285 356.593 220.634V220.091ZM359.797 221.866L361.259 221.636C361.341 222.222 361.569 222.671 361.941 222.983C362.319 223.295 362.845 223.452 363.519 223.452C364.198 223.452 364.702 223.315 365.03 223.041C365.359 222.761 365.523 222.436 365.523 222.063C365.523 221.729 365.378 221.466 365.088 221.274C364.885 221.143 364.381 220.976 363.576 220.773C362.492 220.499 361.739 220.264 361.317 220.067C360.901 219.864 360.583 219.588 360.364 219.237C360.15 218.881 360.043 218.489 360.043 218.062C360.043 217.673 360.131 217.315 360.306 216.986C360.487 216.652 360.731 216.375 361.037 216.156C361.268 215.987 361.58 215.844 361.974 215.729C362.374 215.609 362.801 215.548 363.256 215.548C363.94 215.548 364.54 215.647 365.055 215.844C365.575 216.041 365.958 216.31 366.205 216.649C366.451 216.983 366.621 217.432 366.714 217.997L365.268 218.194C365.203 217.745 365.011 217.394 364.693 217.142C364.381 216.89 363.937 216.764 363.362 216.764C362.683 216.764 362.199 216.877 361.908 217.101C361.618 217.326 361.473 217.589 361.473 217.89C361.473 218.081 361.533 218.254 361.654 218.407C361.774 218.566 361.963 218.698 362.22 218.802C362.368 218.856 362.804 218.982 363.527 219.18C364.573 219.459 365.301 219.689 365.712 219.87C366.128 220.045 366.454 220.302 366.69 220.642C366.925 220.981 367.043 221.403 367.043 221.907C367.043 222.4 366.898 222.865 366.607 223.304C366.323 223.736 365.909 224.073 365.367 224.314C364.825 224.55 364.211 224.667 363.527 224.667C362.393 224.667 361.528 224.432 360.931 223.961C360.339 223.49 359.961 222.792 359.797 221.866ZM379.177 223.394C378.629 223.86 378.101 224.188 377.591 224.38C377.087 224.572 376.545 224.667 375.965 224.667C375.006 224.667 374.27 224.435 373.755 223.969C373.24 223.498 372.983 222.898 372.983 222.17C372.983 221.743 373.078 221.354 373.27 221.003C373.467 220.647 373.722 220.363 374.034 220.149C374.352 219.935 374.708 219.774 375.102 219.664C375.392 219.588 375.831 219.514 376.417 219.442C377.61 219.3 378.49 219.13 379.054 218.933C379.059 218.73 379.062 218.602 379.062 218.547C379.062 217.945 378.922 217.52 378.643 217.274C378.265 216.94 377.704 216.772 376.959 216.772C376.263 216.772 375.748 216.896 375.414 217.142C375.086 217.383 374.842 217.813 374.683 218.432L373.237 218.235C373.369 217.616 373.585 217.118 373.886 216.74C374.187 216.356 374.623 216.063 375.192 215.861C375.762 215.652 376.422 215.548 377.172 215.548C377.917 215.548 378.522 215.636 378.988 215.811C379.453 215.987 379.796 216.208 380.015 216.477C380.234 216.74 380.387 217.074 380.475 217.479C380.524 217.731 380.549 218.186 380.549 218.843V220.814C380.549 222.189 380.579 223.06 380.639 223.427C380.705 223.788 380.831 224.136 381.017 224.47H379.473C379.319 224.164 379.221 223.805 379.177 223.394ZM379.054 220.091C378.517 220.311 377.712 220.497 376.638 220.65C376.03 220.738 375.6 220.836 375.349 220.946C375.097 221.055 374.902 221.217 374.765 221.431C374.628 221.639 374.56 221.871 374.56 222.129C374.56 222.523 374.708 222.852 375.004 223.115C375.305 223.378 375.743 223.509 376.318 223.509C376.888 223.509 377.394 223.386 377.838 223.139C378.281 222.887 378.607 222.545 378.815 222.112C378.974 221.778 379.054 221.285 379.054 220.634V220.091ZM56.1839 243.47V231.427H57.6626V238.295L61.1623 234.746H63.0765L59.7411 237.982L63.4133 243.47H61.5895L58.706 239.009L57.6626 240.012V243.47H56.1839ZM64.5881 243.47V234.746H65.919V235.986C66.5598 235.028 67.4854 234.548 68.6958 234.548C69.2216 234.548 69.7035 234.644 70.1417 234.836C70.5853 235.022 70.9167 235.269 71.1357 235.575C71.3548 235.882 71.5082 236.246 71.5958 236.668C71.6506 236.942 71.6779 237.421 71.6779 238.106V243.47H70.1992V238.163C70.1992 237.561 70.1417 237.112 70.0267 236.816C69.9116 236.515 69.7063 236.276 69.4105 236.101C69.1202 235.92 68.7779 235.83 68.3836 235.83C67.7538 235.83 67.2088 236.03 66.7488 236.43C66.2942 236.83 66.0669 237.588 66.0669 238.705V243.47H64.5881ZM73.4032 239.108C73.4032 237.492 73.8523 236.296 74.7505 235.518C75.5008 234.872 76.4154 234.548 77.4944 234.548C78.6938 234.548 79.6742 234.943 80.4355 235.731C81.1967 236.515 81.5774 237.599 81.5774 238.985C81.5774 240.107 81.4076 240.992 81.068 241.638C80.7339 242.279 80.2438 242.777 79.5975 243.133C78.9567 243.489 78.2557 243.667 77.4944 243.667C76.273 243.667 75.2845 243.276 74.5287 242.493C73.7783 241.709 73.4032 240.581 73.4032 239.108ZM74.923 239.108C74.923 240.225 75.1667 241.063 75.6541 241.622C76.1416 242.175 76.755 242.452 77.4944 242.452C78.2283 242.452 78.8389 242.172 79.3264 241.614C79.8138 241.055 80.0576 240.203 80.0576 239.059C80.0576 237.98 79.8111 237.164 79.3182 236.61C78.8307 236.052 78.2228 235.772 77.4944 235.772C76.755 235.772 76.1416 236.049 75.6541 236.602C75.1667 237.155 74.923 237.991 74.923 239.108ZM84.9292 243.47L82.2593 234.746H83.7873L85.1757 239.782L85.6933 241.655C85.7152 241.562 85.8658 240.962 86.1451 239.855L87.5335 234.746H89.0533L90.3595 239.806L90.795 241.474L91.2961 239.79L92.7913 234.746H94.229L91.5015 243.47H89.9652L88.5768 238.245L88.24 236.758L86.4737 243.47H84.9292ZM95.4448 243.47V231.427H96.9236V243.47H95.4448ZM105.196 240.661L106.724 240.85C106.483 241.742 106.037 242.435 105.385 242.928C104.734 243.421 103.901 243.667 102.888 243.667C101.612 243.667 100.599 243.276 99.8482 242.493C99.1034 241.704 98.7309 240.6 98.7309 239.182C98.7309 237.714 99.1089 236.575 99.8647 235.764C100.62 234.954 101.601 234.548 102.806 234.548C103.972 234.548 104.925 234.945 105.665 235.74C106.404 236.534 106.774 237.651 106.774 239.091C106.774 239.179 106.771 239.311 106.766 239.486H100.259C100.314 240.444 100.585 241.178 101.072 241.687C101.56 242.197 102.168 242.452 102.896 242.452C103.438 242.452 103.901 242.309 104.284 242.024C104.668 241.74 104.972 241.285 105.196 240.661ZM100.341 238.27H105.213C105.147 237.536 104.961 236.986 104.654 236.619C104.183 236.049 103.573 235.764 102.822 235.764C102.143 235.764 101.571 235.992 101.105 236.446C100.645 236.901 100.39 237.509 100.341 238.27ZM114.25 243.47V242.369C113.696 243.235 112.883 243.667 111.81 243.667C111.114 243.667 110.473 243.476 109.887 243.092C109.307 242.709 108.855 242.175 108.532 241.49C108.214 240.8 108.055 240.009 108.055 239.116C108.055 238.245 108.2 237.457 108.491 236.75C108.781 236.038 109.216 235.493 109.797 235.115C110.378 234.737 111.027 234.548 111.744 234.548C112.27 234.548 112.738 234.661 113.149 234.885C113.56 235.104 113.894 235.392 114.151 235.748V231.427H115.622V243.47H114.25ZM109.575 239.116C109.575 240.233 109.811 241.069 110.282 241.622C110.753 242.175 111.309 242.452 111.949 242.452C112.596 242.452 113.143 242.189 113.592 241.663C114.047 241.132 114.274 240.324 114.274 239.239C114.274 238.045 114.044 237.169 113.584 236.61C113.124 236.052 112.557 235.772 111.884 235.772C111.226 235.772 110.676 236.041 110.232 236.578C109.794 237.114 109.575 237.96 109.575 239.116ZM117.684 244.193L119.121 244.407C119.182 244.85 119.349 245.174 119.622 245.376C119.989 245.65 120.491 245.787 121.126 245.787C121.81 245.787 122.339 245.65 122.711 245.376C123.084 245.102 123.336 244.719 123.467 244.226C123.544 243.925 123.58 243.292 123.574 242.328C122.928 243.09 122.123 243.47 121.159 243.47C119.959 243.47 119.031 243.038 118.374 242.172C117.717 241.307 117.388 240.269 117.388 239.059C117.388 238.226 117.539 237.459 117.84 236.758C118.141 236.052 118.576 235.507 119.146 235.123C119.721 234.74 120.395 234.548 121.167 234.548C122.197 234.548 123.046 234.965 123.714 235.797V234.746H125.077V242.287C125.077 243.645 124.938 244.607 124.658 245.171C124.385 245.74 123.946 246.189 123.344 246.518C122.747 246.847 122.01 247.011 121.134 247.011C120.093 247.011 119.253 246.776 118.612 246.304C117.971 245.839 117.662 245.135 117.684 244.193ZM118.908 238.952C118.908 240.096 119.135 240.932 119.59 241.457C120.044 241.983 120.614 242.246 121.298 242.246C121.978 242.246 122.547 241.986 123.007 241.466C123.467 240.94 123.697 240.118 123.697 239.001C123.697 237.933 123.459 237.128 122.983 236.586C122.512 236.044 121.942 235.772 121.274 235.772C120.617 235.772 120.058 236.041 119.598 236.578C119.138 237.109 118.908 237.9 118.908 238.952ZM133.293 240.661L134.821 240.85C134.58 241.742 134.133 242.435 133.482 242.928C132.83 243.421 131.997 243.667 130.984 243.667C129.708 243.667 128.695 243.276 127.945 242.493C127.2 241.704 126.827 240.6 126.827 239.182C126.827 237.714 127.205 236.575 127.961 235.764C128.717 234.954 129.697 234.548 130.902 234.548C132.069 234.548 133.022 234.945 133.761 235.74C134.5 236.534 134.87 237.651 134.87 239.091C134.87 239.179 134.867 239.311 134.862 239.486H128.355C128.41 240.444 128.681 241.178 129.169 241.687C129.656 242.197 130.264 242.452 130.992 242.452C131.535 242.452 131.997 242.309 132.381 242.024C132.764 241.74 133.068 241.285 133.293 240.661ZM128.437 238.27H133.309C133.243 237.536 133.057 236.986 132.751 236.619C132.28 236.049 131.669 235.764 130.919 235.764C130.239 235.764 129.667 235.992 129.202 236.446C128.741 236.901 128.487 237.509 128.437 238.27ZM147.062 242.394C146.514 242.86 145.985 243.188 145.476 243.38C144.972 243.572 144.43 243.667 143.849 243.667C142.891 243.667 142.154 243.435 141.639 242.969C141.125 242.498 140.867 241.898 140.867 241.17C140.867 240.743 140.963 240.354 141.155 240.003C141.352 239.647 141.607 239.363 141.919 239.149C142.236 238.935 142.592 238.774 142.987 238.664C143.277 238.588 143.715 238.514 144.301 238.442C145.495 238.3 146.374 238.13 146.938 237.933C146.944 237.73 146.947 237.602 146.947 237.547C146.947 236.945 146.807 236.52 146.528 236.274C146.15 235.94 145.588 235.772 144.843 235.772C144.148 235.772 143.633 235.896 143.299 236.142C142.97 236.383 142.727 236.813 142.568 237.432L141.122 237.235C141.253 236.616 141.47 236.118 141.771 235.74C142.072 235.356 142.508 235.063 143.077 234.861C143.647 234.652 144.307 234.548 145.057 234.548C145.802 234.548 146.407 234.636 146.873 234.811C147.338 234.987 147.68 235.208 147.9 235.477C148.119 235.74 148.272 236.074 148.36 236.479C148.409 236.731 148.434 237.186 148.434 237.843V239.814C148.434 241.189 148.464 242.06 148.524 242.427C148.59 242.788 148.716 243.136 148.902 243.47H147.357C147.204 243.164 147.105 242.805 147.062 242.394ZM146.938 239.091C146.402 239.311 145.597 239.497 144.523 239.65C143.915 239.738 143.485 239.836 143.233 239.946C142.981 240.055 142.787 240.217 142.65 240.431C142.513 240.639 142.445 240.871 142.445 241.129C142.445 241.523 142.592 241.852 142.888 242.115C143.189 242.378 143.628 242.509 144.203 242.509C144.772 242.509 145.279 242.386 145.723 242.139C146.166 241.887 146.492 241.545 146.7 241.112C146.859 240.778 146.938 240.285 146.938 239.634V239.091ZM150.717 243.47V234.746H152.048V236.068C152.388 235.449 152.7 235.041 152.985 234.844C153.275 234.647 153.593 234.548 153.938 234.548C154.436 234.548 154.943 234.707 155.458 235.025L154.948 236.397C154.587 236.183 154.225 236.076 153.864 236.076C153.541 236.076 153.25 236.175 152.993 236.372C152.736 236.564 152.552 236.832 152.443 237.177C152.278 237.703 152.196 238.278 152.196 238.903V243.47H150.717ZM159.565 242.148L159.779 243.454C159.363 243.541 158.99 243.585 158.662 243.585C158.125 243.585 157.709 243.5 157.413 243.331C157.117 243.161 156.909 242.939 156.789 242.665C156.668 242.386 156.608 241.803 156.608 240.915V235.896H155.523V234.746H156.608V232.585L158.078 231.698V234.746H159.565V235.896H158.078V240.997C158.078 241.419 158.103 241.69 158.152 241.811C158.207 241.931 158.292 242.027 158.407 242.098C158.527 242.169 158.697 242.205 158.916 242.205C159.081 242.205 159.297 242.186 159.565 242.148ZM161.028 233.127V231.427H162.506V233.127H161.028ZM161.028 243.47V234.746H162.506V243.47H161.028ZM170.459 240.274L171.913 240.463C171.754 241.466 171.346 242.252 170.689 242.821C170.037 243.385 169.235 243.667 168.282 243.667C167.088 243.667 166.127 243.279 165.398 242.501C164.675 241.718 164.314 240.598 164.314 239.141C164.314 238.199 164.47 237.374 164.782 236.668C165.094 235.961 165.568 235.433 166.203 235.082C166.844 234.726 167.54 234.548 168.29 234.548C169.237 234.548 170.012 234.789 170.615 235.271C171.217 235.748 171.603 236.427 171.773 237.309L170.336 237.531C170.199 236.945 169.955 236.504 169.604 236.208C169.259 235.912 168.84 235.764 168.347 235.764C167.603 235.764 166.997 236.033 166.532 236.569C166.066 237.101 165.834 237.944 165.834 239.1C165.834 240.272 166.058 241.123 166.507 241.655C166.956 242.186 167.542 242.452 168.265 242.452C168.846 242.452 169.331 242.274 169.719 241.918C170.108 241.562 170.355 241.014 170.459 240.274ZM173.145 243.47V231.427H174.624V243.47H173.145ZM182.897 240.661L184.425 240.85C184.184 241.742 183.737 242.435 183.086 242.928C182.434 243.421 181.601 243.667 180.588 243.667C179.312 243.667 178.299 243.276 177.549 242.493C176.804 241.704 176.431 240.6 176.431 239.182C176.431 237.714 176.809 236.575 177.565 235.764C178.321 234.954 179.301 234.548 180.506 234.548C181.673 234.548 182.626 234.945 183.365 235.74C184.104 236.534 184.474 237.651 184.474 239.091C184.474 239.179 184.471 239.311 184.466 239.486H177.959C178.014 240.444 178.285 241.178 178.773 241.687C179.26 242.197 179.868 242.452 180.596 242.452C181.139 242.452 181.601 242.309 181.985 242.024C182.368 241.74 182.672 241.285 182.897 240.661ZM178.042 238.27H182.913C182.847 237.536 182.661 236.986 182.355 236.619C181.884 236.049 181.273 235.764 180.523 235.764C179.843 235.764 179.271 235.992 178.806 236.446C178.345 236.901 178.091 237.509 178.042 238.27ZM189.058 240.504C189.053 240.307 189.05 240.159 189.05 240.061C189.05 239.48 189.132 238.979 189.296 238.557C189.417 238.24 189.611 237.919 189.88 237.596C190.077 237.361 190.43 237.018 190.94 236.569C191.454 236.115 191.788 235.753 191.942 235.485C192.095 235.217 192.172 234.924 192.172 234.606C192.172 234.031 191.947 233.527 191.498 233.094C191.049 232.656 190.499 232.437 189.847 232.437C189.217 232.437 188.691 232.634 188.27 233.029C187.848 233.423 187.571 234.039 187.44 234.877L185.92 234.696C186.057 233.574 186.462 232.714 187.136 232.117C187.815 231.52 188.71 231.221 189.822 231.221C191 231.221 191.939 231.542 192.64 232.182C193.341 232.823 193.692 233.598 193.692 234.507C193.692 235.033 193.568 235.518 193.322 235.961C193.076 236.405 192.594 236.945 191.876 237.58C191.394 238.007 191.079 238.322 190.931 238.525C190.783 238.727 190.674 238.96 190.603 239.223C190.532 239.486 190.49 239.913 190.479 240.504H189.058ZM188.968 243.47V241.786H190.652V243.47H188.968Z" fill="#0C0D0E"/><rect x="56.259" y="264.194" width="167.499" height="43.499" rx="9.161" fill="#BAC0C5"/><rect x="56.259" y="264.194" width="167.499" height="43.499" rx="9.161" stroke="#A7AEB4" stroke-width="2.386"/><path d="M72.7821 291.943V286.841L68.5758 280.088H70.26L73.4557 285.354H73.5872L76.7829 280.088H78.4671L74.2608 286.841V291.943H72.7821ZM82.5829 292.099C80.0526 292.099 78.5246 290.325 78.5246 287.548V287.54C78.5246 284.804 80.0855 282.931 82.4926 282.931C84.8996 282.931 86.362 284.722 86.362 287.367V287.926H79.9869C80.028 289.758 81.0384 290.826 82.6158 290.826C83.8152 290.826 84.5546 290.259 84.7928 289.725L84.8257 289.651H86.2552L86.2387 289.717C85.9348 290.916 84.6696 292.099 82.5829 292.099ZM82.4843 284.204C81.1699 284.204 80.1676 285.1 80.0115 286.784H84.9079C84.76 285.034 83.7906 284.204 82.4843 284.204ZM91.6198 292.099C89.6481 292.099 88.2926 291.146 88.1283 289.684H89.5906C89.8288 290.423 90.5353 290.908 91.6691 290.908C92.8603 290.908 93.7065 290.341 93.7065 289.536V289.52C93.7065 288.92 93.2546 288.501 92.162 288.238L90.79 287.909C89.1305 287.515 88.3829 286.792 88.3829 285.519V285.511C88.3829 284.04 89.796 282.931 91.6773 282.931C93.5339 282.931 94.8237 283.859 95.0209 285.305H93.6161C93.4271 284.607 92.737 284.122 91.6691 284.122C90.6175 284.122 89.8453 284.664 89.8453 285.445V285.461C89.8453 286.061 90.2889 286.439 91.3322 286.694L92.696 287.022C94.3637 287.425 95.1688 288.148 95.1688 289.413V289.429C95.1688 291.007 93.6325 292.099 91.6198 292.099ZM97.0254 294.958L97.7402 290.284H99.375L98.0852 294.958H97.0254ZM107.196 291.943V279.571H108.625V284.418H108.757C109.201 283.481 110.03 282.931 111.337 282.931C113.325 282.931 114.434 284.106 114.434 286.209V291.943H113.004V286.554C113.004 284.96 112.347 284.196 110.934 284.196C109.521 284.196 108.625 285.149 108.625 286.702V291.943H107.196ZM120.636 292.099C118.106 292.099 116.578 290.325 116.578 287.548V287.54C116.578 284.804 118.139 282.931 120.546 282.931C122.953 282.931 124.415 284.722 124.415 287.367V287.926H118.04C118.081 289.758 119.092 290.826 120.669 290.826C121.869 290.826 122.608 290.259 122.846 289.725L122.879 289.651H124.308L124.292 289.717C123.988 290.916 122.723 292.099 120.636 292.099ZM120.538 284.204C119.223 284.204 118.221 285.1 118.065 286.784H122.961C122.813 285.034 121.844 284.204 120.538 284.204ZM126.716 291.943V279.571H128.145V291.943H126.716ZM130.889 294.901V283.087H132.318V284.5H132.45C132.992 283.514 133.978 282.931 135.21 282.931C137.453 282.931 138.924 284.747 138.924 287.507V287.523C138.924 290.3 137.461 292.099 135.21 292.099C133.994 292.099 132.935 291.491 132.45 290.547H132.318V294.901H130.889ZM134.882 290.834C136.5 290.834 137.461 289.585 137.461 287.523V287.507C137.461 285.445 136.5 284.196 134.882 284.196C133.271 284.196 132.286 285.461 132.286 287.507V287.523C132.286 289.569 133.271 290.834 134.882 290.834ZM145.89 291.943V283.087H147.32V284.434H147.451C147.845 283.481 148.683 282.931 149.842 282.931C151.041 282.931 151.879 283.564 152.29 284.484H152.421C152.898 283.547 153.908 282.931 155.132 282.931C156.94 282.931 157.95 283.966 157.95 285.823V291.943H156.521V286.151C156.521 284.845 155.921 284.196 154.672 284.196C153.44 284.196 152.627 285.124 152.627 286.25V291.943H151.197V285.93C151.197 284.878 150.474 284.196 149.357 284.196C148.199 284.196 147.32 285.207 147.32 286.455V291.943H145.89ZM164.144 292.099C161.614 292.099 160.086 290.325 160.086 287.548V287.54C160.086 284.804 161.647 282.931 164.054 282.931C166.461 282.931 167.924 284.722 167.924 287.367V287.926H161.548C161.59 289.758 162.6 290.826 164.177 290.826C165.377 290.826 166.116 290.259 166.354 289.725L166.387 289.651H167.817L167.8 289.717C167.496 290.916 166.231 292.099 164.144 292.099ZM164.046 284.204C162.731 284.204 161.729 285.1 161.573 286.784H166.469C166.322 285.034 165.352 284.204 164.046 284.204ZM178.143 292.099C175.901 292.099 174.43 290.284 174.43 287.523V287.507C174.43 284.73 175.892 282.931 178.143 282.931C179.359 282.931 180.419 283.539 180.904 284.484H181.035V279.571H182.465V291.943H181.035V290.53H180.904C180.362 291.516 179.376 292.099 178.143 292.099ZM178.472 290.834C180.082 290.834 181.068 289.569 181.068 287.523V287.507C181.068 285.461 180.082 284.196 178.472 284.196C176.854 284.196 175.892 285.445 175.892 287.507V287.523C175.892 289.585 176.854 290.834 178.472 290.834ZM185.209 291.943V283.087H186.638V284.401H186.769C187.106 283.473 187.936 282.931 189.135 282.931C189.407 282.931 189.711 282.964 189.85 282.988V284.377C189.554 284.328 189.283 284.295 188.971 284.295C187.607 284.295 186.638 285.157 186.638 286.455V291.943H185.209ZM194.048 292.099C192.364 292.099 191.091 291.081 191.091 289.47V289.454C191.091 287.877 192.257 286.965 194.319 286.841L196.858 286.685V285.88C196.858 284.788 196.192 284.196 194.87 284.196C193.81 284.196 193.112 284.59 192.882 285.281L192.873 285.305H191.444L191.452 285.256C191.682 283.867 193.03 282.931 194.919 282.931C197.08 282.931 198.287 284.04 198.287 285.88V291.943H196.858V290.637H196.726C196.168 291.582 195.239 292.099 194.048 292.099ZM192.553 289.437C192.553 290.333 193.317 290.859 194.344 290.859C195.798 290.859 196.858 289.906 196.858 288.641V287.835L194.492 287.983C193.145 288.065 192.553 288.542 192.553 289.421V289.437ZM201.491 291.943V284.27H200.021V283.087H201.491V282.101C201.491 280.335 202.379 279.489 204.063 279.489C204.408 279.489 204.72 279.513 205.016 279.571V280.713C204.843 280.68 204.605 280.672 204.35 280.672C203.332 280.672 202.921 281.173 202.921 282.142V283.087H204.934V284.27H202.921V291.943H201.491ZM210.142 292.009C208.318 292.009 207.554 291.335 207.554 289.643V284.27H206.158V283.087H207.554V280.795H209.033V283.087H210.972V284.27H209.033V289.281C209.033 290.325 209.394 290.744 210.315 290.744C210.569 290.744 210.709 290.735 210.972 290.711V291.927C210.692 291.976 210.421 292.009 210.142 292.009Z" fill="#0C0D0E"/><rect x="239.861" y="263.001" width="105.885" height="45.885" rx="10.354" fill="#BAC0C5"/><path d="M254.315 291.943V280.089H255.753L262.185 289.314H262.317V280.089H263.779V291.943H262.341L255.909 282.75H255.777V291.943H254.315ZM270.261 292.099C267.739 292.099 266.178 290.358 266.178 287.523V287.507C266.178 284.664 267.739 282.931 270.261 282.931C272.783 282.931 274.344 284.664 274.344 287.507V287.523C274.344 290.358 272.783 292.099 270.261 292.099ZM270.261 290.834C271.937 290.834 272.881 289.61 272.881 287.523V287.507C272.881 285.412 271.937 284.196 270.261 284.196C268.585 284.196 267.64 285.412 267.64 287.507V287.523C267.64 289.61 268.585 290.834 270.261 290.834ZM284.44 292.009C282.617 292.009 281.853 291.335 281.853 289.643V284.27H280.456V283.087H281.853V280.795H283.331V283.087H285.27V284.27H283.331V289.281C283.331 290.325 283.693 290.744 284.613 290.744C284.868 290.744 285.007 290.736 285.27 290.711V291.927C284.991 291.976 284.72 292.009 284.44 292.009ZM287.488 291.943V279.571H288.918V284.418H289.049C289.493 283.481 290.323 282.931 291.629 282.931C293.617 282.931 294.726 284.106 294.726 286.209V291.943H293.296V286.554C293.296 284.96 292.639 284.196 291.226 284.196C289.813 284.196 288.918 285.149 288.918 286.702V291.943H287.488ZM299.746 292.099C298.061 292.099 296.788 291.081 296.788 289.47V289.454C296.788 287.877 297.955 286.965 300.017 286.842L302.555 286.685V285.88C302.555 284.788 301.89 284.196 300.567 284.196C299.507 284.196 298.809 284.591 298.579 285.281L298.571 285.305H297.141L297.149 285.256C297.379 283.868 298.727 282.931 300.616 282.931C302.777 282.931 303.985 284.04 303.985 285.88V291.943H302.555V290.637H302.424C301.865 291.582 300.937 292.099 299.746 292.099ZM298.25 289.438C298.25 290.333 299.014 290.859 300.041 290.859C301.495 290.859 302.555 289.906 302.555 288.641V287.836L300.189 287.983C298.842 288.066 298.25 288.542 298.25 289.421V289.438ZM306.597 291.943V283.087H308.027V284.418H308.158C308.602 283.481 309.431 282.931 310.738 282.931C312.726 282.931 313.835 284.106 313.835 286.209V291.943H312.405V286.554C312.405 284.96 311.748 284.196 310.335 284.196C308.922 284.196 308.027 285.149 308.027 286.702V291.943H306.597ZM316.505 291.943V279.571H317.934V286.957H318.066L321.894 283.087H323.627L319.766 286.809L323.882 291.943H322.083L318.764 287.778L317.934 288.583V291.943H316.505ZM328.269 292.099C326.297 292.099 324.942 291.146 324.778 289.684H326.24C326.478 290.423 327.185 290.908 328.318 290.908C329.51 290.908 330.356 290.341 330.356 289.536V289.52C330.356 288.92 329.904 288.501 328.811 288.238L327.439 287.91C325.78 287.515 325.032 286.792 325.032 285.519V285.511C325.032 284.04 326.445 282.931 328.327 282.931C330.183 282.931 331.473 283.859 331.67 285.305H330.265C330.076 284.607 329.386 284.122 328.318 284.122C327.267 284.122 326.495 284.664 326.495 285.445V285.461C326.495 286.061 326.938 286.439 327.982 286.694L329.345 287.022C331.013 287.425 331.818 288.148 331.818 289.413V289.429C331.818 291.007 330.282 292.099 328.269 292.099Z" fill="#0C0D0E"/><rect x="32.5" y="47.5" width="440" height="132" rx="15.5" fill="#E3E6E8"/><rect x="32.5" y="47.5" width="440" height="132" rx="15.5" stroke="#BAC0C5"/><path d="M58.9699 84.7075L55.7413 72.8528H57.2858L59.6436 82.4893H59.7422L62.3957 72.8528H63.8909L66.5445 82.4893H66.643L69.0008 72.8528H70.5453L67.3167 84.7075H65.9201L63.1926 75.3502H63.094L60.3665 84.7075H58.9699ZM72.6977 84.7075V72.3352H74.1272V77.1822H74.2586C74.7023 76.2457 75.532 75.6953 76.8382 75.6953C78.8263 75.6953 79.9354 76.8701 79.9354 78.9732V84.7075H78.5059V79.3182C78.5059 77.7244 77.8487 76.9604 76.4357 76.9604C75.0227 76.9604 74.1272 77.9134 74.1272 79.4661V84.7075H72.6977ZM84.955 84.8635C83.2708 84.8635 81.9975 83.8449 81.9975 82.2347V82.2182C81.9975 80.6409 83.164 79.729 85.2261 79.6058L87.7646 79.4497V78.6446C87.7646 77.5519 87.0992 76.9604 85.7765 76.9604C84.7167 76.9604 84.0184 77.3548 83.7884 78.0448L83.7802 78.0695H82.3507L82.3589 78.0202C82.589 76.6318 83.9363 75.6953 85.8258 75.6953C87.9864 75.6953 89.1941 76.8043 89.1941 78.6446V84.7075H87.7646V83.4012H87.6332C87.0745 84.346 86.1462 84.8635 84.955 84.8635ZM83.4598 82.2018C83.4598 83.0973 84.2238 83.623 85.2507 83.623C86.7048 83.623 87.7646 82.6701 87.7646 81.4049V80.5998L85.3986 80.7477C84.0513 80.8298 83.4598 81.3063 83.4598 82.1854V82.2018ZM94.953 84.7732C93.1292 84.7732 92.3652 84.0995 92.3652 82.4072V77.0344H90.9686V75.8514H92.3652V73.5593H93.8439V75.8514H95.7827V77.0344H93.8439V82.0457C93.8439 83.089 94.2054 83.508 95.1255 83.508C95.3802 83.508 95.5198 83.4998 95.7827 83.4752V84.691C95.5034 84.7403 95.2323 84.7732 94.953 84.7732ZM104.36 84.7075L101.878 75.8514H103.308L105.05 82.933H105.181L107.161 75.8514H108.516L110.496 82.933H110.628L112.369 75.8514H113.791L111.31 84.7075H109.872L107.892 77.8559H107.761L105.789 84.7075H104.36ZM118.991 84.8635C116.469 84.8635 114.908 83.1219 114.908 80.2876V80.2712C114.908 77.4287 116.469 75.6953 118.991 75.6953C121.513 75.6953 123.074 77.4287 123.074 80.2712V80.2876C123.074 83.1219 121.513 84.8635 118.991 84.8635ZM118.991 83.5984C120.667 83.5984 121.612 82.3743 121.612 80.2876V80.2712C121.612 78.1763 120.667 76.9604 118.991 76.9604C117.315 76.9604 116.37 78.1763 116.37 80.2712V80.2876C116.37 82.3743 117.315 83.5984 118.991 83.5984ZM128.258 84.8635C126.245 84.8635 125.21 83.6805 125.21 81.5856V75.8514H126.639V81.2406C126.639 82.8344 127.215 83.5984 128.628 83.5984C130.188 83.5984 131.018 82.6454 131.018 81.0927V75.8514H132.448V84.7075H131.018V83.3848H130.887C130.451 84.3296 129.556 84.8635 128.258 84.8635ZM135.2 84.7075V72.3352H136.629V84.7075H135.2ZM142.643 84.8635C140.4 84.8635 138.93 83.048 138.93 80.2876V80.2712C138.93 77.4944 140.392 75.6953 142.643 75.6953C143.859 75.6953 144.918 76.3032 145.403 77.248H145.535V72.3352H146.964V84.7075H145.535V83.2944H145.403C144.861 84.2803 143.875 84.8635 142.643 84.8635ZM142.971 83.5984C144.582 83.5984 145.568 82.3332 145.568 80.2876V80.2712C145.568 78.2256 144.582 76.9604 142.971 76.9604C141.353 76.9604 140.392 78.2092 140.392 80.2712V80.2876C140.392 82.3497 141.353 83.5984 142.971 83.5984ZM155.196 87.8128C155.007 87.8128 154.76 87.7964 154.563 87.7636V86.5888C154.736 86.6216 154.958 86.6298 155.155 86.6298C155.968 86.6298 156.461 86.2602 156.781 85.2415L156.946 84.7157L153.668 75.8514H155.196L157.628 83.1383H157.759L160.183 75.8514H161.686L158.227 85.2497C157.496 87.2378 156.765 87.8128 155.196 87.8128ZM166.886 84.8635C164.364 84.8635 162.803 83.1219 162.803 80.2876V80.2712C162.803 77.4287 164.364 75.6953 166.886 75.6953C169.408 75.6953 170.969 77.4287 170.969 80.2712V80.2876C170.969 83.1219 169.408 84.8635 166.886 84.8635ZM166.886 83.5984C168.562 83.5984 169.507 82.3743 169.507 80.2876V80.2712C169.507 78.1763 168.562 76.9604 166.886 76.9604C165.21 76.9604 164.266 78.1763 164.266 80.2712V80.2876C164.266 82.3743 165.21 83.5984 166.886 83.5984ZM176.153 84.8635C174.14 84.8635 173.105 83.6805 173.105 81.5856V75.8514H174.535V81.2406C174.535 82.8344 175.11 83.5984 176.523 83.5984C178.084 83.5984 178.913 82.6454 178.913 81.0927V75.8514H180.343V84.7075H178.913V83.3848H178.782C178.347 84.3296 177.451 84.8635 176.153 84.8635ZM187.827 84.7075V72.3352H189.257V84.7075H187.827ZM192.756 74.1426C192.214 74.1426 191.77 73.6989 191.77 73.1567C191.77 72.6145 192.214 72.1709 192.756 72.1709C193.298 72.1709 193.742 72.6145 193.742 73.1567C193.742 73.6989 193.298 74.1426 192.756 74.1426ZM192.033 84.7075V75.8514H193.463V84.7075H192.033ZM196.24 84.7075V72.3352H197.669V79.7208H197.8L201.629 75.8514H203.362L199.501 79.5729L203.617 84.7075H201.818L198.499 80.5423L197.669 81.3474V84.7075H196.24ZM208.497 84.8635C205.966 84.8635 204.438 83.089 204.438 80.3123V80.3041C204.438 77.5684 205.999 75.6953 208.406 75.6953C210.813 75.6953 212.276 77.4862 212.276 80.1315V80.6902H205.901C205.942 82.5222 206.952 83.5902 208.53 83.5902C209.729 83.5902 210.468 83.0233 210.707 82.4893L210.74 82.4154H212.169L212.153 82.4811C211.849 83.6805 210.583 84.8635 208.497 84.8635ZM208.398 76.9686C207.084 76.9686 206.081 77.8641 205.925 79.5482H210.822C210.674 77.7984 209.704 76.9686 208.398 76.9686ZM222.372 84.7732C220.549 84.7732 219.785 84.0995 219.785 82.4072V77.0344H218.388V75.8514H219.785V73.5593H221.263V75.8514H223.202V77.0344H221.263V82.0457C221.263 83.089 221.625 83.508 222.545 83.508C222.8 83.508 222.939 83.4998 223.202 83.4752V84.691C222.923 84.7403 222.652 84.7732 222.372 84.7732ZM228.846 84.8635C226.324 84.8635 224.763 83.1219 224.763 80.2876V80.2712C224.763 77.4287 226.324 75.6953 228.846 75.6953C231.368 75.6953 232.929 77.4287 232.929 80.2712V80.2876C232.929 83.1219 231.368 84.8635 228.846 84.8635ZM228.846 83.5984C230.522 83.5984 231.467 82.3743 231.467 80.2876V80.2712C231.467 78.1763 230.522 76.9604 228.846 76.9604C227.17 76.9604 226.225 78.1763 226.225 80.2712V80.2876C226.225 82.3743 227.17 83.5984 228.846 83.5984ZM239.961 84.7075V72.3352H241.391V79.7208H241.522L245.351 75.8514H247.084L243.223 79.5729L247.339 84.7075H245.54L242.221 80.5423L241.391 81.3474V84.7075H239.961ZM249.015 84.7075V75.8514H250.444V77.1822H250.576C251.019 76.2457 251.849 75.6953 253.155 75.6953C255.143 75.6953 256.252 76.8701 256.252 78.9732V84.7075H254.823V79.3182C254.823 77.7244 254.166 76.9604 252.753 76.9604C251.34 76.9604 250.444 77.9134 250.444 79.4661V84.7075H249.015ZM262.48 84.8635C259.957 84.8635 258.397 83.1219 258.397 80.2876V80.2712C258.397 77.4287 259.957 75.6953 262.48 75.6953C265.002 75.6953 266.563 77.4287 266.563 80.2712V80.2876C266.563 83.1219 265.002 84.8635 262.48 84.8635ZM262.48 83.5984C264.155 83.5984 265.1 82.3743 265.1 80.2876V80.2712C265.1 78.1763 264.155 76.9604 262.48 76.9604C260.804 76.9604 259.859 78.1763 259.859 80.2712V80.2876C259.859 82.3743 260.804 83.5984 262.48 83.5984ZM270.161 84.7075L267.68 75.8514H269.109L270.851 82.933H270.982L272.962 75.8514H274.318L276.298 82.933H276.429L278.171 75.8514H279.592L277.111 84.7075H275.673L273.693 77.8559H273.562L271.59 84.7075H270.161ZM283.379 81.0434V80.2876C283.371 79.2032 283.897 78.4638 285.022 77.7902C285.975 77.2069 286.345 76.6893 286.345 75.8185V75.8021C286.345 74.7916 285.556 74.044 284.332 74.044C283.092 74.044 282.303 74.7752 282.221 75.9417L282.204 75.9499L280.808 75.9582V75.9417C280.898 74.1754 282.081 72.7624 284.39 72.7624C286.46 72.7624 287.873 74.044 287.873 75.7281V75.7446C287.873 77.0261 287.208 77.938 286.156 78.5706C285.113 79.1868 284.817 79.6468 284.817 80.5094V81.0434H283.379ZM284.209 84.8553C283.544 84.8553 283.067 84.3788 283.067 83.7134C283.067 83.0398 283.544 82.5633 284.209 82.5633C284.874 82.5633 285.343 83.0398 285.343 83.7134C285.343 84.3788 284.874 84.8553 284.209 84.8553Z" fill="#0C0D0E"/><circle cx="63.948" cy="146.834" r="8.2" fill="#BAC0C5" stroke="#636C74" stroke-width="1.491"/><path d="M79.3656 151.888L83.2838 141.261H84.5948L88.5129 151.888H87.1209L86.053 148.847H81.8255L80.7576 151.888H79.3656ZM83.8804 142.977L82.2159 147.72H85.6627L83.9982 142.977H83.8804ZM90.2879 151.888V140.797H91.5694V151.888H90.2879ZM94.1029 151.888V140.797H95.3844V151.888H94.1029Z" fill="#0C0D0E"/><circle cx="116.157" cy="146.834" r="8.2" fill="#BAC0C5" stroke="#636C74" stroke-width="1.491"/><circle cx="116.228" cy="146.834" r="5.069" fill="#636C74"/><path d="M132.422 151.888V141.261H133.961L137.6 150.128H137.718L141.356 141.261H142.895V151.888H141.658V143.772H141.577L138.218 151.888H137.099L133.741 143.772H133.659V151.888H132.422ZM146.121 154.672C145.952 154.672 145.731 154.657 145.554 154.628V153.575C145.709 153.604 145.907 153.612 146.084 153.612C146.813 153.612 147.255 153.28 147.542 152.367L147.69 151.896L144.751 143.949H146.121L148.301 150.481H148.419L150.592 143.949H151.939L148.839 152.374C148.183 154.157 147.528 154.672 146.121 154.672ZM160.696 151.947C159.061 151.947 158.376 151.343 158.376 149.826V145.009H157.124V143.949H158.376V141.894H159.702V143.949H161.44V145.009H159.702V149.502C159.702 150.437 160.026 150.813 160.851 150.813C161.079 150.813 161.204 150.806 161.44 150.783V151.873C161.19 151.918 160.947 151.947 160.696 151.947ZM166.478 152.028C164.209 152.028 162.84 150.437 162.84 147.948V147.941C162.84 145.488 164.239 143.809 166.397 143.809C168.555 143.809 169.866 145.414 169.866 147.786V148.287H164.15C164.187 149.929 165.093 150.887 166.507 150.887C167.583 150.887 168.245 150.378 168.459 149.9L168.488 149.833H169.77L169.755 149.892C169.483 150.968 168.348 152.028 166.478 152.028ZM166.389 144.95C165.211 144.95 164.312 145.753 164.173 147.263H168.562C168.43 145.694 167.56 144.95 166.389 144.95ZM174.034 152.028C172.524 152.028 171.383 151.115 171.383 149.671V149.657C171.383 148.243 172.429 147.425 174.277 147.315L176.553 147.175V146.453C176.553 145.473 175.957 144.943 174.771 144.943C173.821 144.943 173.195 145.297 172.988 145.915L172.981 145.937H171.7L171.707 145.893C171.913 144.648 173.121 143.809 174.815 143.809C176.752 143.809 177.835 144.803 177.835 146.453V151.888H176.553V150.717H176.435C175.934 151.564 175.102 152.028 174.034 152.028ZM172.694 149.642C172.694 150.445 173.379 150.916 174.299 150.916C175.603 150.916 176.553 150.062 176.553 148.927V148.206L174.432 148.338C173.224 148.412 172.694 148.839 172.694 149.627V149.642ZM180.177 151.888V143.949H181.458V145.157H181.576C181.93 144.302 182.681 143.809 183.719 143.809C184.794 143.809 185.546 144.376 185.914 145.201H186.032C186.459 144.361 187.365 143.809 188.462 143.809C190.083 143.809 190.988 144.737 190.988 146.401V151.888H189.707V146.696C189.707 145.525 189.169 144.943 188.05 144.943C186.945 144.943 186.216 145.775 186.216 146.784V151.888H184.934V146.497C184.934 145.554 184.286 144.943 183.285 144.943C182.246 144.943 181.458 145.849 181.458 146.968V151.888H180.177Z" fill="#0C0D0E"/><circle cx="212.367" cy="146.834" r="8.2" fill="#BAC0C5" stroke="#636C74" stroke-width="1.491"/><path d="M231.195 152.028C229.427 152.028 228.212 151.174 228.065 149.863H229.376C229.589 150.526 230.223 150.96 231.239 150.96C232.307 150.96 233.066 150.452 233.066 149.73V149.716C233.066 149.178 232.66 148.802 231.681 148.567L230.451 148.272C228.963 147.919 228.293 147.27 228.293 146.129V146.121C228.293 144.803 229.56 143.809 231.246 143.809C232.911 143.809 234.067 144.641 234.244 145.937H232.984C232.815 145.311 232.196 144.877 231.239 144.877C230.296 144.877 229.604 145.363 229.604 146.063V146.077C229.604 146.615 230.002 146.954 230.937 147.182L232.16 147.477C233.655 147.838 234.376 148.486 234.376 149.62V149.635C234.376 151.049 232.999 152.028 231.195 152.028ZM239.112 151.947C237.477 151.947 236.792 151.343 236.792 149.826V145.009H235.54V143.949H236.792V141.894H238.118V143.949H239.856V145.009H238.118V149.502C238.118 150.437 238.442 150.813 239.267 150.813C239.495 150.813 239.62 150.806 239.856 150.783V151.874C239.606 151.918 239.363 151.947 239.112 151.947ZM243.951 152.028C242.441 152.028 241.3 151.115 241.3 149.671V149.657C241.3 148.243 242.345 147.425 244.194 147.315L246.47 147.175V146.453C246.47 145.473 245.873 144.943 244.687 144.943C243.737 144.943 243.111 145.297 242.905 145.915L242.898 145.937H241.616L241.624 145.893C241.83 144.648 243.038 143.809 244.732 143.809C246.669 143.809 247.751 144.803 247.751 146.453V151.888H246.47V150.717H246.352C245.851 151.564 245.019 152.028 243.951 152.028ZM242.611 149.642C242.611 150.445 243.295 150.916 244.216 150.916C245.52 150.916 246.47 150.062 246.47 148.928V148.206L244.349 148.338C243.141 148.412 242.611 148.839 242.611 149.627V149.642ZM253.341 152.028C251.117 152.028 249.696 150.415 249.696 147.896V147.882C249.696 145.414 251.11 143.809 253.334 143.809C255.264 143.809 256.42 144.921 256.656 146.335L256.663 146.379H255.389L255.381 146.357C255.183 145.576 254.475 144.943 253.334 144.943C251.905 144.943 251.007 146.092 251.007 147.882V147.896C251.007 149.723 251.92 150.894 253.334 150.894C254.402 150.894 255.079 150.423 255.374 149.539L255.389 149.495L256.656 149.487L256.641 149.568C256.317 151.004 255.249 152.028 253.341 152.028ZM258.607 151.888V140.797H259.889V147.418H260.007L263.439 143.949H264.993L261.531 147.285L265.221 151.888H263.608L260.633 148.154L259.889 148.876V151.888H258.607ZM269.618 152.028C267.357 152.028 265.957 150.467 265.957 147.926V147.911C265.957 145.363 267.357 143.809 269.618 143.809C271.879 143.809 273.278 145.363 273.278 147.911V147.926C273.278 150.467 271.879 152.028 269.618 152.028ZM269.618 150.894C271.12 150.894 271.967 149.797 271.967 147.926V147.911C271.967 146.033 271.12 144.943 269.618 144.943C268.115 144.943 267.268 146.033 267.268 147.911V147.926C267.268 149.797 268.115 150.894 269.618 150.894ZM277.219 151.888L274.28 143.949H275.635L277.808 150.489H277.926L280.098 143.949H281.453L278.515 151.888H277.219ZM286.093 152.028C283.825 152.028 282.455 150.437 282.455 147.948V147.941C282.455 145.488 283.854 143.809 286.012 143.809C288.17 143.809 289.481 145.414 289.481 147.786V148.287H283.766C283.803 149.929 284.709 150.887 286.123 150.887C287.198 150.887 287.861 150.378 288.074 149.9L288.104 149.833H289.385L289.371 149.892C289.098 150.968 287.964 152.028 286.093 152.028ZM286.005 144.95C284.827 144.95 283.928 145.753 283.788 147.263H288.178C288.045 145.694 287.176 144.95 286.005 144.95ZM291.47 151.888V143.949H292.751V145.127H292.869C293.171 144.295 293.915 143.809 294.99 143.809C295.233 143.809 295.506 143.838 295.631 143.86V145.105C295.366 145.061 295.123 145.031 294.843 145.031C293.62 145.031 292.751 145.805 292.751 146.968V151.888H291.47ZM298.187 151.888V145.009H296.868V143.949H298.187V143.065C298.187 141.482 298.982 140.723 300.492 140.723C300.801 140.723 301.081 140.745 301.346 140.797V141.82C301.191 141.791 300.978 141.784 300.75 141.784C299.836 141.784 299.468 142.233 299.468 143.102V143.949H301.273V145.009H299.468V151.888H298.187ZM303.195 151.888V140.797H304.476V151.888H303.195ZM310.199 152.028C307.938 152.028 306.538 150.467 306.538 147.926V147.911C306.538 145.363 307.938 143.809 310.199 143.809C312.46 143.809 313.859 145.363 313.859 147.911V147.926C313.859 150.467 312.46 152.028 310.199 152.028ZM310.199 150.894C311.701 150.894 312.548 149.797 312.548 147.926V147.911C312.548 146.033 311.701 144.943 310.199 144.943C308.696 144.943 307.849 146.033 307.849 147.911V147.926C307.849 149.797 308.696 150.894 310.199 150.894ZM317.085 151.888L314.861 143.949H316.142L317.704 150.297H317.822L319.597 143.949H320.812L322.587 150.297H322.705L324.266 143.949H325.54L323.316 151.888H322.027L320.252 145.746H320.134L318.367 151.888H317.085ZM327.175 151.962C326.652 151.962 326.218 151.527 326.218 151.004C326.218 150.474 326.652 150.047 327.175 150.047C327.705 150.047 328.133 150.474 328.133 151.004C328.133 151.527 327.705 151.962 327.175 151.962ZM333.561 152.028C331.336 152.028 329.915 150.415 329.915 147.896V147.882C329.915 145.414 331.329 143.809 333.553 143.809C335.483 143.809 336.639 144.921 336.875 146.335L336.882 146.379H335.608L335.601 146.357C335.402 145.576 334.695 144.943 333.553 144.943C332.124 144.943 331.226 146.092 331.226 147.882V147.896C331.226 149.723 332.139 150.894 333.553 150.894C334.621 150.894 335.299 150.423 335.593 149.539L335.608 149.495L336.875 149.487L336.86 149.568C336.536 151.004 335.468 152.028 333.561 152.028ZM342.016 152.028C339.754 152.028 338.355 150.467 338.355 147.926V147.911C338.355 145.363 339.754 143.809 342.016 143.809C344.277 143.809 345.676 145.363 345.676 147.911V147.926C345.676 150.467 344.277 152.028 342.016 152.028ZM342.016 150.894C343.518 150.894 344.365 149.797 344.365 147.926V147.911C344.365 146.033 343.518 144.943 342.016 144.943C340.513 144.943 339.666 146.033 339.666 147.911V147.926C339.666 149.797 340.513 150.894 342.016 150.894ZM347.664 151.888V143.949H348.946V145.157H349.064C349.417 144.302 350.169 143.809 351.207 143.809C352.282 143.809 353.034 144.376 353.402 145.201H353.52C353.947 144.361 354.853 143.809 355.95 143.809C357.57 143.809 358.476 144.737 358.476 146.401V151.888H357.195V146.696C357.195 145.525 356.657 144.943 355.538 144.943C354.433 144.943 353.704 145.775 353.704 146.784V151.888H352.422V146.497C352.422 145.554 351.774 144.943 350.772 144.943C349.734 144.943 348.946 145.849 348.946 146.968V151.888H347.664Z" fill="#0C0D0E"/><path d="M432.272 157.182C432.537 157.182 432.802 157.146 433.08 157.001L449.021 148.862C449.564 148.584 449.998 148.15 449.998 147.535C449.998 146.92 449.564 146.486 449.021 146.209L433.08 138.081C432.802 137.936 432.525 137.888 432.272 137.888C431.404 137.888 430.704 138.576 430.704 139.601V144.943C430.704 145.558 431.162 145.992 431.765 146.004L440.653 146.631C441.147 146.643 441.557 147.041 441.557 147.535C441.557 148.03 441.147 148.428 440.653 148.44L431.765 149.067C431.162 149.079 430.704 149.513 430.704 150.128V155.482C430.704 156.507 431.404 157.182 432.272 157.182Z" fill="#3B4045"/></g><defs><clipPath id="clip0_666_31663"><rect y=".563" width="456" height="324" rx="12" fill="#fff"/></clipPath></defs></svg>