<svg width="457" height="325" viewBox="0 0 457 325" fill="none" xmlns="http://www.w3.org/2000/svg"><g clip-path="url(#clip0_666_31317)"><g clip-path="url(#clip1_666_31317)"><g clip-path="url(#clip2_666_31317)"><rect x="12" y="126" width="456" height="210" rx="15" fill="#fff"/><circle opacity=".2" cx="65.028" cy="164.746" r="11.986" stroke="url(#paint0_linear_666_31317)" stroke-width="3.734"/><mask id="mask0_666_31317" style="mask-type:alpha" maskUnits="userSpaceOnUse" x="51" y="150" width="28" height="29"><circle cx="65.028" cy="164.746" r="11.986" stroke="url(#paint1_linear_666_31317)" stroke-width="3.734"/></mask><g mask="url(#mask0_666_31317)"><rect x="74.672" y="153.557" width="15.585" height="15.585" transform="rotate(42.0772 74.6716 153.557)" fill="url(#paint2_linear_666_31317)"/></g><path fill-rule="evenodd" clip-rule="evenodd" d="M49.4445 155.226L48.5787 153.494L47.7128 155.226H49.4445ZM47.7167 155.227L48.5825 156.958L49.4483 155.227L47.7167 155.227Z" fill="url(#paint3_linear_666_31317)"/><path fill-rule="evenodd" clip-rule="evenodd" d="M48.5786 154.359L46.8489 155.224L48.5806 156.09L48.5806 156.088L50.3103 155.223L48.5786 154.357L48.5786 154.359Z" fill="url(#paint4_linear_666_31317)"/><path fill-rule="evenodd" clip-rule="evenodd" d="M85.8088 167.346L84.943 165.615L84.0771 167.346H85.8088ZM84.0814 167.347L84.9473 169.079L85.8131 167.347L84.0814 167.347Z" fill="url(#paint5_linear_666_31317)"/><path fill-rule="evenodd" clip-rule="evenodd" d="M84.9438 166.48L83.2141 167.345L84.9457 168.211L84.9457 168.208L86.6755 167.343L84.9438 166.478L84.9438 166.48Z" fill="url(#paint6_linear_666_31317)"/><path fill-rule="evenodd" clip-rule="evenodd" d="M84.0757 174.269L82.3441 170.806L80.6129 174.269H80.6094L82.341 177.732L84.0722 174.269H84.0757Z" fill="url(#paint7_linear_666_31317)"/><path fill-rule="evenodd" clip-rule="evenodd" d="M82.3445 172.537L78.8812 174.269L82.3445 176.001L82.3445 172.537ZM82.3471 176.003L85.8104 174.271L82.3471 172.54L82.3471 176.003Z" fill="url(#paint8_linear_666_31317)"/><path d="M97.9422 168.892V156.008H102.117C103.699 156.008 104.73 156.072 105.211 156.201C105.949 156.394 106.567 156.816 107.065 157.467C107.563 158.111 107.812 158.946 107.812 159.972C107.812 160.763 107.669 161.428 107.382 161.967C107.095 162.506 106.728 162.931 106.283 163.241C105.844 163.546 105.395 163.748 104.938 163.847C104.317 163.971 103.418 164.032 102.24 164.032H100.544V168.892H97.9422ZM100.544 158.187V161.844H101.968C102.993 161.844 103.679 161.776 104.024 161.641C104.37 161.507 104.639 161.296 104.833 161.009C105.032 160.722 105.132 160.388 105.132 160.007C105.132 159.538 104.994 159.151 104.719 158.847C104.443 158.542 104.095 158.351 103.673 158.275C103.362 158.217 102.738 158.187 101.801 158.187H100.544ZM112.295 168.892H109.825V159.558H112.119V160.886C112.512 160.259 112.863 159.846 113.174 159.646C113.49 159.447 113.847 159.347 114.246 159.347C114.808 159.347 115.35 159.503 115.872 159.813L115.107 161.967C114.691 161.697 114.305 161.562 113.947 161.562C113.601 161.562 113.308 161.659 113.068 161.852C112.828 162.04 112.638 162.383 112.497 162.881C112.362 163.379 112.295 164.422 112.295 166.01V168.892ZM116.373 164.094C116.373 163.273 116.575 162.479 116.979 161.712C117.384 160.944 117.955 160.358 118.693 159.954C119.437 159.55 120.266 159.347 121.18 159.347C122.593 159.347 123.75 159.807 124.652 160.727C125.555 161.641 126.006 162.799 126.006 164.199C126.006 165.611 125.549 166.783 124.635 167.715C123.726 168.64 122.581 169.103 121.198 169.103C120.343 169.103 119.525 168.91 118.746 168.523C117.972 168.137 117.384 167.571 116.979 166.827C116.575 166.077 116.373 165.166 116.373 164.094ZM118.904 164.225C118.904 165.151 119.124 165.86 119.563 166.352C120.003 166.845 120.545 167.091 121.189 167.091C121.834 167.091 122.373 166.845 122.806 166.352C123.246 165.86 123.466 165.145 123.466 164.208C123.466 163.294 123.246 162.591 122.806 162.098C122.373 161.606 121.834 161.36 121.189 161.36C120.545 161.36 120.003 161.606 119.563 162.098C119.124 162.591 118.904 163.3 118.904 164.225ZM136.087 162.318L133.652 162.758C133.57 162.271 133.383 161.905 133.09 161.659C132.803 161.413 132.428 161.29 131.965 161.29C131.349 161.29 130.857 161.504 130.488 161.931C130.125 162.353 129.943 163.062 129.943 164.058C129.943 165.166 130.128 165.948 130.497 166.405C130.872 166.862 131.373 167.091 132 167.091C132.469 167.091 132.852 166.959 133.151 166.695C133.45 166.426 133.661 165.966 133.784 165.315L136.21 165.728C135.958 166.842 135.474 167.682 134.76 168.251C134.045 168.819 133.087 169.103 131.886 169.103C130.52 169.103 129.43 168.673 128.616 167.811C127.807 166.95 127.403 165.758 127.403 164.234C127.403 162.693 127.81 161.495 128.625 160.639C129.439 159.778 130.541 159.347 131.93 159.347C133.066 159.347 133.969 159.594 134.637 160.086C135.31 160.572 135.794 161.316 136.087 162.318ZM143.373 165.922L145.834 166.335C145.517 167.237 145.016 167.926 144.331 168.4C143.651 168.869 142.799 169.103 141.773 169.103C140.15 169.103 138.949 168.573 138.17 167.513C137.555 166.663 137.247 165.591 137.247 164.296C137.247 162.749 137.651 161.539 138.46 160.666C139.268 159.787 140.291 159.347 141.527 159.347C142.916 159.347 144.012 159.807 144.814 160.727C145.617 161.641 146.001 163.045 145.966 164.937H139.778C139.796 165.67 139.995 166.241 140.376 166.651C140.757 167.056 141.231 167.258 141.8 167.258C142.186 167.258 142.512 167.152 142.775 166.941C143.039 166.73 143.238 166.39 143.373 165.922ZM143.513 163.426C143.496 162.711 143.311 162.169 142.96 161.8C142.608 161.425 142.18 161.237 141.677 161.237C141.138 161.237 140.692 161.433 140.341 161.826C139.989 162.219 139.816 162.752 139.822 163.426H143.513ZM147.117 166.229L149.596 165.851C149.701 166.332 149.915 166.698 150.237 166.95C150.559 167.196 151.011 167.319 151.591 167.319C152.229 167.319 152.71 167.202 153.032 166.968C153.249 166.804 153.357 166.584 153.357 166.308C153.357 166.121 153.299 165.966 153.181 165.843C153.058 165.725 152.783 165.617 152.355 165.517C150.363 165.078 149.1 164.677 148.567 164.313C147.829 163.809 147.46 163.109 147.46 162.213C147.46 161.404 147.779 160.724 148.418 160.174C149.056 159.623 150.047 159.347 151.388 159.347C152.666 159.347 153.615 159.556 154.236 159.972C154.857 160.388 155.285 161.003 155.519 161.817L153.19 162.248C153.091 161.885 152.9 161.606 152.619 161.413C152.344 161.22 151.948 161.123 151.432 161.123C150.782 161.123 150.316 161.214 150.035 161.395C149.847 161.524 149.754 161.691 149.754 161.896C149.754 162.072 149.836 162.222 150 162.345C150.222 162.509 150.99 162.74 152.303 163.039C153.621 163.338 154.541 163.704 155.062 164.138C155.578 164.577 155.836 165.189 155.836 165.974C155.836 166.83 155.478 167.565 154.763 168.181C154.049 168.796 152.991 169.103 151.591 169.103C150.319 169.103 149.311 168.846 148.567 168.33C147.829 167.814 147.346 167.114 147.117 166.229ZM157.137 166.229L159.615 165.851C159.721 166.332 159.934 166.698 160.257 166.95C160.579 167.196 161.03 167.319 161.61 167.319C162.249 167.319 162.729 167.202 163.052 166.968C163.268 166.804 163.377 166.584 163.377 166.308C163.377 166.121 163.318 165.966 163.201 165.843C163.078 165.725 162.803 165.617 162.375 165.517C160.383 165.078 159.12 164.677 158.587 164.313C157.848 163.809 157.479 163.109 157.479 162.213C157.479 161.404 157.799 160.724 158.437 160.174C159.076 159.623 160.066 159.347 161.408 159.347C162.685 159.347 163.635 159.556 164.256 159.972C164.877 160.388 165.305 161.003 165.539 161.817L163.21 162.248C163.11 161.885 162.92 161.606 162.638 161.413C162.363 161.22 161.968 161.123 161.452 161.123C160.802 161.123 160.336 161.214 160.055 161.395C159.867 161.524 159.773 161.691 159.773 161.896C159.773 162.072 159.855 162.222 160.019 162.345C160.242 162.509 161.01 162.74 162.322 163.039C163.64 163.338 164.56 163.704 165.082 164.138C165.597 164.577 165.855 165.189 165.855 165.974C165.855 166.83 165.498 167.565 164.783 168.181C164.068 168.796 163.011 169.103 161.61 169.103C160.339 169.103 159.331 168.846 158.587 168.33C157.848 167.814 157.365 167.114 157.137 166.229ZM168.026 158.293V156.008H170.496V158.293H168.026ZM168.026 168.892V159.558H170.496V168.892H168.026ZM181.526 168.892H179.056V164.129C179.056 163.121 179.004 162.471 178.898 162.178C178.793 161.879 178.62 161.647 178.38 161.483C178.145 161.319 177.861 161.237 177.527 161.237C177.099 161.237 176.716 161.354 176.376 161.589C176.036 161.823 175.802 162.134 175.673 162.52C175.55 162.907 175.488 163.622 175.488 164.665V168.892H173.018V159.558H175.312V160.93C176.127 159.875 177.152 159.347 178.388 159.347C178.933 159.347 179.431 159.447 179.883 159.646C180.334 159.84 180.674 160.089 180.902 160.393C181.137 160.698 181.298 161.044 181.386 161.431C181.479 161.817 181.526 162.371 181.526 163.092V168.892ZM183.811 169.508L186.633 169.85C186.68 170.179 186.788 170.404 186.958 170.527C187.192 170.703 187.561 170.791 188.065 170.791C188.71 170.791 189.193 170.694 189.515 170.501C189.732 170.372 189.896 170.164 190.008 169.877C190.084 169.672 190.122 169.294 190.122 168.743V167.381C189.384 168.389 188.452 168.892 187.327 168.892C186.073 168.892 185.08 168.362 184.347 167.302C183.773 166.464 183.486 165.421 183.486 164.173C183.486 162.608 183.861 161.413 184.611 160.587C185.367 159.761 186.305 159.347 187.424 159.347C188.578 159.347 189.53 159.854 190.28 160.868V159.558H192.592V167.934C192.592 169.036 192.501 169.859 192.319 170.404C192.138 170.949 191.883 171.377 191.555 171.687C191.226 171.998 190.787 172.241 190.236 172.417C189.691 172.593 189 172.681 188.162 172.681C186.58 172.681 185.458 172.408 184.796 171.863C184.134 171.324 183.803 170.639 183.803 169.806C183.803 169.724 183.805 169.625 183.811 169.508ZM186.017 164.032C186.017 165.022 186.208 165.749 186.589 166.212C186.975 166.669 187.45 166.897 188.013 166.897C188.616 166.897 189.126 166.663 189.542 166.194C189.958 165.72 190.166 165.019 190.166 164.094C190.166 163.127 189.967 162.409 189.568 161.94C189.17 161.472 188.666 161.237 188.056 161.237C187.465 161.237 186.975 161.469 186.589 161.931C186.208 162.389 186.017 163.089 186.017 164.032ZM202.418 168.892H199.948V159.558H202.242V160.886C202.635 160.259 202.986 159.846 203.297 159.646C203.613 159.447 203.971 159.347 204.369 159.347C204.931 159.347 205.473 159.503 205.995 159.813L205.23 161.967C204.814 161.697 204.428 161.562 204.07 161.562C203.724 161.562 203.431 161.659 203.191 161.852C202.951 162.04 202.761 162.383 202.62 162.881C202.485 163.379 202.418 164.422 202.418 166.01V168.892ZM212.472 165.922L214.933 166.335C214.617 167.237 214.116 167.926 213.43 168.4C212.751 168.869 211.898 169.103 210.873 169.103C209.25 169.103 208.049 168.573 207.269 167.513C206.654 166.663 206.346 165.591 206.346 164.296C206.346 162.749 206.751 161.539 207.559 160.666C208.368 159.787 209.39 159.347 210.627 159.347C212.015 159.347 213.111 159.807 213.914 160.727C214.717 161.641 215.1 163.045 215.065 164.937H208.878C208.895 165.67 209.095 166.241 209.475 166.651C209.856 167.056 210.331 167.258 210.899 167.258C211.286 167.258 211.611 167.152 211.875 166.941C212.138 166.73 212.338 166.39 212.472 165.922ZM212.613 163.426C212.596 162.711 212.411 162.169 212.059 161.8C211.708 161.425 211.28 161.237 210.776 161.237C210.237 161.237 209.792 161.433 209.44 161.826C209.089 162.219 208.916 162.752 208.922 163.426H212.613ZM223.186 172.443V167.75C222.864 168.166 222.463 168.497 221.982 168.743C221.502 168.983 220.983 169.103 220.427 169.103C219.366 169.103 218.493 168.705 217.807 167.908C216.999 166.976 216.595 165.714 216.595 164.12C216.595 162.62 216.972 161.451 217.728 160.613C218.49 159.769 219.433 159.347 220.558 159.347C221.18 159.347 221.716 159.479 222.167 159.743C222.624 160.007 223.028 160.405 223.38 160.938V159.558H225.656V172.443H223.186ZM223.265 164.111C223.265 163.156 223.069 162.447 222.677 161.984C222.29 161.515 221.804 161.281 221.218 161.281C220.62 161.281 220.119 161.518 219.715 161.993C219.316 162.468 219.117 163.221 219.117 164.252C219.117 165.277 219.31 166.018 219.697 166.475C220.084 166.927 220.561 167.152 221.13 167.152C221.698 167.152 222.196 166.897 222.624 166.388C223.052 165.878 223.265 165.119 223.265 164.111ZM234.234 168.892V167.495C233.894 167.993 233.446 168.386 232.889 168.673C232.339 168.96 231.756 169.103 231.14 169.103C230.513 169.103 229.951 168.966 229.453 168.69C228.955 168.415 228.595 168.028 228.372 167.53C228.149 167.032 228.038 166.344 228.038 165.465V159.558H230.508V163.847C230.508 165.16 230.552 165.966 230.639 166.264C230.733 166.557 230.9 166.792 231.14 166.968C231.381 167.138 231.685 167.222 232.055 167.222C232.476 167.222 232.854 167.108 233.188 166.88C233.522 166.645 233.751 166.358 233.874 166.018C233.997 165.673 234.058 164.832 234.058 163.496V159.558H236.528V168.892H234.234ZM244.5 165.922L246.961 166.335C246.644 167.237 246.143 167.926 245.458 168.4C244.778 168.869 243.926 169.103 242.9 169.103C241.277 169.103 240.076 168.573 239.297 167.513C238.681 166.663 238.374 165.591 238.374 164.296C238.374 162.749 238.778 161.539 239.587 160.666C240.395 159.787 241.418 159.347 242.654 159.347C244.043 159.347 245.138 159.807 245.941 160.727C246.744 161.641 247.128 163.045 247.093 164.937H240.905C240.923 165.67 241.122 166.241 241.503 166.651C241.884 167.056 242.358 167.258 242.927 167.258C243.313 167.258 243.638 167.152 243.902 166.941C244.166 166.73 244.365 166.39 244.5 165.922ZM244.64 163.426C244.623 162.711 244.438 162.169 244.087 161.8C243.735 161.425 243.307 161.237 242.804 161.237C242.264 161.237 241.819 161.433 241.468 161.826C241.116 162.219 240.943 162.752 240.949 163.426H244.64ZM248.244 166.229L250.722 165.851C250.828 166.332 251.042 166.698 251.364 166.95C251.686 167.196 252.138 167.319 252.718 167.319C253.356 167.319 253.837 167.202 254.159 166.968C254.376 166.804 254.484 166.584 254.484 166.308C254.484 166.121 254.426 165.966 254.308 165.843C254.185 165.725 253.91 165.617 253.482 165.517C251.49 165.078 250.227 164.677 249.694 164.313C248.956 163.809 248.587 163.109 248.587 162.213C248.587 161.404 248.906 160.724 249.545 160.174C250.183 159.623 251.174 159.347 252.515 159.347C253.793 159.347 254.742 159.556 255.363 159.972C255.984 160.388 256.412 161.003 256.646 161.817L254.317 162.248C254.218 161.885 254.027 161.606 253.746 161.413C253.471 161.22 253.075 161.123 252.559 161.123C251.909 161.123 251.443 161.214 251.162 161.395C250.974 161.524 250.881 161.691 250.881 161.896C250.881 162.072 250.963 162.222 251.127 162.345C251.349 162.509 252.117 162.74 253.43 163.039C254.748 163.338 255.668 163.704 256.189 164.138C256.705 164.577 256.963 165.189 256.963 165.974C256.963 166.83 256.605 167.565 255.89 168.181C255.176 168.796 254.118 169.103 252.718 169.103C251.446 169.103 250.438 168.846 249.694 168.33C248.956 167.814 248.472 167.114 248.244 166.229ZM263.414 159.558V161.527H261.726V165.289C261.726 166.051 261.741 166.496 261.77 166.625C261.805 166.748 261.879 166.85 261.99 166.932C262.107 167.014 262.248 167.056 262.412 167.056C262.64 167.056 262.971 166.976 263.405 166.818L263.616 168.734C263.042 168.98 262.391 169.103 261.665 169.103C261.22 169.103 260.818 169.03 260.461 168.884C260.103 168.731 259.84 168.538 259.67 168.304C259.506 168.063 259.391 167.741 259.327 167.337C259.274 167.05 259.248 166.47 259.248 165.597V161.527H258.114V159.558H259.248V157.704L261.726 156.263V159.558H263.414ZM265.128 168.892V166.423H267.597V168.892H265.128ZM270.138 168.892V166.423H272.607V168.892H270.138ZM275.147 168.892V166.423H277.617V168.892H275.147Z" fill="#0C0D0E"/><rect x="41.871" y="203.491" width="384" height="17" rx="8.5" fill="url(#paint9_linear_666_31317)" fill-opacity=".25"/><rect x="41.871" y="225.47" width="348.913" height="18.461" rx="9.231" fill="url(#paint10_linear_666_31317)" fill-opacity=".25"/><rect x="41.871" y="248.909" width="241.839" height="18.461" rx="9.231" fill="url(#paint11_linear_666_31317)" fill-opacity=".25"/><rect x="41.871" y="272.349" width="348.913" height="18.461" rx="9.231" fill="url(#paint12_linear_666_31317)" fill-opacity=".25"/><rect x="41.871" y="295.788" width="384" height="17" rx="8.5" fill="url(#paint13_linear_666_31317)" fill-opacity=".25"/><rect x="41.871" y="317.767" width="241.839" height="18.461" rx="9.231" fill="url(#paint14_linear_666_31317)" fill-opacity=".25"/></g><rect x="12.5" y="126.5" width="455" height="209" rx="14.5" stroke="#D6D9DC"/><rect x="13.5" y="33.5" width="454" height="76" rx="14.5" fill="#fff" stroke="#D6D9DC"/><path d="M102.836 65.8266V52.226H104.635V57.811H111.705V52.226H113.505V65.8266H111.705V59.416H104.635V65.8266H102.836ZM115.675 60.9003C115.675 59.0758 116.183 57.7244 117.197 56.8461C118.044 56.1163 119.077 55.7514 120.296 55.7514C121.65 55.7514 122.757 56.1967 123.617 57.0873C124.477 57.9718 124.906 59.1964 124.906 60.7612C124.906 62.0291 124.715 63.0279 124.331 63.7578C123.954 64.4814 123.4 65.0442 122.671 65.4462C121.947 65.8482 121.155 66.0493 120.296 66.0493C118.916 66.0493 117.8 65.607 116.946 64.7226C116.099 63.8382 115.675 62.5641 115.675 60.9003ZM117.392 60.9003C117.392 62.162 117.667 63.1083 118.217 63.7392C118.768 64.3639 119.461 64.6762 120.296 64.6762C121.124 64.6762 121.814 64.3608 122.364 63.7299C122.915 63.0991 123.19 62.1373 123.19 60.8447C123.19 59.6262 122.912 58.7047 122.355 58.08C121.805 57.4492 121.118 57.1337 120.296 57.1337C119.461 57.1337 118.768 57.4461 118.217 58.0707C117.667 58.6954 117.392 59.6386 117.392 60.9003ZM128.692 65.8266L125.676 55.9741H127.402L128.97 61.6611L129.554 63.7763C129.579 63.6712 129.749 62.9939 130.065 61.7446L131.632 55.9741H133.349L134.824 61.6889L135.316 63.5722L135.881 61.6703L137.57 55.9741H139.193L136.113 65.8266H134.379L132.811 59.9262L132.43 58.247L130.436 65.8266H128.692ZM152.284 65.8266V64.5834C151.659 65.5606 150.741 66.0493 149.528 66.0493C148.743 66.0493 148.019 65.8328 147.358 65.3998C146.702 64.9669 146.192 64.3639 145.827 63.5908C145.468 62.8115 145.289 61.9177 145.289 60.9096C145.289 59.9262 145.453 59.0356 145.78 58.2377C146.108 57.4337 146.6 56.8183 147.255 56.3915C147.911 55.9648 148.644 55.7514 149.454 55.7514C150.048 55.7514 150.577 55.8782 151.041 56.1318C151.505 56.3792 151.882 56.7039 152.172 57.1059V52.226H153.833V65.8266H152.284ZM147.005 60.9096C147.005 62.1713 147.271 63.1145 147.803 63.7392C148.335 64.3639 148.963 64.6762 149.686 64.6762C150.416 64.6762 151.034 64.3793 151.542 63.7856C152.055 63.1856 152.312 62.2734 152.312 61.0488C152.312 59.7005 152.052 58.7109 151.532 58.08C151.013 57.4492 150.373 57.1337 149.612 57.1337C148.87 57.1337 148.248 57.4368 147.747 58.0429C147.252 58.649 147.005 59.6046 147.005 60.9096ZM155.846 60.9003C155.846 59.0758 156.353 57.7244 157.368 56.8461C158.215 56.1163 159.248 55.7514 160.466 55.7514C161.821 55.7514 162.928 56.1967 163.788 57.0873C164.647 57.9718 165.077 59.1964 165.077 60.7612C165.077 62.0291 164.886 63.0279 164.502 63.7578C164.125 64.4814 163.571 65.0442 162.841 65.4462C162.118 65.8482 161.326 66.0493 160.466 66.0493C159.087 66.0493 157.971 65.607 157.117 64.7226C156.27 63.8382 155.846 62.5641 155.846 60.9003ZM157.563 60.9003C157.563 62.162 157.838 63.1083 158.388 63.7392C158.939 64.3639 159.631 64.6762 160.466 64.6762C161.295 64.6762 161.985 64.3608 162.535 63.7299C163.086 63.0991 163.361 62.1373 163.361 60.8447C163.361 59.6262 163.083 58.7047 162.526 58.08C161.976 57.4492 161.289 57.1337 160.466 57.1337C159.631 57.1337 158.939 57.4461 158.388 58.0707C157.838 58.6954 157.563 59.6386 157.563 60.9003ZM174.151 65.8266L171.135 55.9741H172.861L174.429 61.6611L175.013 63.7763C175.038 63.6712 175.208 62.9939 175.524 61.7446L177.091 55.9741H178.808L180.283 61.6889L180.775 63.5722L181.34 61.6703L183.029 55.9741H184.652L181.572 65.8266H179.838L178.27 59.9262L177.889 58.247L175.895 65.8266H174.151ZM192.807 62.6537L194.533 62.8671C194.261 63.8753 193.757 64.6577 193.021 65.2143C192.285 65.7709 191.345 66.0493 190.2 66.0493C188.759 66.0493 187.615 65.607 186.768 64.7226C185.927 63.832 185.506 62.5857 185.506 60.9838C185.506 59.3263 185.933 58.0398 186.786 57.1245C187.64 56.2091 188.747 55.7514 190.108 55.7514C191.425 55.7514 192.501 56.1998 193.336 57.0966C194.171 57.9934 194.589 59.2551 194.589 60.8818C194.589 60.9807 194.585 61.1292 194.579 61.3271H187.232C187.293 62.4094 187.6 63.2382 188.15 63.8134C188.7 64.3886 189.387 64.6762 190.21 64.6762C190.822 64.6762 191.345 64.5154 191.777 64.1938C192.21 63.8722 192.554 63.3588 192.807 62.6537ZM187.324 59.954H192.826C192.752 59.1253 192.541 58.5037 192.195 58.0893C191.663 57.4461 190.973 57.1245 190.126 57.1245C189.359 57.1245 188.713 57.3811 188.187 57.8945C187.668 58.4078 187.38 59.0943 187.324 59.954ZM201.927 65.8266V52.226H203.597V57.1059C204.376 56.2029 205.359 55.7514 206.547 55.7514C207.277 55.7514 207.911 55.8967 208.449 56.1874C208.987 56.4719 209.37 56.8678 209.599 57.3749C209.834 57.8821 209.952 58.6181 209.952 59.5829V65.8266H208.282V59.5829C208.282 58.748 208.099 58.1419 207.734 57.7646C207.376 57.3811 206.866 57.1894 206.204 57.1894C205.709 57.1894 205.242 57.3193 204.803 57.579C204.37 57.8326 204.061 58.179 203.875 58.6181C203.69 59.0572 203.597 59.6634 203.597 60.4365V65.8266H201.927ZM218.932 64.6113C218.314 65.137 217.717 65.5081 217.142 65.7245C216.573 65.941 215.96 66.0493 215.305 66.0493C214.222 66.0493 213.391 65.7864 212.809 65.2607C212.228 64.7288 211.937 64.0515 211.937 63.2289C211.937 62.7465 212.045 62.3074 212.262 61.9116C212.484 61.5095 212.772 61.1879 213.125 60.9467C213.483 60.7055 213.885 60.5231 214.331 60.3994C214.658 60.3128 215.153 60.2293 215.815 60.1489C217.163 59.9881 218.156 59.7963 218.793 59.5737C218.799 59.3448 218.802 59.1995 218.802 59.1376C218.802 58.4573 218.645 57.978 218.329 57.6996C217.902 57.3224 217.269 57.1337 216.427 57.1337C215.642 57.1337 215.061 57.2729 214.683 57.5512C214.312 57.8233 214.037 58.3089 213.858 59.0078L212.225 58.7851C212.373 58.0862 212.617 57.5234 212.958 57.0966C213.298 56.6637 213.79 56.3328 214.433 56.1039C215.076 55.8689 215.821 55.7514 216.669 55.7514C217.51 55.7514 218.193 55.8504 218.719 56.0483C219.245 56.2462 219.631 56.4967 219.879 56.7997C220.126 57.0966 220.299 57.4739 220.398 57.9316C220.454 58.2161 220.482 58.7294 220.482 59.4716V61.6982C220.482 63.2506 220.516 64.234 220.584 64.6484C220.658 65.0566 220.8 65.4493 221.01 65.8266H219.266C219.093 65.4802 218.982 65.0751 218.932 64.6113ZM218.793 60.8818C218.187 61.1292 217.278 61.3395 216.066 61.5126C215.379 61.6116 214.894 61.7229 214.609 61.8466C214.325 61.9703 214.105 62.1528 213.95 62.394C213.796 62.629 213.718 62.8919 213.718 63.1826C213.718 63.6279 213.885 63.999 214.219 64.2958C214.56 64.5927 215.054 64.7411 215.704 64.7411C216.347 64.7411 216.919 64.602 217.42 64.3237C217.921 64.0392 218.289 63.6526 218.524 63.164C218.703 62.7867 218.793 62.2301 218.793 61.4941V60.8818ZM223.079 65.8266V55.9741H224.582V57.3749C225.306 56.2926 226.351 55.7514 227.718 55.7514C228.312 55.7514 228.856 55.8596 229.351 56.0761C229.852 56.2864 230.226 56.5647 230.473 56.9111C230.721 57.2574 230.894 57.6687 230.993 58.145C231.055 58.4542 231.086 58.9954 231.086 59.7685V65.8266H229.416V59.8334C229.416 59.1531 229.351 58.6459 229.221 58.312C229.091 57.9718 228.859 57.7027 228.525 57.5048C228.197 57.3007 227.811 57.1987 227.365 57.1987C226.654 57.1987 226.039 57.4244 225.519 57.8759C225.006 58.3274 224.749 59.184 224.749 60.4457V65.8266H223.079ZM240.047 65.8266V64.5834C239.423 65.5606 238.504 66.0493 237.292 66.0493C236.507 66.0493 235.783 65.8328 235.121 65.3998C234.466 64.9669 233.955 64.3639 233.59 63.5908C233.232 62.8115 233.052 61.9177 233.052 60.9096C233.052 59.9262 233.216 59.0356 233.544 58.2377C233.872 57.4337 234.364 56.8183 235.019 56.3915C235.675 55.9648 236.408 55.7514 237.218 55.7514C237.812 55.7514 238.34 55.8782 238.804 56.1318C239.268 56.3792 239.645 56.7039 239.936 57.1059V52.226H241.597V65.8266H240.047ZM234.769 60.9096C234.769 62.1713 235.035 63.1145 235.567 63.7392C236.098 64.3639 236.726 64.6762 237.45 64.6762C238.18 64.6762 238.798 64.3793 239.305 63.7856C239.819 63.1856 240.075 62.2734 240.075 61.0488C240.075 59.7005 239.816 58.7109 239.296 58.08C238.776 57.4492 238.136 57.1337 237.376 57.1337C236.633 57.1337 236.012 57.4368 235.511 58.0429C235.016 58.649 234.769 59.6046 234.769 60.9096ZM244.194 65.8266V52.226H245.864V65.8266H244.194ZM255.207 62.6537L256.932 62.8671C256.66 63.8753 256.156 64.6577 255.42 65.2143C254.684 65.7709 253.744 66.0493 252.6 66.0493C251.159 66.0493 250.014 65.607 249.167 64.7226C248.326 63.832 247.905 62.5857 247.905 60.9838C247.905 59.3263 248.332 58.0398 249.186 57.1245C250.039 56.2091 251.146 55.7514 252.507 55.7514C253.824 55.7514 254.901 56.1998 255.735 57.0966C256.57 57.9934 256.988 59.2551 256.988 60.8818C256.988 60.9807 256.985 61.1292 256.979 61.3271H249.631C249.693 62.4094 249.999 63.2382 250.549 63.8134C251.1 64.3886 251.786 64.6762 252.609 64.6762C253.221 64.6762 253.744 64.5154 254.177 64.1938C254.61 63.8722 254.953 63.3588 255.207 62.6537ZM249.724 59.954H255.225C255.151 59.1253 254.941 58.5037 254.594 58.0893C254.062 57.4461 253.373 57.1245 252.526 57.1245C251.759 57.1245 251.112 57.3811 250.587 57.8945C250.067 58.4078 249.779 59.0943 249.724 59.954ZM264.336 54.1464V52.226H266.005V54.1464H264.336ZM264.336 65.8266V55.9741H266.005V65.8266H264.336ZM268.557 65.8266V55.9741H270.06V57.3749C270.783 56.2926 271.829 55.7514 273.195 55.7514C273.789 55.7514 274.333 55.8596 274.828 56.0761C275.329 56.2864 275.703 56.5647 275.951 56.9111C276.198 57.2574 276.371 57.6687 276.47 58.145C276.532 58.4542 276.563 58.9954 276.563 59.7685V65.8266H274.893V59.8334C274.893 59.1531 274.828 58.6459 274.698 58.312C274.568 57.9718 274.337 57.7027 274.003 57.5048C273.675 57.3007 273.288 57.1987 272.843 57.1987C272.132 57.1987 271.516 57.4244 270.997 57.8759C270.483 58.3274 270.227 59.184 270.227 60.4457V65.8266H268.557ZM282.779 64.3329L283.02 65.808C282.55 65.907 282.13 65.9565 281.758 65.9565C281.152 65.9565 280.682 65.8606 280.348 65.6689C280.014 65.4772 279.779 65.2267 279.643 64.9174C279.507 64.602 279.439 63.9433 279.439 62.9413V57.2729H278.214V55.9741H279.439V53.5341L281.1 52.5322V55.9741H282.779V57.2729H281.1V63.0341C281.1 63.5104 281.128 63.8165 281.183 63.9526C281.245 64.0886 281.341 64.1969 281.471 64.2773C281.607 64.3577 281.799 64.3979 282.046 64.3979C282.232 64.3979 282.476 64.3762 282.779 64.3329ZM291.166 62.6537L292.891 62.8671C292.619 63.8753 292.115 64.6577 291.379 65.2143C290.643 65.7709 289.703 66.0493 288.559 66.0493C287.118 66.0493 285.973 65.607 285.126 64.7226C284.285 63.832 283.864 62.5857 283.864 60.9838C283.864 59.3263 284.291 58.0398 285.145 57.1245C285.998 56.2091 287.105 55.7514 288.466 55.7514C289.783 55.7514 290.859 56.1998 291.694 57.0966C292.529 57.9934 292.947 59.2551 292.947 60.8818C292.947 60.9807 292.944 61.1292 292.938 61.3271H285.59C285.652 62.4094 285.958 63.2382 286.508 63.8134C287.059 64.3886 287.745 64.6762 288.568 64.6762C289.18 64.6762 289.703 64.5154 290.136 64.1938C290.569 63.8722 290.912 63.3588 291.166 62.6537ZM285.683 59.954H291.184C291.11 59.1253 290.9 58.5037 290.553 58.0893C290.021 57.4461 289.332 57.1245 288.484 57.1245C287.718 57.1245 287.071 57.3811 286.546 57.8945C286.026 58.4078 285.738 59.0943 285.683 59.954ZM294.979 65.8266V55.9741H296.482V57.4677C296.865 56.7688 297.218 56.308 297.539 56.0854C297.867 55.8627 298.226 55.7514 298.615 55.7514C299.178 55.7514 299.75 55.9308 300.332 56.2895L299.756 57.8388C299.348 57.5976 298.94 57.477 298.532 57.477C298.167 57.477 297.839 57.5883 297.548 57.811C297.258 58.0274 297.051 58.3305 296.927 58.7202C296.741 59.3139 296.649 59.9633 296.649 60.6684V65.8266H294.979ZM301.324 65.8266V55.9741H302.827V57.3749C303.551 56.2926 304.596 55.7514 305.963 55.7514C306.557 55.7514 307.101 55.8596 307.596 56.0761C308.097 56.2864 308.471 56.5647 308.718 56.9111C308.966 57.2574 309.139 57.6687 309.238 58.145C309.3 58.4542 309.331 58.9954 309.331 59.7685V65.8266H307.661V59.8334C307.661 59.1531 307.596 58.6459 307.466 58.312C307.336 57.9718 307.104 57.7027 306.77 57.5048C306.442 57.3007 306.056 57.1987 305.61 57.1987C304.899 57.1987 304.284 57.4244 303.764 57.8759C303.251 58.3274 302.994 59.184 302.994 60.4457V65.8266H301.324ZM318.33 64.6113C317.711 65.137 317.114 65.5081 316.539 65.7245C315.97 65.941 315.358 66.0493 314.702 66.0493C313.62 66.0493 312.788 65.7864 312.207 65.2607C311.625 64.7288 311.335 64.0515 311.335 63.2289C311.335 62.7465 311.443 62.3074 311.659 61.9116C311.882 61.5095 312.17 61.1879 312.522 60.9467C312.881 60.7055 313.283 60.5231 313.728 60.3994C314.056 60.3128 314.551 60.2293 315.213 60.1489C316.561 59.9881 317.554 59.7963 318.191 59.5737C318.197 59.3448 318.2 59.1995 318.2 59.1376C318.2 58.4573 318.042 57.978 317.727 57.6996C317.3 57.3224 316.666 57.1337 315.825 57.1337C315.039 57.1337 314.458 57.2729 314.081 57.5512C313.71 57.8233 313.434 58.3089 313.255 59.0078L311.622 58.7851C311.771 58.0862 312.015 57.5234 312.355 57.0966C312.695 56.6637 313.187 56.3328 313.83 56.1039C314.473 55.8689 315.219 55.7514 316.066 55.7514C316.907 55.7514 317.591 55.8504 318.116 56.0483C318.642 56.2462 319.029 56.4967 319.276 56.7997C319.523 57.0966 319.697 57.4739 319.796 57.9316C319.851 58.2161 319.879 58.7294 319.879 59.4716V61.6982C319.879 63.2506 319.913 64.234 319.981 64.6484C320.055 65.0566 320.198 65.4493 320.408 65.8266H318.664C318.491 65.4802 318.379 65.0751 318.33 64.6113ZM318.191 60.8818C317.584 61.1292 316.675 61.3395 315.463 61.5126C314.776 61.6116 314.291 61.7229 314.006 61.8466C313.722 61.9703 313.502 62.1528 313.348 62.394C313.193 62.629 313.116 62.8919 313.116 63.1826C313.116 63.6279 313.283 63.999 313.617 64.2958C313.957 64.5927 314.452 64.7411 315.101 64.7411C315.744 64.7411 316.317 64.602 316.818 64.3237C317.318 64.0392 317.686 63.6526 317.922 63.164C318.101 62.7867 318.191 62.2301 318.191 61.4941V60.8818ZM326.123 64.3329L326.364 65.808C325.894 65.907 325.473 65.9565 325.102 65.9565C324.496 65.9565 324.026 65.8606 323.692 65.6689C323.358 65.4772 323.123 65.2267 322.987 64.9174C322.851 64.602 322.783 63.9433 322.783 62.9413V57.2729H321.558V55.9741H322.783V53.5341L324.443 52.5322V55.9741H326.123V57.2729H324.443V63.0341C324.443 63.5104 324.471 63.8165 324.527 63.9526C324.589 64.0886 324.685 64.1969 324.815 64.2773C324.951 64.3577 325.142 64.3979 325.39 64.3979C325.575 64.3979 325.82 64.3762 326.123 64.3329ZM327.774 54.1464V52.226H329.444V54.1464H327.774ZM327.774 65.8266V55.9741H329.444V65.8266H327.774ZM331.374 60.9003C331.374 59.0758 331.881 57.7244 332.895 56.8461C333.742 56.1163 334.775 55.7514 335.994 55.7514C337.348 55.7514 338.455 56.1967 339.315 57.0873C340.175 57.9718 340.605 59.1964 340.605 60.7612C340.605 62.0291 340.413 63.0279 340.029 63.7578C339.652 64.4814 339.099 65.0442 338.369 65.4462C337.645 65.8482 336.853 66.0493 335.994 66.0493C334.615 66.0493 333.498 65.607 332.645 64.7226C331.797 63.8382 331.374 62.5641 331.374 60.9003ZM333.09 60.9003C333.09 62.162 333.365 63.1083 333.916 63.7392C334.466 64.3639 335.159 64.6762 335.994 64.6762C336.823 64.6762 337.512 64.3608 338.063 63.7299C338.613 63.0991 338.888 62.1373 338.888 60.8447C338.888 59.6262 338.61 58.7047 338.053 58.08C337.503 57.4492 336.816 57.1337 335.994 57.1337C335.159 57.1337 334.466 57.4461 333.916 58.0707C333.365 58.6954 333.09 59.6386 333.09 60.9003ZM342.571 65.8266V55.9741H344.074V57.3749C344.798 56.2926 345.843 55.7514 347.21 55.7514C347.804 55.7514 348.348 55.8596 348.843 56.0761C349.344 56.2864 349.718 56.5647 349.965 56.9111C350.213 57.2574 350.386 57.6687 350.485 58.145C350.547 58.4542 350.578 58.9954 350.578 59.7685V65.8266H348.908V59.8334C348.908 59.1531 348.843 58.6459 348.713 58.312C348.583 57.9718 348.351 57.7027 348.017 57.5048C347.689 57.3007 347.303 57.1987 346.858 57.1987C346.146 57.1987 345.531 57.4244 345.011 57.8759C344.498 58.3274 344.241 59.184 344.241 60.4457V65.8266H342.571ZM359.577 64.6113C358.958 65.137 358.361 65.5081 357.786 65.7245C357.217 65.941 356.605 66.0493 355.949 66.0493C354.867 66.0493 354.035 65.7864 353.454 65.2607C352.872 64.7288 352.582 64.0515 352.582 63.2289C352.582 62.7465 352.69 62.3074 352.906 61.9116C353.129 61.5095 353.417 61.1879 353.769 60.9467C354.128 60.7055 354.53 60.5231 354.975 60.3994C355.303 60.3128 355.798 60.2293 356.46 60.1489C357.808 59.9881 358.801 59.7963 359.438 59.5737C359.444 59.3448 359.447 59.1995 359.447 59.1376C359.447 58.4573 359.289 57.978 358.974 57.6996C358.547 57.3224 357.913 57.1337 357.072 57.1337C356.286 57.1337 355.705 57.2729 355.328 57.5512C354.957 57.8233 354.681 58.3089 354.502 59.0078L352.869 58.7851C353.018 58.0862 353.262 57.5234 353.602 57.0966C353.942 56.6637 354.434 56.3328 355.077 56.1039C355.72 55.8689 356.466 55.7514 357.313 55.7514C358.154 55.7514 358.838 55.8504 359.363 56.0483C359.889 56.2462 360.276 56.4967 360.523 56.7997C360.77 57.0966 360.944 57.4739 361.043 57.9316C361.098 58.2161 361.126 58.7294 361.126 59.4716V61.6982C361.126 63.2506 361.16 64.234 361.228 64.6484C361.302 65.0566 361.445 65.4493 361.655 65.8266H359.911C359.738 65.4802 359.626 65.0751 359.577 64.6113ZM359.438 60.8818C358.832 61.1292 357.922 61.3395 356.71 61.5126C356.024 61.6116 355.538 61.7229 355.254 61.8466C354.969 61.9703 354.749 62.1528 354.595 62.394C354.44 62.629 354.363 62.8919 354.363 63.1826C354.363 63.6279 354.53 63.999 354.864 64.2958C355.204 64.5927 355.699 64.7411 356.348 64.7411C356.991 64.7411 357.564 64.602 358.065 64.3237C358.566 64.0392 358.934 63.6526 359.169 63.164C359.348 62.7867 359.438 62.2301 359.438 61.4941V60.8818ZM363.687 65.8266V52.226H365.357V65.8266H363.687ZM367.964 54.1464V52.226H369.633V54.1464H367.964ZM367.964 65.8266V55.9741H369.633V65.8266H367.964ZM371.303 65.8266V64.4721L377.575 57.2729C376.864 57.31 376.236 57.3286 375.692 57.3286H371.674V55.9741H379.727V57.0781L374.393 63.331L373.363 64.4721C374.111 64.4164 374.813 64.3886 375.469 64.3886H380.024V65.8266H371.303ZM388.114 64.6113C387.495 65.137 386.899 65.5081 386.323 65.7245C385.754 65.941 385.142 66.0493 384.486 66.0493C383.404 66.0493 382.572 65.7864 381.991 65.2607C381.409 64.7288 381.119 64.0515 381.119 63.2289C381.119 62.7465 381.227 62.3074 381.443 61.9116C381.666 61.5095 381.954 61.1879 382.306 60.9467C382.665 60.7055 383.067 60.5231 383.512 60.3994C383.84 60.3128 384.335 60.2293 384.997 60.1489C386.345 59.9881 387.338 59.7963 387.975 59.5737C387.981 59.3448 387.984 59.1995 387.984 59.1376C387.984 58.4573 387.826 57.978 387.511 57.6996C387.084 57.3224 386.45 57.1337 385.609 57.1337C384.824 57.1337 384.242 57.2729 383.865 57.5512C383.494 57.8233 383.219 58.3089 383.039 59.0078L381.406 58.7851C381.555 58.0862 381.799 57.5234 382.139 57.0966C382.479 56.6637 382.971 56.3328 383.614 56.1039C384.258 55.8689 385.003 55.7514 385.85 55.7514C386.691 55.7514 387.375 55.8504 387.901 56.0483C388.426 56.2462 388.813 56.4967 389.06 56.7997C389.308 57.0966 389.481 57.4739 389.58 57.9316C389.635 58.2161 389.663 58.7294 389.663 59.4716V61.6982C389.663 63.2506 389.697 64.234 389.765 64.6484C389.839 65.0566 389.982 65.4493 390.192 65.8266H388.448C388.275 65.4802 388.163 65.0751 388.114 64.6113ZM387.975 60.8818C387.369 61.1292 386.459 61.3395 385.247 61.5126C384.561 61.6116 384.075 61.7229 383.791 61.8466C383.506 61.9703 383.287 62.1528 383.132 62.394C382.977 62.629 382.9 62.8919 382.9 63.1826C382.9 63.6279 383.067 63.999 383.401 64.2958C383.741 64.5927 384.236 64.7411 384.885 64.7411C385.529 64.7411 386.101 64.602 386.602 64.3237C387.103 64.0392 387.471 63.6526 387.706 63.164C387.885 62.7867 387.975 62.2301 387.975 61.4941V60.8818ZM395.907 64.3329L396.148 65.808C395.678 65.907 395.257 65.9565 394.886 65.9565C394.28 65.9565 393.81 65.8606 393.476 65.6689C393.142 65.4772 392.907 65.2267 392.771 64.9174C392.635 64.602 392.567 63.9433 392.567 62.9413V57.2729H391.342V55.9741H392.567V53.5341L394.228 52.5322V55.9741H395.907V57.2729H394.228V63.0341C394.228 63.5104 394.255 63.8165 394.311 63.9526C394.373 64.0886 394.469 64.1969 394.599 64.2773C394.735 64.3577 394.927 64.3979 395.174 64.3979C395.359 64.3979 395.604 64.3762 395.907 64.3329ZM397.558 54.1464V52.226H399.228V54.1464H397.558ZM397.558 65.8266V55.9741H399.228V65.8266H397.558ZM401.158 60.9003C401.158 59.0758 401.665 57.7244 402.679 56.8461C403.527 56.1163 404.56 55.7514 405.778 55.7514C407.132 55.7514 408.24 56.1967 409.099 57.0873C409.959 57.9718 410.389 59.1964 410.389 60.7612C410.389 62.0291 410.197 63.0279 409.814 63.7578C409.436 64.4814 408.883 65.0442 408.153 65.4462C407.429 65.8482 406.638 66.0493 405.778 66.0493C404.399 66.0493 403.282 65.607 402.429 64.7226C401.582 63.8382 401.158 62.5641 401.158 60.9003ZM402.874 60.9003C402.874 62.162 403.149 63.1083 403.7 63.7392C404.25 64.3639 404.943 64.6762 405.778 64.6762C406.607 64.6762 407.296 64.3608 407.847 63.7299C408.397 63.0991 408.672 62.1373 408.672 60.8447C408.672 59.6262 408.394 58.7047 407.838 58.08C407.287 57.4492 406.601 57.1337 405.778 57.1337C404.943 57.1337 404.25 57.4461 403.7 58.0707C403.149 58.6954 402.874 59.6386 402.874 60.9003ZM412.356 65.8266V55.9741H413.859V57.3749C414.582 56.2926 415.627 55.7514 416.994 55.7514C417.588 55.7514 418.132 55.8596 418.627 56.0761C419.128 56.2864 419.502 56.5647 419.75 56.9111C419.997 57.2574 420.17 57.6687 420.269 58.145C420.331 58.4542 420.362 58.9954 420.362 59.7685V65.8266H418.692V59.8334C418.692 59.1531 418.627 58.6459 418.497 58.312C418.367 57.9718 418.135 57.7027 417.801 57.5048C417.474 57.3007 417.087 57.1987 416.642 57.1987C415.93 57.1987 415.315 57.4244 414.796 57.8759C414.282 58.3274 414.026 59.184 414.026 60.4457V65.8266H412.356ZM108.996 89.6113C108.377 90.137 107.78 90.5081 107.205 90.7245C106.636 90.941 106.024 91.0493 105.368 91.0493C104.286 91.0493 103.454 90.7864 102.873 90.2607C102.291 89.7288 102.001 89.0515 102.001 88.2289C102.001 87.7465 102.109 87.3074 102.325 86.9116C102.548 86.5095 102.836 86.1879 103.188 85.9467C103.547 85.7055 103.949 85.5231 104.394 85.3994C104.722 85.3128 105.217 85.2293 105.879 85.1489C107.227 84.9881 108.22 84.7963 108.857 84.5737C108.863 84.3448 108.866 84.1995 108.866 84.1376C108.866 83.4573 108.708 82.978 108.393 82.6996C107.966 82.3224 107.332 82.1337 106.491 82.1337C105.705 82.1337 105.124 82.2729 104.747 82.5512C104.376 82.8233 104.1 83.3089 103.921 84.0078L102.288 83.7851C102.437 83.0862 102.681 82.5234 103.021 82.0966C103.361 81.6637 103.853 81.3328 104.496 81.1039C105.139 80.8689 105.885 80.7514 106.732 80.7514C107.573 80.7514 108.257 80.8504 108.782 81.0483C109.308 81.2462 109.695 81.4967 109.942 81.7997C110.189 82.0966 110.363 82.4739 110.462 82.9316C110.517 83.2161 110.545 83.7294 110.545 84.4716V86.6982C110.545 88.2506 110.579 89.234 110.647 89.6484C110.721 90.0566 110.864 90.4493 111.074 90.8266H109.33C109.157 90.4802 109.045 90.0751 108.996 89.6113ZM108.857 85.8818C108.25 86.1292 107.341 86.3395 106.129 86.5126C105.443 86.6116 104.957 86.7229 104.672 86.8466C104.388 86.9703 104.168 87.1528 104.014 87.394C103.859 87.629 103.782 87.8919 103.782 88.1826C103.782 88.6279 103.949 88.999 104.283 89.2958C104.623 89.5927 105.118 89.7411 105.767 89.7411C106.41 89.7411 106.983 89.602 107.484 89.3237C107.984 89.0392 108.352 88.6526 108.588 88.164C108.767 87.7867 108.857 87.2301 108.857 86.4941V85.8818ZM113.143 90.8266V80.9741H114.646V82.3749C115.369 81.2926 116.415 80.7514 117.781 80.7514C118.375 80.7514 118.919 80.8596 119.414 81.0761C119.915 81.2864 120.289 81.5647 120.537 81.9111C120.784 82.2574 120.957 82.6687 121.056 83.145C121.118 83.4542 121.149 83.9954 121.149 84.7685V90.8266H119.479V84.8334C119.479 84.1531 119.414 83.6459 119.284 83.312C119.154 82.9718 118.922 82.7027 118.589 82.5048C118.261 82.3007 117.874 82.1987 117.429 82.1987C116.718 82.1987 116.102 82.4244 115.583 82.8759C115.069 83.3274 114.813 84.184 114.813 85.4457V90.8266H113.143ZM130.111 90.8266V89.5834C129.486 90.5606 128.568 91.0493 127.356 91.0493C126.57 91.0493 125.846 90.8328 125.185 90.3998C124.529 89.9669 124.019 89.3639 123.654 88.5908C123.295 87.8115 123.116 86.9177 123.116 85.9096C123.116 84.9262 123.28 84.0356 123.608 83.2377C123.935 82.4337 124.427 81.8183 125.083 81.3915C125.738 80.9648 126.471 80.7514 127.281 80.7514C127.875 80.7514 128.404 80.8782 128.868 81.1318C129.332 81.3792 129.709 81.7039 130 82.1059V77.226H131.66V90.8266H130.111ZM124.832 85.9096C124.832 87.1713 125.098 88.1145 125.63 88.7392C126.162 89.3639 126.79 89.6762 127.513 89.6762C128.243 89.6762 128.862 89.3793 129.369 88.7856C129.882 88.1856 130.139 87.2734 130.139 86.0488C130.139 84.7005 129.879 83.7109 129.359 83.08C128.84 82.4492 128.2 82.1337 127.439 82.1337C126.697 82.1337 126.075 82.4368 125.574 83.0429C125.08 83.649 124.832 84.6046 124.832 85.9096ZM139.546 90.8266V77.226H141.216V90.8266H139.546ZM143.192 85.9003C143.192 84.0758 143.699 82.7244 144.714 81.8461C145.561 81.1163 146.594 80.7514 147.812 80.7514C149.167 80.7514 150.274 81.1967 151.133 82.0873C151.993 82.9718 152.423 84.1964 152.423 85.7612C152.423 87.0291 152.231 88.0279 151.848 88.7578C151.47 89.4814 150.917 90.0442 150.187 90.4462C149.464 90.8482 148.672 91.0493 147.812 91.0493C146.433 91.0493 145.317 90.607 144.463 89.7226C143.616 88.8382 143.192 87.5641 143.192 85.9003ZM144.908 85.9003C144.908 87.162 145.184 88.1083 145.734 88.7392C146.284 89.3639 146.977 89.6762 147.812 89.6762C148.641 89.6762 149.331 89.3608 149.881 88.7299C150.431 88.0991 150.707 87.1373 150.707 85.8447C150.707 84.6262 150.428 83.7047 149.872 83.08C149.321 82.4492 148.635 82.1337 147.812 82.1337C146.977 82.1337 146.284 82.4461 145.734 83.0707C145.184 83.6954 144.908 84.6386 144.908 85.9003ZM160.819 87.2177L162.461 87.4311C162.282 88.5629 161.821 89.4505 161.079 90.0937C160.343 90.7307 159.437 91.0493 158.36 91.0493C157.012 91.0493 155.927 90.6101 155.104 89.7319C154.288 88.8474 153.88 87.5826 153.88 85.9374C153.88 84.8736 154.056 83.9428 154.408 83.145C154.761 82.3471 155.296 81.7503 156.013 81.3544C156.737 80.9524 157.522 80.7514 158.37 80.7514C159.44 80.7514 160.315 81.0235 160.995 81.5678C161.676 82.1059 162.112 82.8728 162.303 83.8686L160.68 84.1191C160.525 83.4573 160.25 82.9594 159.854 82.6254C159.464 82.2914 158.991 82.1245 158.435 82.1245C157.594 82.1245 156.91 82.4275 156.384 83.0336C155.859 83.6336 155.596 84.586 155.596 85.8911C155.596 87.2146 155.849 88.1764 156.357 88.7763C156.864 89.3762 157.526 89.6762 158.342 89.6762C158.998 89.6762 159.545 89.4752 159.984 89.0732C160.423 88.6712 160.701 88.0527 160.819 87.2177ZM170.319 89.6113C169.7 90.137 169.104 90.5081 168.528 90.7245C167.959 90.941 167.347 91.0493 166.692 91.0493C165.609 91.0493 164.777 90.7864 164.196 90.2607C163.615 89.7288 163.324 89.0515 163.324 88.2289C163.324 87.7465 163.432 87.3074 163.649 86.9116C163.871 86.5095 164.159 86.1879 164.511 85.9467C164.87 85.7055 165.272 85.5231 165.717 85.3994C166.045 85.3128 166.54 85.2293 167.202 85.1489C168.55 84.9881 169.543 84.7963 170.18 84.5737C170.186 84.3448 170.189 84.1995 170.189 84.1376C170.189 83.4573 170.031 82.978 169.716 82.6996C169.289 82.3224 168.655 82.1337 167.814 82.1337C167.029 82.1337 166.447 82.2729 166.07 82.5512C165.699 82.8233 165.424 83.3089 165.244 84.0078L163.611 83.7851C163.76 83.0862 164.004 82.5234 164.344 82.0966C164.685 81.6637 165.176 81.3328 165.819 81.1039C166.463 80.8689 167.208 80.7514 168.055 80.7514C168.896 80.7514 169.58 80.8504 170.106 81.0483C170.631 81.2462 171.018 81.4967 171.265 81.7997C171.513 82.0966 171.686 82.4739 171.785 82.9316C171.84 83.2161 171.868 83.7294 171.868 84.4716V86.6982C171.868 88.2506 171.902 89.234 171.97 89.6484C172.045 90.0566 172.187 90.4493 172.397 90.8266H170.653C170.48 90.4802 170.368 90.0751 170.319 89.6113ZM170.18 85.8818C169.574 86.1292 168.665 86.3395 167.452 86.5126C166.766 86.6116 166.28 86.7229 165.996 86.8466C165.711 86.9703 165.492 87.1528 165.337 87.394C165.182 87.629 165.105 87.8919 165.105 88.1826C165.105 88.6279 165.272 88.999 165.606 89.2958C165.946 89.5927 166.441 89.7411 167.09 89.7411C167.734 89.7411 168.306 89.602 168.807 89.3237C169.308 89.0392 169.676 88.6526 169.911 88.164C170.09 87.7867 170.18 87.2301 170.18 86.4941V85.8818ZM174.429 90.8266V77.226H176.099V90.8266H174.429ZM178.706 79.1464V77.226H180.376V79.1464H178.706ZM178.706 90.8266V80.9741H180.376V90.8266H178.706ZM182.046 90.8266V89.4721L188.317 82.2729C187.606 82.31 186.978 82.3286 186.434 82.3286H182.417V80.9741H190.469V82.0781L185.135 88.331L184.105 89.4721C184.853 89.4164 185.555 89.3886 186.211 89.3886H190.766V90.8266H182.046ZM198.856 89.6113C198.238 90.137 197.641 90.5081 197.066 90.7245C196.497 90.941 195.884 91.0493 195.229 91.0493C194.146 91.0493 193.314 90.7864 192.733 90.2607C192.152 89.7288 191.861 89.0515 191.861 88.2289C191.861 87.7465 191.969 87.3074 192.186 86.9116C192.408 86.5095 192.696 86.1879 193.048 85.9467C193.407 85.7055 193.809 85.5231 194.255 85.3994C194.582 85.3128 195.077 85.2293 195.739 85.1489C197.087 84.9881 198.08 84.7963 198.717 84.5737C198.723 84.3448 198.726 84.1995 198.726 84.1376C198.726 83.4573 198.568 82.978 198.253 82.6996C197.826 82.3224 197.192 82.1337 196.351 82.1337C195.566 82.1337 194.984 82.2729 194.607 82.5512C194.236 82.8233 193.961 83.3089 193.781 84.0078L192.149 83.7851C192.297 83.0862 192.541 82.5234 192.881 82.0966C193.222 81.6637 193.713 81.3328 194.357 81.1039C195 80.8689 195.745 80.7514 196.592 80.7514C197.434 80.7514 198.117 80.8504 198.643 81.0483C199.168 81.2462 199.555 81.4967 199.802 81.7997C200.05 82.0966 200.223 82.4739 200.322 82.9316C200.378 83.2161 200.405 83.7294 200.405 84.4716V86.6982C200.405 88.2506 200.439 89.234 200.507 89.6484C200.582 90.0566 200.724 90.4493 200.934 90.8266H199.19C199.017 90.4802 198.906 90.0751 198.856 89.6113ZM198.717 85.8818C198.111 86.1292 197.202 86.3395 195.989 86.5126C195.303 86.6116 194.817 86.7229 194.533 86.8466C194.248 86.9703 194.029 87.1528 193.874 87.394C193.72 87.629 193.642 87.8919 193.642 88.1826C193.642 88.6279 193.809 88.999 194.143 89.2958C194.483 89.5927 194.978 89.7411 195.628 89.7411C196.271 89.7411 196.843 89.602 197.344 89.3237C197.845 89.0392 198.213 88.6526 198.448 88.164C198.627 87.7867 198.717 87.2301 198.717 86.4941V85.8818ZM206.649 89.3329L206.89 90.808C206.42 90.907 206 90.9565 205.629 90.9565C205.022 90.9565 204.552 90.8606 204.218 90.6689C203.884 90.4772 203.649 90.2267 203.513 89.9174C203.377 89.602 203.309 88.9433 203.309 87.9413V82.2729H202.085V80.9741H203.309V78.5341L204.97 77.5322V80.9741H206.649V82.2729H204.97V88.0341C204.97 88.5104 204.998 88.8165 205.053 88.9526C205.115 89.0886 205.211 89.1969 205.341 89.2773C205.477 89.3577 205.669 89.3979 205.916 89.3979C206.102 89.3979 206.346 89.3762 206.649 89.3329ZM208.3 79.1464V77.226H209.97V79.1464H208.3ZM208.3 90.8266V80.9741H209.97V90.8266H208.3ZM211.9 85.9003C211.9 84.0758 212.407 82.7244 213.422 81.8461C214.269 81.1163 215.302 80.7514 216.52 80.7514C217.875 80.7514 218.982 81.1967 219.841 82.0873C220.701 82.9718 221.131 84.1964 221.131 85.7612C221.131 87.0291 220.939 88.0279 220.556 88.7578C220.179 89.4814 219.625 90.0442 218.895 90.4462C218.172 90.8482 217.38 91.0493 216.52 91.0493C215.141 91.0493 214.025 90.607 213.171 89.7226C212.324 88.8382 211.9 87.5641 211.9 85.9003ZM213.616 85.9003C213.616 87.162 213.892 88.1083 214.442 88.7392C214.992 89.3639 215.685 89.6762 216.52 89.6762C217.349 89.6762 218.039 89.3608 218.589 88.7299C219.139 88.0991 219.415 87.1373 219.415 85.8447C219.415 84.6262 219.136 83.7047 218.58 83.08C218.029 82.4492 217.343 82.1337 216.52 82.1337C215.685 82.1337 214.992 82.4461 214.442 83.0707C213.892 83.6954 213.616 84.6386 213.616 85.9003ZM223.098 90.8266V80.9741H224.601V82.3749C225.324 81.2926 226.37 80.7514 227.736 80.7514C228.33 80.7514 228.874 80.8596 229.369 81.0761C229.87 81.2864 230.244 81.5647 230.492 81.9111C230.739 82.2574 230.912 82.6687 231.011 83.145C231.073 83.4542 231.104 83.9954 231.104 84.7685V90.8266H229.434V84.8334C229.434 84.1531 229.369 83.6459 229.239 83.312C229.109 82.9718 228.878 82.7027 228.544 82.5048C228.216 82.3007 227.829 82.1987 227.384 82.1987C226.673 82.1987 226.057 82.4244 225.538 82.8759C225.024 83.3274 224.768 84.184 224.768 85.4457V90.8266H223.098ZM238.971 79.1464V77.226H240.641V79.1464H238.971ZM238.971 90.8266V80.9741H240.641V90.8266H238.971ZM243.193 90.8266V80.9741H244.695V82.3749C245.419 81.2926 246.464 80.7514 247.831 80.7514C248.425 80.7514 248.969 80.8596 249.464 81.0761C249.965 81.2864 250.339 81.5647 250.587 81.9111C250.834 82.2574 251.007 82.6687 251.106 83.145C251.168 83.4542 251.199 83.9954 251.199 84.7685V90.8266H249.529V84.8334C249.529 84.1531 249.464 83.6459 249.334 83.312C249.204 82.9718 248.972 82.7027 248.638 82.5048C248.311 82.3007 247.924 82.1987 247.479 82.1987C246.767 82.1987 246.152 82.4244 245.632 82.8759C245.119 83.3274 244.862 84.184 244.862 85.4457V90.8266H243.193ZM259.27 90.8266V77.226H264.401C265.304 77.226 265.993 77.2693 266.469 77.3559C267.137 77.4672 267.697 77.6806 268.149 77.996C268.6 78.3053 268.962 78.7413 269.234 79.3041C269.512 79.867 269.651 80.4855 269.651 81.1596C269.651 82.3162 269.283 83.2965 268.547 84.1005C267.811 84.8984 266.482 85.2973 264.558 85.2973H261.07V90.8266H259.27ZM261.07 83.6923H264.586C265.749 83.6923 266.575 83.4759 267.063 83.0429C267.552 82.61 267.796 82.0008 267.796 81.2153C267.796 80.6463 267.651 80.1607 267.36 79.7587C267.075 79.3505 266.698 79.0815 266.228 78.9516C265.925 78.8712 265.365 78.831 264.549 78.831H261.07V83.6923ZM271.711 90.8266V80.9741H273.214V82.4677C273.597 81.7688 273.95 81.308 274.272 81.0854C274.599 80.8627 274.958 80.7514 275.348 80.7514C275.911 80.7514 276.483 80.9308 277.064 81.2895L276.489 82.8388C276.081 82.5976 275.672 82.477 275.264 82.477C274.899 82.477 274.572 82.5883 274.281 82.811C273.99 83.0274 273.783 83.3305 273.659 83.7202C273.474 84.3139 273.381 84.9633 273.381 85.6684V90.8266H271.711ZM277.435 85.9003C277.435 84.0758 277.942 82.7244 278.957 81.8461C279.804 81.1163 280.837 80.7514 282.055 80.7514C283.41 80.7514 284.517 81.1967 285.377 82.0873C286.236 82.9718 286.666 84.1964 286.666 85.7612C286.666 87.0291 286.474 88.0279 286.091 88.7578C285.714 89.4814 285.16 90.0442 284.43 90.4462C283.707 90.8482 282.915 91.0493 282.055 91.0493C280.676 91.0493 279.56 90.607 278.706 89.7226C277.859 88.8382 277.435 87.5641 277.435 85.9003ZM279.151 85.9003C279.151 87.162 279.427 88.1083 279.977 88.7392C280.528 89.3639 281.22 89.6762 282.055 89.6762C282.884 89.6762 283.574 89.3608 284.124 88.7299C284.675 88.0991 284.95 87.1373 284.95 85.8447C284.95 84.6262 284.672 83.7047 284.115 83.08C283.564 82.4492 282.878 82.1337 282.055 82.1337C281.22 82.1337 280.528 82.4461 279.977 83.0707C279.427 83.6954 279.151 84.6386 279.151 85.9003ZM288.624 79.165V77.226H290.294V79.165H288.624ZM286.508 94.6489L286.824 93.2294C287.158 93.316 287.421 93.3593 287.612 93.3593C287.953 93.3593 288.206 93.2449 288.373 93.0161C288.54 92.7934 288.624 92.2306 288.624 91.3276V80.9741H290.294V91.3647C290.294 92.5769 290.136 93.4212 289.82 93.8974C289.418 94.5159 288.75 94.8251 287.817 94.8251C287.365 94.8251 286.929 94.7664 286.508 94.6489ZM299.608 87.6537L301.334 87.8671C301.061 88.8753 300.557 89.6577 299.821 90.2143C299.085 90.7709 298.145 91.0493 297.001 91.0493C295.56 91.0493 294.416 90.607 293.568 89.7226C292.727 88.832 292.307 87.5857 292.307 85.9838C292.307 84.3263 292.734 83.0398 293.587 82.1245C294.441 81.2091 295.548 80.7514 296.908 80.7514C298.226 80.7514 299.302 81.1998 300.137 82.0966C300.972 82.9934 301.389 84.2551 301.389 85.8818C301.389 85.9807 301.386 86.1292 301.38 86.3271H294.032C294.094 87.4094 294.4 88.2382 294.951 88.8134C295.501 89.3886 296.188 89.6762 297.01 89.6762C297.623 89.6762 298.145 89.5154 298.578 89.1938C299.011 88.8722 299.354 88.3588 299.608 87.6537ZM294.125 84.954H299.627C299.552 84.1253 299.342 83.5037 298.996 83.0893C298.464 82.4461 297.774 82.1245 296.927 82.1245C296.16 82.1245 295.514 82.3811 294.988 82.8945C294.468 83.4078 294.181 84.0943 294.125 84.954ZM309.869 87.2177L311.511 87.4311C311.332 88.5629 310.871 89.4505 310.129 90.0937C309.393 90.7307 308.486 91.0493 307.41 91.0493C306.062 91.0493 304.977 90.6101 304.154 89.7319C303.338 88.8474 302.929 87.5826 302.929 85.9374C302.929 84.8736 303.106 83.9428 303.458 83.145C303.811 82.3471 304.346 81.7503 305.063 81.3544C305.787 80.9524 306.572 80.7514 307.42 80.7514C308.49 80.7514 309.365 81.0235 310.045 81.5678C310.725 82.1059 311.161 82.8728 311.353 83.8686L309.73 84.1191C309.575 83.4573 309.3 82.9594 308.904 82.6254C308.514 82.2914 308.041 82.1245 307.484 82.1245C306.643 82.1245 305.96 82.4275 305.434 83.0336C304.908 83.6336 304.646 84.586 304.646 85.8911C304.646 87.2146 304.899 88.1764 305.406 88.7763C305.914 89.3762 306.575 89.6762 307.392 89.6762C308.047 89.6762 308.595 89.4752 309.034 89.0732C309.473 88.6712 309.751 88.0527 309.869 87.2177ZM316.586 89.3329L316.827 90.808C316.357 90.907 315.936 90.9565 315.565 90.9565C314.959 90.9565 314.489 90.8606 314.155 90.6689C313.821 90.4772 313.586 90.2267 313.45 89.9174C313.314 89.602 313.246 88.9433 313.246 87.9413V82.2729H312.021V80.9741H313.246V78.5341L314.906 77.5322V80.9741H316.586V82.2729H314.906V88.0341C314.906 88.5104 314.934 88.8165 314.99 88.9526C315.052 89.0886 315.148 89.1969 315.277 89.2773C315.414 89.3577 315.605 89.3979 315.853 89.3979C316.038 89.3979 316.283 89.3762 316.586 89.3329ZM322.644 90.8266V89.1567L329.611 80.4453C330.106 79.8268 330.576 79.2887 331.021 78.831H323.432V77.226H333.173V78.831L325.538 88.2661L324.713 89.2216H333.396V90.8266H322.644ZM341.876 87.6537L343.601 87.8671C343.329 88.8753 342.825 89.6577 342.089 90.2143C341.353 90.7709 340.413 91.0493 339.269 91.0493C337.828 91.0493 336.683 90.607 335.836 89.7226C334.995 88.832 334.574 87.5857 334.574 85.9838C334.574 84.3263 335.001 83.0398 335.855 82.1245C336.708 81.2091 337.815 80.7514 339.176 80.7514C340.493 80.7514 341.569 81.1998 342.404 82.0966C343.239 82.9934 343.657 84.2551 343.657 85.8818C343.657 85.9807 343.654 86.1292 343.648 86.3271H336.3C336.362 87.4094 336.668 88.2382 337.218 88.8134C337.769 89.3886 338.455 89.6762 339.278 89.6762C339.89 89.6762 340.413 89.5154 340.846 89.1938C341.279 88.8722 341.622 88.3588 341.876 87.6537ZM336.393 84.954H341.894C341.82 84.1253 341.61 83.5037 341.263 83.0893C340.731 82.4461 340.042 82.1245 339.194 82.1245C338.428 82.1245 337.781 82.3811 337.255 82.8945C336.736 83.4078 336.448 84.0943 336.393 84.954ZM349.353 89.3329L349.594 90.808C349.124 90.907 348.704 90.9565 348.333 90.9565C347.727 90.9565 347.256 90.8606 346.922 90.6689C346.589 90.4772 346.353 90.2267 346.217 89.9174C346.081 89.602 346.013 88.9433 346.013 87.9413V82.2729H344.789V80.9741H346.013V78.5341L347.674 77.5322V80.9741H349.353V82.2729H347.674V88.0341C347.674 88.5104 347.702 88.8165 347.757 88.9526C347.819 89.0886 347.915 89.1969 348.045 89.2773C348.181 89.3577 348.373 89.3979 348.62 89.3979C348.806 89.3979 349.05 89.3762 349.353 89.3329ZM357.424 89.6113C356.806 90.137 356.209 90.5081 355.634 90.7245C355.065 90.941 354.453 91.0493 353.797 91.0493C352.715 91.0493 351.883 90.7864 351.301 90.2607C350.72 89.7288 350.429 89.0515 350.429 88.2289C350.429 87.7465 350.538 87.3074 350.754 86.9116C350.977 86.5095 351.264 86.1879 351.617 85.9467C351.976 85.7055 352.378 85.5231 352.823 85.3994C353.151 85.3128 353.645 85.2293 354.307 85.1489C355.656 84.9881 356.648 84.7963 357.285 84.5737C357.291 84.3448 357.295 84.1995 357.295 84.1376C357.295 83.4573 357.137 82.978 356.821 82.6996C356.395 82.3224 355.761 82.1337 354.92 82.1337C354.134 82.1337 353.553 82.2729 353.175 82.5512C352.804 82.8233 352.529 83.3089 352.35 84.0078L350.717 83.7851C350.865 83.0862 351.11 82.5234 351.45 82.0966C351.79 81.6637 352.282 81.3328 352.925 81.1039C353.568 80.8689 354.313 80.7514 355.161 80.7514C356.002 80.7514 356.685 80.8504 357.211 81.0483C357.737 81.2462 358.123 81.4967 358.371 81.7997C358.618 82.0966 358.791 82.4739 358.89 82.9316C358.946 83.2161 358.974 83.7294 358.974 84.4716V86.6982C358.974 88.2506 359.008 89.234 359.076 89.6484C359.15 90.0566 359.292 90.4493 359.503 90.8266H357.758C357.585 90.4802 357.474 90.0751 357.424 89.6113ZM357.285 85.8818C356.679 86.1292 355.77 86.3395 354.558 86.5126C353.871 86.6116 353.386 86.7229 353.101 86.8466C352.817 86.9703 352.597 87.1528 352.443 87.394C352.288 87.629 352.211 87.8919 352.211 88.1826C352.211 88.6279 352.378 88.999 352.712 89.2958C353.052 89.5927 353.547 89.7411 354.196 89.7411C354.839 89.7411 355.411 89.602 355.912 89.3237C356.413 89.0392 356.781 88.6526 357.016 88.164C357.196 87.7867 357.285 87.2301 357.285 86.4941V85.8818ZM364.698 87.4775C364.692 87.2548 364.689 87.0878 364.689 86.9765C364.689 86.3209 364.781 85.755 364.967 85.2787C365.103 84.92 365.323 84.5582 365.626 84.1933C365.848 83.9273 366.247 83.5408 366.822 83.0336C367.404 82.5203 367.781 82.1121 367.954 81.809C368.127 81.506 368.214 81.1751 368.214 80.8163C368.214 80.1669 367.96 79.5979 367.453 79.1093C366.946 78.6145 366.325 78.3671 365.589 78.3671C364.877 78.3671 364.283 78.5898 363.807 79.0351C363.331 79.4804 363.019 80.1762 362.87 81.1225L361.154 80.9184C361.309 79.6505 361.766 78.6795 362.527 78.0053C363.294 77.3312 364.305 76.9941 365.561 76.9941C366.89 76.9941 367.951 77.3559 368.743 78.0795C369.534 78.8032 369.93 79.6783 369.93 80.705C369.93 81.2988 369.791 81.8461 369.513 82.3471C369.234 82.8481 368.69 83.4573 367.88 84.1747C367.336 84.6572 366.98 85.0128 366.813 85.2416C366.646 85.4705 366.522 85.7333 366.442 86.0302C366.362 86.3271 366.315 86.8095 366.303 87.4775H364.698ZM364.596 90.8266V88.9247H366.498V90.8266H364.596Z" fill="#3B4045"/><path fill-rule="evenodd" clip-rule="evenodd" d="M76.8534 81.8542L70.1373 75.0818L69.6716 75.0812C70.8938 73.5253 71.6228 71.5635 71.6228 69.4314C71.6228 64.3759 67.5245 60.2777 62.4691 60.2777C57.4136 60.2777 53.3154 64.3759 53.3154 69.4314C53.3154 74.4868 57.4136 78.5851 62.4691 78.5851C64.602 78.5851 66.5646 77.8555 68.1208 76.6324V77.0996L74.8919 83.8157L76.8534 81.8542ZM69.0074 69.4314C69.0074 73.0424 66.0801 75.9697 62.4691 75.9697C58.8581 75.9697 55.9307 73.0424 55.9307 69.4314C55.9307 65.8204 58.8581 62.893 62.4691 62.893C66.0801 62.893 69.0074 65.8204 69.0074 69.4314Z" fill="#BAC0C5"/></g></g><defs><linearGradient id="paint0_linear_666_31317" x1="51.175" y1="164.746" x2="78.881" y2="164.746" gradientUnits="userSpaceOnUse"><stop stop-color="#AC76F0"/><stop offset=".526" stop-color="#297FFF"/><stop offset="1" stop-color="#6ABCF8"/></linearGradient><linearGradient id="paint1_linear_666_31317" x1="51.174" y1="178.599" x2="78.881" y2="178.599" gradientUnits="userSpaceOnUse"><stop stop-color="#F1720D"/><stop offset=".479" stop-color="#DE535E"/><stop offset="1" stop-color="#B95EC1"/></linearGradient><linearGradient id="paint2_linear_666_31317" x1="74.672" y1="161.349" x2="90.256" y2="161.349" gradientUnits="userSpaceOnUse"><stop stop-color="#AC76F0"/><stop offset=".526" stop-color="#297FFF"/><stop offset="1" stop-color="#6ABCF8"/></linearGradient><linearGradient id="paint3_linear_666_31317" x1="47.713" y1="155.226" x2="49.448" y2="155.226" gradientUnits="userSpaceOnUse"><stop stop-color="#AC76F0"/><stop offset=".526" stop-color="#297FFF"/><stop offset="1" stop-color="#6ABCF8"/></linearGradient><linearGradient id="paint4_linear_666_31317" x1="48.58" y1="156.09" x2="48.58" y2="154.357" gradientUnits="userSpaceOnUse"><stop stop-color="#AC76F0"/><stop offset=".526" stop-color="#297FFF"/><stop offset="1" stop-color="#6ABCF8"/></linearGradient><linearGradient id="paint5_linear_666_31317" x1="84.077" y1="167.347" x2="85.813" y2="167.347" gradientUnits="userSpaceOnUse"><stop stop-color="#AC76F0"/><stop offset=".526" stop-color="#297FFF"/><stop offset="1" stop-color="#6ABCF8"/></linearGradient><linearGradient id="paint6_linear_666_31317" x1="84.945" y1="168.211" x2="84.945" y2="166.478" gradientUnits="userSpaceOnUse"><stop stop-color="#AC76F0"/><stop offset=".526" stop-color="#297FFF"/><stop offset="1" stop-color="#6ABCF8"/></linearGradient><linearGradient id="paint7_linear_666_31317" x1="80.609" y1="174.269" x2="84.076" y2="174.269" gradientUnits="userSpaceOnUse"><stop stop-color="#AC76F0"/><stop offset=".526" stop-color="#297FFF"/><stop offset="1" stop-color="#6ABCF8"/></linearGradient><linearGradient id="paint8_linear_666_31317" x1="82.346" y1="176.003" x2="82.346" y2="172.537" gradientUnits="userSpaceOnUse"><stop stop-color="#AC76F0"/><stop offset=".526" stop-color="#297FFF"/><stop offset="1" stop-color="#6ABCF8"/></linearGradient><linearGradient id="paint9_linear_666_31317" x1="41.871" y1="211.991" x2="425.871" y2="211.991" gradientUnits="userSpaceOnUse"><stop stop-color="#AC76F0"/><stop offset=".526" stop-color="#297FFF"/><stop offset="1" stop-color="#6ABCF8"/></linearGradient><linearGradient id="paint10_linear_666_31317" x1="41.871" y1="234.7" x2="390.784" y2="234.7" gradientUnits="userSpaceOnUse"><stop stop-color="#AC76F0"/><stop offset=".526" stop-color="#297FFF"/><stop offset="1" stop-color="#6ABCF8"/></linearGradient><linearGradient id="paint11_linear_666_31317" x1="41.871" y1="258.14" x2="283.71" y2="258.14" gradientUnits="userSpaceOnUse"><stop stop-color="#AC76F0"/><stop offset=".526" stop-color="#297FFF"/><stop offset="1" stop-color="#6ABCF8"/></linearGradient><linearGradient id="paint12_linear_666_31317" x1="41.871" y1="281.579" x2="390.784" y2="281.579" gradientUnits="userSpaceOnUse"><stop stop-color="#AC76F0"/><stop offset=".526" stop-color="#297FFF"/><stop offset="1" stop-color="#6ABCF8"/></linearGradient><linearGradient id="paint13_linear_666_31317" x1="41.871" y1="304.288" x2="425.871" y2="304.288" gradientUnits="userSpaceOnUse"><stop stop-color="#AC76F0"/><stop offset=".526" stop-color="#297FFF"/><stop offset="1" stop-color="#6ABCF8"/></linearGradient><linearGradient id="paint14_linear_666_31317" x1="41.871" y1="326.997" x2="283.71" y2="326.997" gradientUnits="userSpaceOnUse"><stop stop-color="#AC76F0"/><stop offset=".526" stop-color="#297FFF"/><stop offset="1" stop-color="#6ABCF8"/></linearGradient><clipPath id="clip0_666_31317"><rect x=".149" y=".837" width="456" height="324" rx="12" fill="#fff"/></clipPath><clipPath id="clip1_666_31317"><rect x=".149" y=".837" width="456" height="324" rx="12" fill="#fff"/></clipPath><clipPath id="clip2_666_31317"><rect x="12" y="126" width="456" height="210" rx="15" fill="#fff"/></clipPath></defs></svg>